<?xml version="1.0" encoding="UTF-8" standalone="no"?>
<svg
   xmlns:dc="http://purl.org/dc/elements/1.1/"
   xmlns:cc="http://creativecommons.org/ns#"
   xmlns:rdf="http://www.w3.org/1999/02/22-rdf-syntax-ns#"
   xmlns:svg="http://www.w3.org/2000/svg"
   xmlns="http://www.w3.org/2000/svg"
   xmlns:sodipodi="http://sodipodi.sourceforge.net/DTD/sodipodi-0.dtd"
   xmlns:inkscape="http://www.inkscape.org/namespaces/inkscape"
   sodipodi:docname="acorn.svg"
   inkscape:version="1.0beta1 (32d4812, 2019-09-19)"
   id="svg8"
   version="1.1"
   viewBox="0 0 132.29166 132.29167"
   height="500"
   width="500">
  <defs
     id="defs2" />
  <sodipodi:namedview
     inkscape:document-rotation="0"
     inkscape:window-maximized="0"
     inkscape:window-y="23"
     inkscape:window-x="0"
     inkscape:window-height="907"
     inkscape:window-width="1600"
     units="px"
     showgrid="false"
     inkscape:current-layer="layer1"
     inkscape:document-units="mm"
     inkscape:cy="281.70832"
     inkscape:cx="405.11023"
     inkscape:zoom="1.2250405"
     inkscape:pageshadow="2"
     inkscape:pageopacity="0.0"
     borderopacity="1.0"
     bordercolor="#666666"
     pagecolor="#ffffff"
     id="base" />
  <metadata
     id="metadata5">
    <rdf:RDF>
      <cc:Work
         rdf:about="">
        <dc:format>image/svg+xml</dc:format>
        <dc:type
           rdf:resource="http://purl.org/dc/dcmitype/StillImage" />
        <dc:title />
      </cc:Work>
    </rdf:RDF>
  </metadata>
  <g
     transform="translate(0,-164.70832)"
     id="layer1"
     inkscape:groupmode="layer"
     inkscape:label="Layer 1">
    <path
       inkscape:connector-curvature="0"
       id="path861"
       d="M 59.595637,296.04018 C 39.01679,294.10377 19.785218,282.07987 9.0796357,264.45675 5.6050818,258.73707 2.9950619,252.40162 1.3808936,245.76915 0.61271197,242.61276 0.5829704,242.05996 0.58256273,230.93033 0.58218355,220.62911 0.65244958,219.05437 1.2277522,216.47162 6.067226,194.74522 22.480127,176.49871 43.922364,169.00723 c 3.622855,-1.26574 8.005742,-2.36773 8.413866,-2.11551 0.389496,0.24072 2.440089,9.76771 2.189637,10.17296 -0.08029,0.12987 -1.000994,0.42698 -2.04606,0.66024 -5.765528,1.28692 -13.59302,4.8907 -19.105491,8.79611 -4.012678,2.84288 -10.068531,8.89647 -12.861737,12.85694 -6.514277,9.23656 -10.094857,20.342 -10.094857,31.30995 0,18.25368 9.161493,35.17738 24.615136,45.47064 14.277055,9.50957 32.582928,11.93743 48.908645,6.48663 13.991596,-4.67149 26.345907,-15.51172 32.499067,-28.51617 5.2515,-11.09881 6.65218,-23.38352 3.99971,-35.07988 -1.06167,-4.68162 -1.88602,-7.04474 -4.00152,-11.47093 -2.12358,-4.4431 -5.10819,-8.99836 -8.25163,-12.594 C 99.138077,184.63338 84.870949,177.3293 72.158889,176.53946 l -3.337604,-0.20738 -0.978355,0.97836 c -1.108959,1.10896 -1.467103,2.71474 -1.30225,5.83883 l 0.10384,1.9671 4.098157,0.40062 c 13.207661,1.29114 22.984287,5.27932 29.864283,12.18254 5.54623,5.56495 7.3407,11.29073 5.15921,16.46195 -0.88556,2.09919 -3.34556,4.41692 -5.70552,5.37553 l -1.942264,0.78895 -0.19121,12.88552 c -0.205583,13.85401 -0.521053,17.21875 -2.139802,22.82307 -2.572171,8.90515 -7.666277,14.59723 -15.425652,17.23637 -4.117128,1.40032 -6.624319,1.6789 -14.864698,1.65161 -7.253103,-0.024 -7.894154,-0.0763 -10.940737,-0.89275 -9.318091,-2.49713 -15.040552,-8.04392 -18.008814,-17.45598 -1.78563,-5.66204 -2.232641,-9.84654 -2.478302,-23.19947 l -0.209937,-11.41127 -2.139227,-0.71943 c -3.57531,-1.20238 -5.505295,-3.25033 -6.417069,-6.80933 -1.950638,-7.61409 5.29709,-17.71364 16.916542,-23.57286 5.003523,-2.52307 9.839505,-4.0157 16.474604,-5.08488 1.465753,-0.23619 1.522567,-0.59533 0.433968,-2.74356 -1.876921,-3.70392 -2.389177,-9.55171 -1.059233,-12.09182 2.149455,-4.10534 6.274304,-5.946 12.382006,-5.52534 27.159221,1.87055 50.414045,19.6562 58.766065,44.94521 2.35992,7.14554 2.49221,8.23328 2.49221,20.4908 0,12.36908 -0.11226,13.2618 -2.61001,20.74502 -5.45946,16.3569 -17.82925,30.32343 -33.60353,37.94125 -11.413626,5.51194 -23.383299,7.67984 -35.899886,6.50206 z m 14.774328,-33.22594 c 6.059872,-1.20466 9.115217,-4.71927 10.827618,-12.45516 0.6639,-2.99919 0.737728,-4.37821 0.866622,-16.18563 0.0891,-8.15936 0.02305,-13.02492 -0.179389,-13.22739 -0.30889,-0.30889 -28.8557,0.15751 -36.6985,0.59958 l -3.360492,0.18943 v 10.1448 c 0,10.63729 0.282292,14.76529 1.310707,19.16666 1.529564,6.54617 4.629819,10.20508 9.834421,11.60654 3.499547,0.94233 13.025596,1.03056 17.399013,0.16117 z m -7.847153,-53.44842 c 11.293183,-0.26407 22.173797,-0.48012 24.179142,-0.48012 4.188515,0 4.299478,-0.10223 2.453189,-2.25916 -4.621206,-5.39884 -14.293671,-9.01895 -25.229192,-9.44254 -11.309155,-0.43804 -20.622767,2.55966 -27.134904,8.73372 -2.225864,2.11031 -3.283125,3.48958 -3.011625,3.92888 0.111856,0.18099 1.857266,0.24519 4.200853,0.1545 2.205212,-0.0854 13.249354,-0.3712 24.542537,-0.63528 z"
       style="fill:#ca342f;stroke-width:0.327852" />
  </g>
</svg>
