<?xml version="1.0" encoding="UTF-8" standalone="no"?>
<!-- Created with Inkscape (http://www.inkscape.org/) -->

<svg
   xmlns:dc="http://purl.org/dc/elements/1.1/"
   xmlns:cc="http://creativecommons.org/ns#"
   xmlns:rdf="http://www.w3.org/1999/02/22-rdf-syntax-ns#"
   xmlns:svg="http://www.w3.org/2000/svg"
   xmlns="http://www.w3.org/2000/svg"
   xmlns:sodipodi="http://sodipodi.sourceforge.net/DTD/sodipodi-0.dtd"
   xmlns:inkscape="http://www.inkscape.org/namespaces/inkscape"
   width="500"
   height="500"
   viewBox="0 0 132.29166 132.29167"
   version="1.1"
   id="svg8"
   inkscape:version="0.92.2 5c3e80d, 2017-08-06"
   sodipodi:docname="acorn.svg">
  <defs
     id="defs2" />
  <sodipodi:namedview
     id="base"
     pagecolor="#ffffff"
     bordercolor="#666666"
     borderopacity="1.0"
     inkscape:pageopacity="0.0"
     inkscape:pageshadow="2"
     inkscape:zoom="0.98994949"
     inkscape:cx="204.64323"
     inkscape:cy="187.85392"
     inkscape:document-units="mm"
     inkscape:current-layer="layer1"
     showgrid="false"
     units="px"
     inkscape:window-width="1920"
     inkscape:window-height="1081"
     inkscape:window-x="0"
     inkscape:window-y="1"
     inkscape:window-maximized="1" />
  <metadata
     id="metadata5">
    <rdf:RDF>
      <cc:Work
         rdf:about="">
        <dc:format>image/svg+xml</dc:format>
        <dc:type
           rdf:resource="http://purl.org/dc/dcmitype/StillImage" />
        <dc:title></dc:title>
      </cc:Work>
    </rdf:RDF>
  </metadata>
  <g
     inkscape:label="Layer 1"
     inkscape:groupmode="layer"
     id="layer1"
     transform="translate(0,-164.70832)">
    <path
       style="fill:#ca342f;stroke-width:0.26458335"
       d="m 60.859702,283.4605 c -16.607515,-1.56272 -32.127754,-11.26623 -40.767359,-25.48842 -2.80403,-4.61589 -4.910365,-9.72872 -6.213029,-15.08125 -0.619937,-2.54726 -0.643939,-2.99338 -0.644268,-11.9752 -3.06e-4,-8.31328 0.0564,-9.58412 0.52068,-11.66845 3.905546,-17.53361 17.151064,-32.25889 34.455351,-38.30465 2.923712,-1.02148 6.460784,-1.91081 6.790148,-1.70726 0.31433,0.19427 1.969197,7.88273 1.767077,8.20977 -0.0648,0.10481 -0.80782,0.34458 -1.651208,0.53283 -4.652889,1.03857 -10.969822,3.94688 -15.418489,7.09863 -3.238306,2.29425 -8.125493,7.17961 -10.379663,10.37579 -5.257143,7.45407 -8.146738,16.41637 -8.146738,25.26771 0,14.73106 7.393496,28.3888 19.864875,36.69566 11.521851,7.6744 26.295033,9.63373 39.470193,5.23483 11.29148,-3.76998 21.261638,-12.51825 26.227358,-23.01308 4.23806,-8.95695 5.36843,-18.87094 3.22784,-28.31012 -0.85679,-3.77816 -1.52206,-5.68524 -3.2293,-9.25726 -1.71377,-3.58567 -4.12241,-7.26184 -6.65923,-10.1636 -7.302748,-8.35331 -18.816588,-14.24784 -29.075458,-14.88525 l -2.69351,-0.16736 -0.78955,0.78955 c -0.89495,0.89495 -1.18398,2.19085 -1.05094,4.71205 l 0.0838,1.58749 3.30729,0.32331 c 10.65883,1.04197 18.54875,4.2605 24.10104,9.83153 4.47591,4.49102 5.92408,9.11183 4.16357,13.2851 -0.71466,1.69409 -2.69993,3.56454 -4.60446,4.33816 l -1.56744,0.6367 -0.15431,10.39885 c -0.16591,11.18044 -0.4205,13.89586 -1.72686,18.41864 -2.07579,7.18663 -6.18683,11.78025 -12.44879,13.91008 -3.3226,1.13008 -5.34595,1.3549 -11.99609,1.33288 -5.85339,-0.0194 -6.37073,-0.0616 -8.82938,-0.72047 -7.519874,-2.01523 -12.138007,-6.49159 -14.53345,-14.0873 -1.441037,-4.56938 -1.801783,-7.94634 -2.000036,-18.72241 l -0.169423,-9.20911 -1.726397,-0.58059 c -2.885341,-0.97034 -4.442875,-2.62308 -5.178694,-5.49526 -1.574201,-6.14471 4.274851,-14.29524 13.651966,-19.02374 4.037937,-2.03616 7.940665,-3.24074 13.295314,-4.10359 1.18289,-0.19061 1.22874,-0.48044 0.35022,-2.2141 -1.51471,-2.98913 -1.92811,-7.70841 -0.85482,-9.75833 1.73465,-3.31308 5.06348,-4.79853 9.99251,-4.45905 21.918,1.50957 40.685078,15.86292 47.425318,36.27162 1.90449,5.76659 2.01126,6.64442 2.01126,16.53646 0,9.98208 -0.0906,10.70252 -2.10633,16.74163 -4.40589,13.20032 -14.38854,24.47157 -27.118678,30.61929 -9.21101,4.44824 -18.87076,6.19778 -28.97188,5.24729 z m 11.92316,-26.81396 c 4.89043,-0.97218 7.35615,-3.80854 8.73809,-10.05154 0.53578,-2.42041 0.59536,-3.5333 0.69938,-13.06211 0.0719,-6.58476 0.0186,-10.51135 -0.14477,-10.67475 -0.24928,-0.24928 -23.28709,0.12711 -29.616377,0.48387 l -2.71198,0.15287 v 8.18705 c 0,8.58449 0.227815,11.91586 1.057765,15.46785 1.234387,5.28288 3.736351,8.23569 7.936562,9.36669 2.8242,0.76048 10.5119,0.83169 14.04133,0.13007 z m -6.3328,-43.13387 c 9.11381,-0.21311 17.89467,-0.38747 19.51302,-0.38747 3.38021,0 3.46976,-0.0825 1.97977,-1.82318 -3.7294,-4.35697 -11.53526,-7.27847 -20.36043,-7.62031 -9.1267,-0.35351 -16.642959,2.06569 -21.898376,7.04828 -1.796314,1.70306 -2.649543,2.81615 -2.430438,3.17067 0.09027,0.14607 1.498848,0.19788 3.390167,0.12469 1.779648,-0.0689 10.692477,-0.29957 19.806287,-0.51268 z"
       id="path861"
       inkscape:connector-curvature="0" />
  </g>
</svg>
