<svg xmlns="http://www.w3.org/2000/svg" width="500" height="500" version="1.1"
     viewBox="0 0 132.292 132.292">
    <g transform="translate(0,-164.70832)">
        <path style="opacity:1;fill:#fff;fill-opacity:1;stroke:none;stroke-width:.10442502;stroke-miterlimit:4;stroke-dasharray:none;stroke-opacity:1"
              d="M 0 0 L 0 398.3125 C 12.801782 396.05336 21.08438 393.11657 24.849609 389.50195 C 32.530678 382.27271 41.041136 367.58877 50.378906 345.44922 L 158.13867 93.328125 L 166.04688 93.328125 L 272.17773 346.96289 L 432.67773 118.57227 L 334.63086 118.57227 C 318.36507 118.57227 306.54196 120.37952 299.16211 123.99414 C 291.93287 127.45815 286.36115 132.57805 282.44531 139.35547 C 278.68008 145.98227 275.21553 158.4831 272.05273 176.85742 L 263.46875 176.85742 L 269.79297 100.27344 L 496.38477 100.27344 L 295.41016 387.63672 C 295.5676 387.78449 295.72621 387.94547 295.88281 388.08594 L 420.70508 388.08594 C 439.98306 388.08594 454.741 383.86966 464.98242 375.43555 C 475.37446 367.00143 484.56263 349.90652 492.54492 324.15234 L 500 325.50781 L 500 0 L 0 0 z M 500 325.50781 L 485.54102 406.61133 L 325.31641 406.61133 L 325.31641 406.67188 L 204.45117 406.67188 L 204.45117 398.3125 C 216.65052 397.71006 224.85911 395.6769 229.07617 392.21289 C 233.44384 388.74888 235.62891 384.5326 235.62891 379.5625 C 235.62891 372.9357 232.61616 362.46803 226.5918 348.16016 L 208.06641 304.10547 L 89.460938 304.10547 L 68.677734 352.45117 C 63.557022 364.3493 60.996094 373.23562 60.996094 379.10938 C 60.996094 383.77825 63.181161 387.92054 67.548828 391.53516 C 72.067104 394.99917 81.705143 397.25824 96.464844 398.3125 L 96.464844 406.67188 L 0 406.67188 L 0 500 L 500 500 L 500 325.50781 z M 149.78125 163.58789 L 96.464844 287.38867 L 201.74023 287.38867 L 149.78125 163.58789 z"
              transform="matrix(0.26458333,0,0,0.26458333,0,164.70832)"/>
    </g>
</svg>
