<?xml version="1.0" encoding="UTF-8" standalone="no"?>
<!-- Created with Inkscape (http://www.inkscape.org/) -->

<svg
   xmlns:dc="http://purl.org/dc/elements/1.1/"
   xmlns:cc="http://creativecommons.org/ns#"
   xmlns:rdf="http://www.w3.org/1999/02/22-rdf-syntax-ns#"
   xmlns:svg="http://www.w3.org/2000/svg"
   xmlns="http://www.w3.org/2000/svg"
   xmlns:sodipodi="http://sodipodi.sourceforge.net/DTD/sodipodi-0.dtd"
   xmlns:inkscape="http://www.inkscape.org/namespaces/inkscape"
   width="500"
   height="500"
   viewBox="0 0 132.29166 132.29167"
   version="1.1"
   id="svg1553"
   inkscape:version="0.92.2 5c3e80d, 2017-08-06"
   sodipodi:docname="alphabetical.svg">
  <defs
     id="defs1547" />
  <sodipodi:namedview
     id="base"
     pagecolor="#b2b2b2"
     bordercolor="#666666"
     borderopacity="1.0"
     inkscape:pageopacity="0"
     inkscape:pageshadow="2"
     inkscape:zoom="1.4"
     inkscape:cx="148.50129"
     inkscape:cy="247.82704"
     inkscape:document-units="mm"
     inkscape:current-layer="layer1"
     showgrid="false"
     units="px"
     inkscape:window-width="1920"
     inkscape:window-height="1085"
     inkscape:window-x="0"
     inkscape:window-y="1"
     inkscape:window-maximized="1" />
  <metadata
     id="metadata1550">
    <rdf:RDF>
      <cc:Work
         rdf:about="">
        <dc:format>image/svg+xml</dc:format>
        <dc:type
           rdf:resource="http://purl.org/dc/dcmitype/StillImage" />
        <dc:title></dc:title>
      </cc:Work>
    </rdf:RDF>
  </metadata>
  <g
     inkscape:label="Layer 1"
     inkscape:groupmode="layer"
     id="layer1"
     transform="translate(0,-164.70832)">
    <path
       style="opacity:1;fill:#ffffff;fill-opacity:1;stroke:none;stroke-width:0.10442502;stroke-miterlimit:4;stroke-dasharray:none;stroke-opacity:1"
       d="M 0 0 L 0 398.3125 C 12.801782 396.05336 21.08438 393.11657 24.849609 389.50195 C 32.530678 382.27271 41.041136 367.58877 50.378906 345.44922 L 158.13867 93.328125 L 166.04688 93.328125 L 272.17773 346.96289 L 432.67773 118.57227 L 334.63086 118.57227 C 318.36507 118.57227 306.54196 120.37952 299.16211 123.99414 C 291.93287 127.45815 286.36115 132.57805 282.44531 139.35547 C 278.68008 145.98227 275.21553 158.4831 272.05273 176.85742 L 263.46875 176.85742 L 269.79297 100.27344 L 496.38477 100.27344 L 295.41016 387.63672 C 295.5676 387.78449 295.72621 387.94547 295.88281 388.08594 L 420.70508 388.08594 C 439.98306 388.08594 454.741 383.86966 464.98242 375.43555 C 475.37446 367.00143 484.56263 349.90652 492.54492 324.15234 L 500 325.50781 L 500 0 L 0 0 z M 500 325.50781 L 485.54102 406.61133 L 325.31641 406.61133 L 325.31641 406.67188 L 204.45117 406.67188 L 204.45117 398.3125 C 216.65052 397.71006 224.85911 395.6769 229.07617 392.21289 C 233.44384 388.74888 235.62891 384.5326 235.62891 379.5625 C 235.62891 372.9357 232.61616 362.46803 226.5918 348.16016 L 208.06641 304.10547 L 89.460938 304.10547 L 68.677734 352.45117 C 63.557022 364.3493 60.996094 373.23562 60.996094 379.10938 C 60.996094 383.77825 63.181161 387.92054 67.548828 391.53516 C 72.067104 394.99917 81.705143 397.25824 96.464844 398.3125 L 96.464844 406.67188 L 0 406.67188 L 0 500 L 500 500 L 500 325.50781 z M 149.78125 163.58789 L 96.464844 287.38867 L 201.74023 287.38867 L 149.78125 163.58789 z "
       transform="matrix(0.26458333,0,0,0.26458333,0,164.70832)"
       id="rect2118" />
  </g>
  <g
     inkscape:groupmode="layer"
     id="layer3"
     inkscape:label="Layer 2" />
</svg>
