<svg xmlns="http://www.w3.org/2000/svg" id="svg4" width="2500" height="2283" version="1.1"
     viewBox="51.344 196.683 489.296 446.769"><metadata id="metadata10"/><path style="fill:#67595d;stroke-width:.994117" id="path2" d="m 324.16724,421.4021 c 0,-16.55104 -12.57459,-29.95869 -28.10865,-29.95869 -15.53406,0 -28.10865,13.40765 -28.10865,29.95869 0,16.55106 12.57459,29.9587 28.10865,29.9587 15.53406,0 28.10865,-13.40665 28.10865,-29.9587 z m -179.7512,186.59471 c 3.88301,6.47269 9.06137,11.9284 15.34817,15.71897 12.57457,7.48968 28.387,8.0444 45.2154,3.23585 16.82841,-4.80854 35.50687,-15.07181 55.75702,-30.42096 4.34529,-3.42076 5.26982,-10.54162 1.84807,-14.8879 -3.42076,-4.43773 -10.44818,-5.36326 -14.8869,-1.94151 -18.77091,14.33219 -35.50686,23.02375 -48.63716,26.81531 -13.13029,3.79155 -22.28412,2.49723 -28.57092,-1.20188 -6.28777,-3.69911 -11.00387,-10.63308 -13.31618,-23.39357 -2.31232,-12.76047 -1.75661,-30.88321 3.14439,-53.35225 6.56515,-29.86623 21.08124,-63.33914 38.46436,-96.9045 26.72285,57.97589 63.4316,120.66788 105.41016,163.38705 17.01332,17.01331 33.93517,30.14361 50.30231,38.28046 16.36614,8.04438 32.73228,11.46613 47.61918,6.47268 14.88689,-4.99245 24.87379,-17.93784 30.14261,-33.84171 5.2708,-15.90389 6.56514,-35.50687 4.62363,-57.79099 -3.79056,-44.75414 -20.06525,-101.06489 -48.45225,-159.78038 -2.40377,-4.99246 -9.24627,-7.30478 -14.23873,-4.901 -4.99345,2.40377 -7.30576,9.24627 -4.90099,14.23972 27.46148,56.95791 42.99653,111.23569 46.50974,152.29072 1.7576,20.52652 0.27736,37.72474 -3.60666,49.46923 -3.88302,11.83495 -9.33872,17.93784 -16.8284,20.43506 -7.48968,2.49623 -18.12274,1.20189 -31.34549,-5.36425 -13.31519,-6.56515 -28.66436,-18.49355 -44.56823,-34.39744 -50.67112,-57.23526 -82.01662,-110.2187 -107.07432,-172.63232 12.57458,-21.82185 26.16714,-42.07103 41.14648,-62.13627 80.72227,-1.75661 167.17762,11.83596 219.97515,38.83517 16.36614,8.32174 28.10865,17.19822 35.22951,25.42851 7.11987,8.22929 9.80099,15.2567 9.43118,21.63695 -0.27736,6.38024 -3.5132,12.85294 -11.37269,20.25015 -7.85949,7.39623 -20.25015,15.25671 -37.35593,21.91432 -5.17835,2.03395 -8.04438,8.5991 -6.01041,13.86891 2.03395,5.17836 8.5991,8.04539 13.8699,6.01043 18.86336,-7.30477 33.47192,-15.99634 44.19843,-26.07468 10.63307,-10.07836 17.10577,-22.09822 17.66049,-35.04361 0.64717,-12.85293 -4.80755,-25.52096 -14.42464,-36.61631 -9.61608,-11.09632 -23.39355,-21.17468 -41.42384,-30.42095 -54.36924,-27.73983 -135.0925,-40.86914 -213.59491,-40.86914 21.17468,-25.79831 43.18144,-49.28432 65.1882,-66.11272 18.49356,-14.14728 34.76724,-23.02375 47.89754,-26.81532 13.12929,-3.884 22.37657,-2.77458 28.66335,0.73963 6.28779,3.51321 11.09634,10.17081 13.59257,22.56149 2.49722,12.2982 1.9425,29.68132 -2.58868,51.59564 -1.20288,5.45572 2.77358,11.46613 8.22831,12.57557 5.4557,1.10944 11.46613,-2.77458 12.57556,-8.22929 4.901,-23.76337 6.01043,-43.73617 2.68114,-60.19476 -3.3293,-16.4586 -11.65105,-29.77379 -24.22563,-36.89366 -12.57558,-7.11987 -28.2021,-7.48968 -44.93804,-2.58868 -16.64351,4.90099 -35.04461,15.25671 -55.0174,30.42096 -27.55493,20.98978 -53.90798,50.39376 -78.96568,82.38742 -19.32463,0.83208 -36.89365,2.40377 -55.10985,5.17736 -2.86603,-13.40766 -7.11985,-26.44549 -8.04438,-38.00309 -1.7576,-20.52752 -0.27736,-37.72573 3.60565,-49.46923 3.88401,-11.83595 9.33973,-17.93784 16.82941,-20.43506 11.65105,-3.97647 33.00964,2.31132 58.99287,23.76336 3.97647,4.62364 12.29821,4.62364 16.18123,-0.0925 3.97547,-4.71609 2.49722,-12.85294 -2.77359,-15.99632 -28.47945,-24.31808 -55.66457,-36.15404 -79.15057,-28.29356 -14.88689,4.99245 -24.87379,17.93784 -30.14361,33.93417 -5.27081,15.90487 -6.56513,35.50686 -4.62263,57.79098 1.01697,12.11332 4.53117,25.70587 7.48967,39.39088 -40.40686,8.0444 -98.84601,29.58889 -111.328146,64.54104 -4.438732,14.05482 -1.109435,29.21908 8.414208,42.34936 9.524635,13.1303 25.058696,24.96526 45.956018,35.59933 4.99246,3.23684 12.66803,1.20188 15.25672,-4.16138 2.68113,-5.36326 -0.27637,-12.66703 -5.91699,-14.70198 -18.95482,-9.70852 -31.623846,-19.97278 -38.18799,-29.1266 -6.565149,-9.06138 -7.489678,-15.99634 -5.178355,-23.48601 14.88689,-26.07469 55.293765,-43.08899 94.777085,-49.65414 4.43873,16.55106 11.09534,35.41441 18.0313,53.2598 -22.19167,40.22197 -39.85315,80.44491 -47.98899,117.80084 -5.36426,24.31907 -6.47369,44.84559 -3.42175,61.675 1.48023,8.31975 4.99444,15.99335 7.95392,22.37359 z M 202.02112,381.0867 c -3.69911,-10.54062 -7.48967,-20.98977 -10.26326,-30.97568 11.37269,-1.66415 22.09822,-3.42076 34.11907,-4.25283 -8.32174,11.74251 -16.36614,22.93128 -23.94827,35.2295 h 0.0925 z"/></svg>
