<?xml version="1.0" encoding="UTF-8" standalone="no"?>
<svg
   xmlns:dc="http://purl.org/dc/elements/1.1/"
   xmlns:cc="http://creativecommons.org/ns#"
   xmlns:rdf="http://www.w3.org/1999/02/22-rdf-syntax-ns#"
   xmlns:svg="http://www.w3.org/2000/svg"
   xmlns="http://www.w3.org/2000/svg"
   xmlns:sodipodi="http://sodipodi.sourceforge.net/DTD/sodipodi-0.dtd"
   xmlns:inkscape="http://www.inkscape.org/namespaces/inkscape"
   sodipodi:docname="blog.svg"
   inkscape:version="1.0beta1 (32d4812, 2019-09-19)"
   id="svg8"
   version="1.1"
   viewBox="0 0 132.29166 132.29167"
   height="500"
   width="500">
  <defs
     id="defs2">
    <rect
       id="rect12"
       height="48.651153"
       width="104.61258"
       y="39.324248"
       x="14.620554" />
  </defs>
  <sodipodi:namedview
     inkscape:window-maximized="0"
     inkscape:window-y="23"
     inkscape:window-x="0"
     inkscape:window-height="907"
     inkscape:window-width="1600"
     units="px"
     showgrid="false"
     inkscape:document-rotation="0"
     inkscape:current-layer="layer1"
     inkscape:document-units="mm"
     inkscape:cy="560"
     inkscape:cx="400"
     inkscape:zoom="0.35"
     inkscape:pageshadow="2"
     inkscape:pageopacity="0.0"
     borderopacity="1.0"
     bordercolor="#666666"
     pagecolor="#ffffff"
     id="base" />
  <metadata
     id="metadata5">
    <rdf:RDF>
      <cc:Work
         rdf:about="">
        <dc:format>image/svg+xml</dc:format>
        <dc:type
           rdf:resource="http://purl.org/dc/dcmitype/StillImage" />
        <dc:title />
      </cc:Work>
    </rdf:RDF>
  </metadata>
  <g
     id="layer1"
     inkscape:groupmode="layer"
     inkscape:label="Layer 1">
    <text
       style="font-style:normal;font-weight:normal;font-size:50.8px;line-height:1.25;font-family:sans-serif;shape-inside:url(#rect12);fill:#000000;fill-opacity:1;stroke:none"
       id="text10"
       xml:space="preserve" />
    <g
       style="font-style:normal;font-weight:normal;font-size:49.8622px;line-height:1.25;font-family:sans-serif;fill:#000000;fill-opacity:1;stroke:none;stroke-width:0.287666"
       id="text18"
       aria-label="BLOG">
      <path
         id="path842"
         style="stroke-width:0.287666"
         d="m 27.77531,73.121186 q 0,2.702493 -1.022564,4.771969 -1.022565,2.069476 -2.751186,3.408549 -2.04513,1.606887 -4.504154,2.288597 -2.434678,0.68171 -6.208429,0.68171 H 0.43387838 V 48.019658 H 11.170808 q 3.968524,0 5.940613,0.292161 1.972089,0.292162 3.773751,1.217339 1.996436,1.046912 2.897267,2.702493 0.90083,1.631234 0.90083,3.919831 0,2.580759 -1.314726,4.406767 -1.314726,1.801661 -3.505936,2.897266 v 0.194775 q 3.676364,0.75475 5.794534,3.238121 2.118169,2.459025 2.118169,6.232775 z M 19.667833,56.784498 q 0,-1.314726 -0.438242,-2.215557 -0.438242,-0.90083 -1.412113,-1.460806 -1.144299,-0.657363 -2.775533,-0.803444 -1.631234,-0.170427 -4.041565,-0.170427 H 5.2545405 v 10.469114 h 6.2327755 q 2.26425,0 3.603323,-0.219121 1.339073,-0.243468 2.483371,-0.973871 1.144299,-0.730403 1.606888,-1.874702 0.486935,-1.168645 0.486935,-2.751186 z m 3.092041,16.531463 q 0,-2.19121 -0.657363,-3.48159 -0.657363,-1.290379 -2.385984,-2.19121 Q 18.547881,67.034492 16.867954,66.864064 15.212373,66.66929 12.826388,66.66929 H 5.2545405 v 13.488115 h 6.3788555 q 3.165081,0 5.185864,-0.316508 2.020783,-0.340855 3.311162,-1.217339 1.363419,-0.949524 1.996436,-2.166863 0.633016,-1.217339 0.633016,-3.140734 z" />
      <path
         id="path844"
         style="stroke-width:0.287666"
         d="M 57.55142,84.272011 H 34.616755 V 48.019658 h 4.820662 v 31.96732 H 57.55142 Z" />
      <path
         id="path846"
         style="stroke-width:0.287666"
         d="m 89.397004,52.182957 q 2.215557,2.434678 3.384202,5.964961 1.192992,3.530283 1.192992,8.01009 0,4.479807 -1.217339,8.034437 -1.192992,3.530282 -3.359855,5.89192 -2.239904,2.459025 -5.307598,3.70071 -3.043347,1.241686 -6.963178,1.241686 -3.822444,0 -6.963179,-1.266033 -3.116387,-1.266032 -5.307597,-3.676363 -2.19121,-2.410331 -3.384203,-5.916267 -1.168645,-3.505936 -1.168645,-8.01009 0,-4.431114 1.168645,-7.93705 1.168646,-3.530283 3.408549,-6.038001 2.142517,-2.385984 5.307598,-3.652017 3.189428,-1.266032 6.938832,-1.266032 3.895484,0 6.987525,1.290379 3.116388,1.266033 5.283251,3.62767 z m -0.438242,13.975051 q 0,-7.060566 -3.165081,-10.88301 -3.165081,-3.846791 -8.643106,-3.846791 -5.526719,0 -8.6918,3.846791 -3.140735,3.822444 -3.140735,10.88301 0,7.133606 3.213775,10.931703 3.213775,3.773751 8.61876,3.773751 5.404984,0 8.594412,-3.773751 3.213775,-3.798097 3.213775,-10.931703 z" />
      <path
         id="path848"
         style="stroke-width:0.287666"
         d="m 131.85779,81.593865 q -2.97031,1.36342 -6.50059,2.385984 -3.50594,0.998218 -6.79275,0.998218 -4.23634,0 -7.76663,-1.168645 -3.53028,-1.168645 -6.01365,-3.505936 -2.50772,-2.361638 -3.87114,-5.89192 -1.363417,-3.55463 -1.363417,-8.302252 0,-8.6918 5.064127,-13.707236 5.08848,-5.039783 13.95071,-5.039783 3.09204,0 6.30581,0.75475 3.23812,0.730404 6.96318,2.507718 v 5.721493 h -0.43824 q -0.75475,-0.584322 -2.19121,-1.533847 -1.43646,-0.949524 -2.82423,-1.58254 -1.67992,-0.75475 -3.82244,-1.241686 -2.11817,-0.511282 -4.82066,-0.511282 -6.0867,0 -9.64133,3.919831 -3.53028,3.895484 -3.53028,10.566502 0,7.036219 3.70071,10.95605 3.70071,3.895484 10.07957,3.895484 2.33729,0 4.65023,-0.462588 2.33729,-0.462589 4.09026,-1.192993 v -8.886574 h -9.71436 v -4.236339 h 14.48633 z" />
    </g>
  </g>
</svg>
