<?xml version="1.0" encoding="UTF-8" standalone="no"?>
<svg version="1.1"
     x="0px"
     y="0px"
     viewBox="0 0 55 55"
     style="enable-background:new 0 0 55 55;"
     xmlns="http://www.w3.org/2000/svg">
    <style type="text/css">.st0{fill:#1185FE;}</style>
    <path class="st0"
          d="M 27.476752,24.766622 C 24.99702,19.962139 18.270747,10.988609 12.009422,6.5715856 6.0115701,2.3405426 3.7178177,3.0689639 2.2299785,3.7508903 0.49416594,4.541305 0.1841995,7.207017 0.1841995,8.772348 c 0,1.565331 0.852408,12.863611 1.4258459,14.738908 1.8597992,6.230328 8.4465886,8.3381 14.5219316,7.656173 0.309968,-0.04649 0.619934,-0.09299 0.945399,-0.123986 -0.309967,0.04649 -0.635431,0.09299 -0.945399,0.123986 C 7.2359379,32.484788 -0.68370682,35.723938 9.7001715,47.27019 21.10694,59.079915 25.337983,44.743964 27.507749,37.45975 c 2.169766,7.268714 4.664996,21.093222 17.5906,9.81044 9.717452,-9.81044 2.665713,-14.785402 -6.230326,-16.102761 -0.309968,-0.031 -0.635432,-0.07749 -0.945399,-0.123986 0.325465,0.04649 0.635431,0.07749 0.945399,0.123986 6.075343,0.681927 12.677631,-1.425845 14.52193,-7.656173 0.55794,-1.890796 1.425848,-13.173577 1.425848,-14.738908 0,-1.565331 -0.309968,-4.231043 -2.045779,-5.0214577 C 51.266684,3.0689639 48.98843,2.3405426 42.990577,6.5715856 36.682758,11.004107 29.956484,19.962139 27.476752,24.766622 Z"
          style="stroke-width:1.54983"/>
</svg>
