<?xml version="1.0" encoding="UTF-8" standalone="no"?>
<!-- Created with Inkscape (http://www.inkscape.org/) -->

<svg
   xmlns:dc="http://purl.org/dc/elements/1.1/"
   xmlns:cc="http://creativecommons.org/ns#"
   xmlns:rdf="http://www.w3.org/1999/02/22-rdf-syntax-ns#"
   xmlns:svg="http://www.w3.org/2000/svg"
   xmlns="http://www.w3.org/2000/svg"
   xmlns:sodipodi="http://sodipodi.sourceforge.net/DTD/sodipodi-0.dtd"
   xmlns:inkscape="http://www.inkscape.org/namespaces/inkscape"
   width="1000"
   height="1000"
   viewBox="0 0 264.58333 264.58334"
   version="1.1"
   id="svg8"
   inkscape:version="0.92.2 5c3e80d, 2017-08-06"
   sodipodi:docname="frontend.svg">
  <defs
     id="defs2" />
  <sodipodi:namedview
     id="base"
     pagecolor="#ffffff"
     bordercolor="#666666"
     borderopacity="1.0"
     inkscape:pageopacity="0.0"
     inkscape:pageshadow="2"
     inkscape:zoom="0.7"
     inkscape:cx="540.40811"
     inkscape:cy="525.66852"
     inkscape:document-units="mm"
     inkscape:current-layer="layer1"
     showgrid="false"
     units="px"
     inkscape:window-width="1920"
     inkscape:window-height="1085"
     inkscape:window-x="0"
     inkscape:window-y="1"
     inkscape:window-maximized="1" />
  <metadata
     id="metadata5">
    <rdf:RDF>
      <cc:Work
         rdf:about="">
        <dc:format>image/svg+xml</dc:format>
        <dc:type
           rdf:resource="http://purl.org/dc/dcmitype/StillImage" />
        <dc:title></dc:title>
      </cc:Work>
    </rdf:RDF>
  </metadata>
  <g
     inkscape:label="Layer 1"
     inkscape:groupmode="layer"
     id="layer1"
     transform="translate(0,-32.416658)">
    <path
       style="fill:#080808;stroke-width:0.35277778"
       d="m 25.796346,270.92661 c -0.09235,-0.243 -0.127201,-32.98557 -0.07745,-72.76126 l 0.09046,-72.31944 33.690276,-0.17639 33.69028,-0.17639 0.17639,-33.69028 0.17638,-33.690276 h 72.672218 72.67222 v 72.672226 72.67222 l -33.69028,0.17639 -33.69027,0.17639 -0.17639,33.69027 -0.17639,33.69028 -72.594768,0.089 c -57.890593,0.071 -72.628784,-3.6e-4 -72.762684,-0.35278 z M 161.98158,232.91396 V 203.8098 l -34.21945,-0.17639 -34.219438,-0.17639 -0.17639,-34.04306 -0.17638,-34.04305 H 64.262142 35.334363 l -0.09053,62.97083 c -0.04979,34.63396 -0.01492,63.1697 0.07749,63.41277 0.133925,0.35225 13.002619,0.42384 63.414139,0.35277 l 63.246118,-0.0892 z m 0,-68.08611 v -29.45694 h -29.45695 -29.45694 l -0.0911,29.10416 c -0.0501,16.0073 -0.0151,29.30352 0.0779,29.54717 0.13414,0.35159 6.23151,0.42439 29.54806,0.35278 l 29.37905,-0.0902 z m 67.73333,-33.86666 V 67.637574 H 166.3913 103.06769 v 28.927777 28.927779 l 34.04305,0.17639 34.04306,0.17639 0.0873,33.86666 c 0.048,18.62667 0.16247,34.06603 0.2543,34.3097 0.1325,0.35158 6.15805,0.42439 29.19322,0.35277 l 29.02626,-0.0902 z"
       id="path880"
       inkscape:connector-curvature="0" />
  </g>
</svg>
