<?xml version="1.0" encoding="UTF-8" standalone="no"?>
<svg
   xmlns:dc="http://purl.org/dc/elements/1.1/"
   xmlns:cc="http://creativecommons.org/ns#"
   xmlns:rdf="http://www.w3.org/1999/02/22-rdf-syntax-ns#"
   xmlns:svg="http://www.w3.org/2000/svg"
   xmlns="http://www.w3.org/2000/svg"
   xmlns:sodipodi="http://sodipodi.sourceforge.net/DTD/sodipodi-0.dtd"
   xmlns:inkscape="http://www.inkscape.org/namespaces/inkscape"
   version="1.0"
   width="500"
   height="500"
   viewBox="0 0 375.00001 375.00001"
   preserveAspectRatio="xMidYMid meet"
   id="svg6"
   sodipodi:docname="bp-mobile.svg"
   inkscape:version="0.92.2 5c3e80d, 2017-08-06"
   inkscape:export-filename="/Users/matt/Desktop/bp-mobile.png"
   inkscape:export-xdpi="96"
   inkscape:export-ydpi="96">
  <metadata
     id="metadata12">
    <rdf:RDF>
      <cc:Work
         rdf:about="">
        <dc:format>image/svg+xml</dc:format>
        <dc:type
           rdf:resource="http://purl.org/dc/dcmitype/StillImage" />
        <dc:title />
      </cc:Work>
    </rdf:RDF>
  </metadata>
  <defs
     id="defs10" />
  <sodipodi:namedview
     pagecolor="#ffffff"
     bordercolor="#666666"
     borderopacity="1"
     objecttolerance="10"
     gridtolerance="10"
     guidetolerance="10"
     inkscape:pageopacity="0"
     inkscape:pageshadow="2"
     inkscape:window-width="1673"
     inkscape:window-height="1077"
     id="namedview8"
     showgrid="false"
     units="px"
     inkscape:zoom="2.2125001"
     inkscape:cx="254.28411"
     inkscape:cy="264.82027"
     inkscape:window-x="0"
     inkscape:window-y="0"
     inkscape:window-maximized="0"
     inkscape:current-layer="layer3" />
  <g
     inkscape:groupmode="layer"
     id="layer2"
     inkscape:label="Layer 2">
    <rect
       style="opacity:1;fill:#1a1a1a;fill-opacity:1;stroke:none;stroke-width:0.07607358;stroke-miterlimit:4;stroke-dasharray:none;stroke-opacity:1"
       id="rect822"
       width="116.79973"
       height="204.65739"
       x="128.65799"
       y="85.549225" />
  </g>
  <g
     inkscape:groupmode="layer"
     id="layer1"
     inkscape:label="Layer 1">
    <g
       transform="matrix(0.0245546,0,0,-0.0245546,80.93461,343.27933)"
       id="g4"
       style="fill:#000000;stroke:none">
      <path
         d="m 3294,11499 c -325,-4 -631,-12 -681,-18 -265,-32 -473,-138 -598,-303 -65,-86 -121,-205 -146,-313 -20,-83 -22,-124 -26,-545 -4,-369 -7,-458 -19,-474 -21,-31 -21,-643 1,-672 21,-28 21,-380 0,-408 -22,-29 -22,-641 0,-673 13,-18 15,-396 18,-3109 l 2,-3089 23,-85 c 63,-235 223,-423 437,-513 92,-38 230,-75 325,-86 348,-41 3080,-41 3420,0 232,28 438,117 568,248 93,93 152,199 194,346 l 23,80 3,3141 c 2,2768 4,3143 17,3154 22,18 22,655 0,686 -12,18 -15,158 -18,970 -4,1024 -1,980 -57,1139 -96,278 -352,461 -706,505 -92,12 -1346,30 -1864,28 -179,-1 -591,-5 -916,-9 z m 3357,-1059 c 19,-11 19,-67 19,-4118 0,-3182 -3,-4111 -12,-4120 -9,-9 -538,-12 -2319,-12 -2084,0 -2309,2 -2323,16 -15,14 -16,401 -16,4112 0,2253 4,4102 8,4108 4,6 14,14 22,17 29,11 4600,8 4621,-3 z"
         id="path2"
         inkscape:connector-curvature="0" />
    </g>
  </g>
  <g
     inkscape:groupmode="layer"
     id="layer3"
     inkscape:label="Layer 3">
    <g
       style="fill:#999999;stroke:none"
       id="g6"
       transform="matrix(0.0121177,0,0,-0.0121177,145.08201,229.92288)">
      <path
         sodipodi:nodetypes="ccccccccccsccccccscccccsccccscccccccccc"
         inkscape:connector-curvature="0"
         id="path4"
         d="m 2479,6318 c -3,-6 -7,-488 -10,-1120 -2,-588 -4,-658 -18,-659 -34,-2 -1065,-8 -1408,-8 l -361,-1 -1,-1919 V 692 l 27,-5 c 15,-3 879,-6 1920,-5 1426,0 1894,3 1897,11 2,7 6,404 8,883 2,479 7,875 10,881 4,6 256,11 664,12 362,2 759,4 883,5 l 225,1 3,1923 2,1922 H 4400 c -1056,0 -1921,-1 -1921,-2 z m 3597,-1925 -1,-1677 h -762 c -419,-1 -765,3 -769,7 -5,4 -10,412 -12,905 -2,493 -5,898 -5,899 -1,1 -403,3 -893,6 -490,2 -895,6 -900,10 -7,4 -11,1422 -5,1515 1,10 339,12 1674,12 H 6077 Z M 4280,4271 c 9,-2 6,-1539 -3,-1547 -9,-9 -1462,-13 -1517,-4 l -34,5 -1,760 c 0,418 1,767 3,775 3,14 90,15 775,14 425,-1 774,-2 777,-3 z"
         style="fill:#999999" />
    </g>
  </g>
</svg>
