<?xml version="1.0" encoding="UTF-8" standalone="no"?>
<!-- Created with Inkscape (http://www.inkscape.org/) -->

<svg
   xmlns:dc="http://purl.org/dc/elements/1.1/"
   xmlns:cc="http://creativecommons.org/ns#"
   xmlns:rdf="http://www.w3.org/1999/02/22-rdf-syntax-ns#"
   xmlns:svg="http://www.w3.org/2000/svg"
   xmlns="http://www.w3.org/2000/svg"
   xmlns:sodipodi="http://sodipodi.sourceforge.net/DTD/sodipodi-0.dtd"
   xmlns:inkscape="http://www.inkscape.org/namespaces/inkscape"
   width="500"
   height="500"
   viewBox="0 0 132.29166 132.29167"
   version="1.1"
   id="svg8"
   inkscape:version="0.92.2 5c3e80d, 2017-08-06"
   sodipodi:docname="cap-osce.svg">
  <defs
     id="defs2" />
  <sodipodi:namedview
     id="base"
     pagecolor="#ffffff"
     bordercolor="#666666"
     borderopacity="1.0"
     inkscape:pageopacity="0.0"
     inkscape:pageshadow="2"
     inkscape:zoom="0.64"
     inkscape:cx="262.9247"
     inkscape:cy="349.66214"
     inkscape:document-units="mm"
     inkscape:current-layer="layer1"
     showgrid="false"
     units="px"
     inkscape:window-width="1920"
     inkscape:window-height="1081"
     inkscape:window-x="0"
     inkscape:window-y="1"
     inkscape:window-maximized="1" />
  <metadata
     id="metadata5">
    <rdf:RDF>
      <cc:Work
         rdf:about="">
        <dc:format>image/svg+xml</dc:format>
        <dc:type
           rdf:resource="http://purl.org/dc/dcmitype/StillImage" />
        <dc:title></dc:title>
      </cc:Work>
    </rdf:RDF>
  </metadata>
  <g
     inkscape:label="Layer 1"
     inkscape:groupmode="layer"
     id="layer1"
     transform="translate(0,-164.70832)">
    <g
       id="g911"
       transform="matrix(0.74999708,0,0,0.74999708,-14.832467,145.25387)">
      <path
         style="fill:#fafafb;stroke-width:0.35277781"
         d="M 19.777037,114.13415 V 25.939701 h 88.194453 88.19445 V 114.13415 202.3286 H 107.97149 19.777037 Z"
         id="path877"
         inkscape:connector-curvature="0" />
      <path
         style="fill:#1fa8d6;stroke-width:0.35277781"
         d="M 19.777037,114.13415 V 25.939701 h 88.194453 88.19445 V 114.13415 202.3286 H 107.97149 19.777037 Z m 138.381613,33.49022 c 3.26349,-0.83324 4.30338,-1.31782 6.82579,-3.18074 7.2325,-5.34155 9.58664,-15.2215 5.59225,-23.46979 -0.97747,-2.01845 -4.7467,-6.32646 -5.8384,-6.67296 -0.51833,-0.16451 -1.10831,0.14107 -2.19151,1.13513 -0.81523,0.74813 -2.03786,1.77528 -2.71695,2.28255 -1.73952,1.29939 -6.31098,3.62776 -6.58488,3.35386 -0.12563,-0.12563 1.18965,-1.69845 2.92286,-3.49515 3.55517,-3.68541 4.67652,-5.40953 5.71833,-8.79212 1.69417,-5.50074 1.33495,-10.25163 -1.1583,-15.31922 -3.62186,-7.36152 -10.61356,-11.80299 -18.71329,-11.88759 -3.67362,-0.0384 -6.20523,0.59153 -9.82099,2.4436 -1.32696,0.6797 -2.60188,1.1632 -2.83316,1.07446 -0.23127,-0.0888 -0.71278,-1.0925 -1.07002,-2.23056 -1.24839,-3.97699 -2.97862,-6.85933 -5.81434,-9.68593 -3.21736,-3.20701 -6.4851,-4.94396 -10.95545,-5.82333 -4.91615,-0.96705 -10.20031,0.12648 -14.663883,3.03461 -4.053014,2.64064 -7.270129,6.99045 -8.987924,12.15243 -0.421386,1.26627 -0.921911,2.39857 -1.11227,2.51622 -0.190362,0.11765 -1.646431,-0.4308 -3.23571,-1.21876 -1.84507,-0.91479 -4.013916,-1.64994 -5.999942,-2.03372 -2.932183,-0.56662 -3.306018,-0.56647 -6.526389,0.003 -4.967239,0.87792 -7.974458,2.44712 -11.542816,6.02315 -1.709152,1.71283 -3.273538,3.68184 -3.93905,4.95788 -2.494164,4.78224 -3.004057,10.40571 -1.421072,15.67259 0.491384,1.63492 0.82776,3.14371 0.747502,3.35285 -0.08026,0.20915 -0.965292,0.84086 -1.966744,1.40381 -5.882787,3.30676 -9.831453,10.54138 -9.355901,17.14147 0.589106,8.17606 5.880943,14.79292 13.655093,17.07419 l 2.998611,0.87992 47.566225,0.0188 c 46.95611,0.0185 47.60286,0.009 50.42233,-0.71045 z m -54.50869,-14.51172 c -1.66443,-0.44207 -1.68889,-1.06553 -0.0648,-1.65279 1.53704,-0.5558 3.53554,-2.26313 4.23707,-3.61974 0.65246,-1.26173 0.14861,-1.31042 -1.39296,-0.13461 -3.49375,2.66482 -8.325524,3.25432 -11.987739,1.46256 -6.423452,-3.1427 -8.896192,-10.5055 -5.70066,-16.9742 1.816337,-3.67679 5.093621,-6.56793 12.910809,-11.38957 2.2479,-1.3865 5.00157,-3.23102 6.11927,-4.09894 2.25211,-1.7488 2.09961,-1.74865 5.55841,-0.005 3.61298,1.82117 6.83641,4.14079 9.45893,6.80675 4.11524,4.18343 5.99714,8.40222 5.99714,13.44425 0,2.1855 -0.17095,3.03198 -0.91308,4.52124 -2.39186,4.79984 -8.00337,6.63619 -12.43198,4.06832 -0.83985,-0.48698 -1.62664,-0.78578 -1.74841,-0.664 -0.12178,0.12178 0.0765,0.77452 0.44051,1.45055 0.7014,1.30243 2.20143,2.41047 3.80504,2.8107 1.53379,0.38281 1.146,1.09341 -1.23472,2.26255 -3.70184,1.81794 -9.69473,2.60403 -13.05278,1.71215 z"
         id="path875"
         inkscape:connector-curvature="0" />
      <path
         style="fill:#006fac;stroke-width:0.35277781"
         d="M 19.777037,114.13415 V 25.939701 h 88.194453 88.19445 V 114.13415 202.3286 H 107.97149 19.777037 Z M 158.38588,147.8104 c 4.52425,-1.06645 8.78235,-4.10488 11.22666,-8.01098 2.26131,-3.61364 2.65377,-4.9276 2.83714,-9.49881 0.19672,-4.90426 -0.4704,-7.67007 -2.67151,-11.07559 -1.26154,-1.95187 -4.77477,-5.44365 -5.47708,-5.44365 -0.16684,0 -1.28082,0.88753 -2.4755,1.97228 -2.10353,1.90997 -6.61199,4.71633 -7.59211,4.72584 -0.26458,0.002 0.87408,-1.41936 2.53037,-3.15983 4.49011,-4.71834 6.42931,-9.28713 6.36822,-15.00357 -0.12303,-11.51077 -9.66,-20.99027 -21.11752,-20.99027 -3.30287,0 -7.0835,0.93754 -10.0177,2.48426 -1.08721,0.5731 -2.16243,1.04234 -2.38937,1.04276 -0.22694,3.5e-4 -0.68407,-0.83268 -1.01584,-1.85133 -2.13326,-6.54975 -6.07086,-11.35339 -11.44793,-13.96578 -4.47782,-2.1755 -8.58855,-2.66106 -13.68501,-1.61648 -7.245036,1.48496 -13.409461,7.36938 -15.812033,15.09381 -0.353974,1.13806 -0.830058,2.14075 -1.05796,2.2282 -0.227901,0.0875 -1.541946,-0.40883 -2.920093,-1.10285 -8.388862,-4.22457 -17.633701,-2.70205 -24.421125,4.02188 -5.718293,5.66479 -7.671363,13.03019 -5.454559,20.57016 0.50001,1.70068 0.909109,3.24527 0.909109,3.43242 0,0.18715 -0.595312,0.64482 -1.322917,1.01705 -4.059931,2.07696 -7.729293,6.43221 -9.12671,10.8327 -1.843981,5.80673 -0.640706,13.00116 2.896411,17.31774 2.990245,3.6492 6.134204,5.81377 9.931792,6.8379 2.250423,0.60688 5.090496,0.64378 50.714485,0.6589 41.91168,0.0139 48.63075,-0.0547 50.59078,-0.51676 z M 96.506209,129.34749 c -3.096712,-0.82199 -6.271568,-3.57789 -7.700907,-6.6847 -1.170549,-2.5443 -1.083755,-6.96806 0.190055,-9.68651 1.907174,-4.07012 4.841809,-6.72169 12.978903,-11.727 2.42535,-1.49189 5.17172,-3.34675 6.10305,-4.12191 l 1.69332,-1.40938 1.83446,0.78001 c 4.4092,1.8748 9.82049,5.8019 12.30311,8.92864 1.69819,2.1388 3.81885,6.36863 3.81885,7.61703 v 0.86971 l -0.97014,-0.92551 c -2.7844,-2.65629 -7.24838,-2.13187 -10.10038,1.18656 -0.73136,0.85097 -2.43007,3.31745 -3.77491,5.48106 -3.10511,4.99557 -4.99531,6.89298 -8.74099,8.77433 -1.96399,0.98645 -5.688619,1.43416 -7.634421,0.91767 z"
         id="path873"
         inkscape:connector-curvature="0" />
      <g
         id="g904">
        <path
           inkscape:connector-curvature="0"
           id="path871"
           d="M 19.777037,114.13415 V 25.939701 h 88.194453 88.19445 V 114.13415 202.3286 H 107.97149 19.777037 Z M 158.38588,147.8104 c 4.52425,-1.06645 8.78235,-4.10488 11.22666,-8.01098 2.26131,-3.61364 2.65377,-4.9276 2.83714,-9.49881 0.19672,-4.90426 -0.4704,-7.67007 -2.67151,-11.07559 -1.26154,-1.95187 -4.77477,-5.44365 -5.47708,-5.44365 -0.16684,0 -1.28082,0.88753 -2.4755,1.97228 -2.10353,1.90997 -6.61199,4.71633 -7.59211,4.72584 -0.26458,0.002 0.87408,-1.41936 2.53037,-3.15983 4.49011,-4.71834 6.42931,-9.28713 6.36822,-15.00357 -0.12303,-11.51077 -9.66,-20.99027 -21.11752,-20.99027 -3.30287,0 -7.0835,0.93754 -10.0177,2.48426 -1.08721,0.5731 -2.16243,1.04234 -2.38937,1.04276 -0.22694,3.5e-4 -0.68407,-0.83268 -1.01584,-1.85133 -2.13326,-6.54975 -6.07086,-11.35339 -11.44793,-13.96578 -4.47782,-2.1755 -8.58855,-2.66106 -13.68501,-1.61648 -7.245036,1.48496 -13.409461,7.36938 -15.812033,15.09381 -0.353974,1.13806 -0.830058,2.14075 -1.05796,2.2282 -0.227901,0.0875 -1.541946,-0.40883 -2.920093,-1.10285 -8.388862,-4.22457 -17.633701,-2.70205 -24.421125,4.02188 -5.718293,5.66479 -7.671363,13.03019 -5.454559,20.57016 0.50001,1.70068 0.909109,3.24527 0.909109,3.43242 0,0.18715 -0.595312,0.64482 -1.322917,1.01705 -4.059931,2.07696 -7.729293,6.43221 -9.12671,10.8327 -1.843981,5.80673 -0.640706,13.00116 2.896411,17.31774 2.990245,3.6492 6.134204,5.81377 9.931792,6.8379 2.250423,0.60688 5.090496,0.64378 50.714485,0.6589 41.91168,0.0139 48.63075,-0.0547 50.59078,-0.51676 z"
           style="fill:#323232;stroke-width:0.35277781" />
      </g>
    </g>
  </g>
</svg>
