<svg xmlns="http://www.w3.org/2000/svg" xmlns:svg="http://www.w3.org/2000/svg" id="svg8" width="500" height="500" version="1.1" viewBox="0 0 132.292 132.292"><metadata id="metadata5"/><g style="display:inline" id="layer2"><path style="fill:#323232;fill-opacity:1;stroke-width:.264583" id="path877" d="M 2.5233333e-4,66.145832 V 2.5333333e-4 H 66.145834 132.29141 V 66.145832 132.29141 H 66.145834 2.5233333e-4 Z"/></g><g style="display:inline" id="layer1" transform="translate(0,-164.70832)"><g style="fill:#323232;fill-opacity:1" id="g911" transform="matrix(1.0180198,0,0,1.0180198,-43.762431,116.41203)"><g style="fill:#323232;fill-opacity:1" id="g904"><path style="fill:#fff;fill-opacity:1;stroke-width:.352778" id="path871" d="m 158.38588,147.8104 c 4.52425,-1.06645 8.78235,-4.10488 11.22666,-8.01098 2.26131,-3.61364 2.65377,-4.9276 2.83714,-9.49881 0.19672,-4.90426 -0.4704,-7.67007 -2.67151,-11.07559 -1.26154,-1.95187 -4.77477,-5.44365 -5.47708,-5.44365 -0.16684,0 -1.28082,0.88753 -2.4755,1.97228 -2.10353,1.90997 -6.61199,4.71633 -7.59211,4.72584 -0.26458,0.002 0.87408,-1.41936 2.53037,-3.15983 4.49011,-4.71834 6.42931,-9.28713 6.36822,-15.00357 -0.12303,-11.51077 -9.66,-20.99027 -21.11752,-20.99027 -3.30287,0 -7.0835,0.93754 -10.0177,2.48426 -1.08721,0.5731 -2.16243,1.04234 -2.38937,1.04276 -0.22694,3.5e-4 -0.68407,-0.83268 -1.01584,-1.85133 -2.13326,-6.54975 -6.07086,-11.35339 -11.44793,-13.96578 -4.47782,-2.1755 -8.58855,-2.66106 -13.68501,-1.61648 -7.245036,1.48496 -13.409461,7.36938 -15.812033,15.09381 -0.353974,1.13806 -0.830058,2.14075 -1.05796,2.2282 -0.227901,0.0875 -1.541946,-0.40883 -2.920093,-1.10285 -8.388862,-4.22457 -17.633701,-2.70205 -24.421125,4.02188 -5.718293,5.66479 -7.671363,13.03019 -5.454559,20.57016 0.50001,1.70068 0.909109,3.24527 0.909109,3.43242 0,0.18715 -0.595312,0.64482 -1.322917,1.01705 -4.059931,2.07696 -7.729293,6.43221 -9.12671,10.8327 -1.843981,5.80673 -0.640706,13.00116 2.896411,17.31774 2.990245,3.6492 6.134204,5.81377 9.931792,6.8379 2.250423,0.60688 5.090496,0.64378 50.714485,0.6589 41.91168,0.0139 48.63075,-0.0547 50.59078,-0.51676 z"/></g></g></g><g style="display:inline" id="layer3"><path style="fill:#1fa8d6;stroke-width:.359136" id="path875" d="m 61.755282,87.215024 c -1.694427,-0.450037 -1.719334,-1.084733 -0.06597,-1.682575 1.56473,-0.565815 3.599244,-2.303909 4.313407,-3.684966 0.664227,-1.284465 0.151292,-1.334034 -1.418053,-0.137037 -3.556703,2.71284 -8.475549,3.312964 -12.203755,1.488918 -6.539201,-3.199331 -9.056503,-10.694809 -5.803387,-17.280072 1.84907,-3.743043 5.185406,-6.686281 13.14346,-11.594808 2.288408,-1.411483 5.091693,-3.289242 6.229531,-4.172799 2.292698,-1.780314 2.137457,-1.780163 5.658583,-0.0052 3.678079,1.853986 6.95959,4.215407 9.629378,6.929406 4.189385,4.258816 6.105197,8.553625 6.105197,13.686512 0,2.224882 -0.174029,3.086615 -0.929537,4.602712 -2.43495,4.88633 -8.147583,6.755771 -12.655989,4.14163 -0.854992,-0.495756 -1.655959,-0.799941 -1.779927,-0.675966 -0.123927,0.123981 0.07791,0.788479 0.448461,1.476689 0.714027,1.325901 2.24109,2.453908 3.873592,2.861349 1.561432,0.389707 1.166656,1.113114 -1.25696,2.303319 -3.768547,1.8507 -9.869428,2.650957 -13.287992,1.743003 z"/></g><g style="display:inline" id="layer4"><path style="fill:#006fac;stroke-width:.359136" id="path873" d="m 54.482796,83.382016 c -3.152514,-0.836802 -6.384583,-3.642363 -7.839677,-6.80516 -1.191643,-2.590147 -1.103283,-7.09362 0.193478,-9.861055 1.941544,-4.143463 4.929057,-6.842816 13.21278,-11.938318 2.469053,-1.518772 5.264914,-3.40706 6.213027,-4.196187 l 1.723832,-1.434777 1.867519,0.794068 c 4.488652,1.908581 9.997451,5.906446 12.524808,9.089531 1.728792,2.177338 3.887663,6.483391 3.887663,7.754284 v 0.885381 l -0.98762,-0.942186 c -2.834576,-2.704154 -7.378995,-2.170284 -10.282388,1.207944 -0.74454,0.866301 -2.473859,3.377227 -3.842933,5.579827 -3.161063,5.085586 -5.085324,7.017191 -8.898499,8.932442 -1.99938,1.004224 -5.791128,1.460003 -7.77199,0.934206 z"/></g></svg>