<?xml version="1.0" encoding="UTF-8" standalone="no"?>
<svg
   height="300px"
   width="300px"
   fill="#000000"
   version="1.1"
   x="0px"
   y="0px"
   viewBox="0 0 48 48"
   enable-background="new 0 0 48 48"
   xml:space="preserve"
   id="svg25"
   sodipodi:docname="certificate.svg"
   inkscape:version="1.1 (c4e8f9e, 2021-05-24)"
   xmlns:inkscape="http://www.inkscape.org/namespaces/inkscape"
   xmlns:sodipodi="http://sodipodi.sourceforge.net/DTD/sodipodi-0.dtd"
   xmlns="http://www.w3.org/2000/svg"
   xmlns:svg="http://www.w3.org/2000/svg"><defs
   id="defs29" /><sodipodi:namedview
   id="namedview27"
   pagecolor="#ffffff"
   bordercolor="#111111"
   borderopacity="1"
   inkscape:pageshadow="0"
   inkscape:pageopacity="0"
   inkscape:pagecheckerboard="1"
   showgrid="false"
   inkscape:zoom="2.51"
   inkscape:cx="71.513944"
   inkscape:cy="173.10757"
   inkscape:window-width="1722"
   inkscape:window-height="969"
   inkscape:window-x="0"
   inkscape:window-y="772"
   inkscape:window-maximized="0"
   inkscape:current-layer="layer1" />
	<g
   inkscape:groupmode="layer"
   id="layer1"
   inkscape:label="Layer 1"><g
     id="g23"
     transform="translate(0,2.88)"
     style="fill:#f4e3d7">
		<path
   fill="none"
   stroke="#000000"
   stroke-width="2"
   stroke-linecap="round"
   stroke-linejoin="round"
   stroke-miterlimit="10"
   d="M 28.221,36.2 H 7.056 C 3.725,36.2 1,33.475 1,30.147 V 10.149 C 1,6.818 3.725,4.094 7.056,4.094 h 33.893 c 3.328,0 6.051,2.724 6.051,6.055 v 19.998 c 0,3.327 -2.723,6.053 -6.051,6.053 h -2.502"
   id="path9"
   style="fill:#f4e3d7" />
		<g
   id="g17"
   style="fill:#f4e3d7">
			<line
   fill="none"
   stroke="#000000"
   stroke-width="2"
   stroke-linecap="round"
   stroke-linejoin="round"
   stroke-miterlimit="10"
   x1="9.8540001"
   y1="11.065"
   x2="38.151001"
   y2="11.065"
   id="line11"
   style="fill:#f4e3d7" />
			<line
   fill="none"
   stroke="#000000"
   stroke-width="2"
   stroke-linecap="round"
   stroke-linejoin="round"
   stroke-miterlimit="10"
   x1="9.8540001"
   y1="19.768"
   x2="18.455999"
   y2="19.768"
   id="line13"
   style="fill:#f4e3d7" />
			<line
   fill="none"
   stroke="#000000"
   stroke-width="2"
   stroke-linecap="round"
   stroke-linejoin="round"
   stroke-miterlimit="10"
   x1="9.8540001"
   y1="28.469999"
   x2="18.455999"
   y2="28.469999"
   id="line15"
   style="fill:#f4e3d7" />
		</g>
		
		
	</g></g><g
   inkscape:groupmode="layer"
   id="layer2"
   inkscape:label="Layer 2"><polyline
     fill="none"
     stroke="#000000"
     stroke-width="2"
     stroke-linecap="round"
     stroke-linejoin="round"
     stroke-miterlimit="10"
     points="   28.221,31.092 28.221,43.905 32.874,40.396 37.622,43.905 37.622,30.902  "
     id="polyline21"
     style="fill:#d40000;stroke:#ffd308;stroke-opacity:1"
     transform="translate(0,2.868)" /></g><g
   inkscape:groupmode="layer"
   id="layer3"
   inkscape:label="Layer 3"><path
     fill="none"
     stroke="#000000"
     stroke-width="2"
     stroke-linecap="round"
     stroke-linejoin="round"
     stroke-miterlimit="10"
     d="m 40.90851,27.047 c 0,4.452 -3.605,8.059 -8.061,8.059 -4.445,0 -8.055,-3.606 -8.055,-8.059 0,-4.452 3.609,-8.057 8.055,-8.057 4.456,0 8.061,3.605 8.061,8.057 z"
     id="path19"
     style="fill:#d40000;stroke:#ffd308;stroke-opacity:1" /></g>
</svg>
