<svg xmlns="http://www.w3.org/2000/svg" width="500" height="500" version="1.1" viewBox="0 0 132.292 132.292">
    <g transform="translate(0,-164.70832)">
        <path style="opacity:1;fill:#fff;fill-opacity:1;stroke:none;stroke-width:.1016375;stroke-miterlimit:4;stroke-dasharray:none;stroke-opacity:1"
              d="M 0 0 L 0 500 L 500 500 L 500 245.19922 C 500.05932 271.05585 497.00716 298.90342 491.32617 317.93945 C 465.41373 404.76881 397.72425 470.59834 311.97656 492.36328 C 285.43354 499.10052 243.99302 501.91265 219.64648 498.62695 C 32.924069 473.42718 -61.20058 264.68662 43.578125 108.16016 C 58.954891 85.189174 94.107407 51.646228 118.58789 36.583984 C 161.40827 10.23765 199.71308 -0.22735912 252.48438 0.00390625 C 280.79334 0.12802619 290.84415 1.2719325 311.66406 6.7363281 C 406.33858 31.584639 476.87184 106.56045 496.42969 203.14062 C 498.80838 214.88709 499.96441 229.68524 500 245.19922 L 500 0 L 0 0 z M 255.00781 17.357422 C 232.14365 17.193251 208.00143 19.178584 193.125 23.171875 C 94.154015 49.738734 23.579385 135.6885 18.300781 236.08203 C 14.781162 303.0214 36.798101 362.54323 82.960938 410.89062 C 119.39299 449.04677 164.54376 472.26478 219.17773 480.93555 C 240.02367 484.24392 284.15682 481.69334 307.12305 475.85352 C 383.7977 456.35701 447.75039 396.48667 471.75391 321.73047 C 480.98843 292.97029 483.06622 275.74157 481.73242 238.97656 C 480.68976 210.23883 479.26648 200.475 473.5332 182.7207 C 446.7238 99.699261 385.65729 42.68562 301.07617 21.708984 C 289.80086 18.91264 272.79105 17.48511 255.00781 17.357422 z M 396.79688 100.46289 C 397.30309 100.4705 397.73018 100.60717 398.11328 100.83594 C 409.12698 107.41271 405.76856 111.73776 328.14258 190.97656 C 286.29015 233.6986 250.78679 268.6543 249.24609 268.6543 C 247.7054 268.6543 222.7973 245.09008 193.89453 216.28906 C 164.99178 187.48806 141.34375 161.99732 141.34375 159.64453 C 141.34375 157.29173 144.94206 152.33751 149.33984 148.63477 L 157.33594 141.90234 L 204.30273 188.84961 C 230.13477 214.67046 252.83643 235.79688 254.75 235.79688 C 256.66357 235.79688 288.6526 204.80421 325.83789 166.92383 C 379.51083 112.2476 391.90348 100.38931 396.79688 100.46289 z"
              transform="matrix(0.26458333,0,0,0.26458333,0,164.70832)"/>
    </g>
</svg>
