<svg xmlns="http://www.w3.org/2000/svg" width="250" height="250" version="1.1" viewBox="0 0 66.146 66.146">
    <g transform="translate(0,-230.85415)">
        <path d="m 14.732563,289.15884 c -0.249243,-0.12045 -0.560387,-0.47792 -0.691427,-0.79429 -0.202944,-0.48993 -0.162251,-0.72518 0.27455,-1.58715 0.822276,-1.62269 2.426298,-2.96247 5.148372,-4.30025 1.323532,-0.65045 2.54027,-1.18357 2.703866,-1.18469 0.163596,-0.001 0.798117,-0.23511 1.410043,-0.51998 1.222494,-0.56909 3.14194,-0.70276 4.063301,-0.28297 0.71166,0.32427 1.054658,1.20118 0.739966,1.89185 -0.307919,0.67582 -1.007098,0.99304 -2.188752,0.99304 -0.582991,0 -1.318069,0.19508 -1.9592,0.51995 -0.564366,0.286 -1.206905,0.51999 -1.427873,0.51999 -0.220961,0 -1.246465,0.42286 -2.278892,0.93971 -1.353131,0.67736 -2.142864,1.23523 -2.829001,1.99838 -0.523521,0.58228 -0.95186,1.13978 -0.95186,1.23884 0,0.18902 -1.10689,0.825 -1.393601,0.80075 -0.09149,-0.008 -0.370249,-0.11264 -0.619492,-0.23318 z m 35.358143,-0.0201 c -0.249298,-0.13896 -0.726743,-0.63036 -1.060986,-1.09202 -0.334243,-0.46168 -0.925835,-1.10771 -1.314644,-1.43561 -0.81837,-0.69016 -3.83235,-2.19676 -4.394653,-2.19676 -0.210043,0 -0.843657,-0.23399 -1.408022,-0.51998 -0.641124,-0.3249 -1.376202,-0.51996 -1.9592,-0.51996 -1.204453,0 -1.90649,-0.32993 -2.197623,-1.03281 -0.295408,-0.71316 0.03714,-1.52781 0.757718,-1.85611 0.913278,-0.41612 2.836461,-0.27997 4.05442,0.287 0.611934,0.28488 1.246453,0.51887 1.410049,0.51999 0.163598,10e-4 1.380336,0.53423 2.703865,1.18467 2.72207,1.33777 4.326097,2.67757 5.148374,4.30026 0.436158,0.8607 0.477305,1.09766 0.275293,1.58536 -0.130617,0.31536 -0.469576,0.67913 -0.753209,0.80835 -0.628914,0.28657 -0.692016,0.28494 -1.261382,-0.0323 z M 12.0287,281.67124 c -0.719999,-0.34808 -0.997165,-1.24705 -0.613331,-1.98929 0.480057,-0.92833 2.440505,-1.66673 7.550314,-2.84383 2.550835,-0.5876 6.651225,-0.74892 7.635634,-0.30038 1.12907,0.51443 1.123641,2.13794 -0.0088,2.65395 -0.278746,0.12701 -1.462386,0.23092 -2.630297,0.23092 -1.167916,0 -2.450447,0.0958 -2.850073,0.21274 -0.399629,0.11692 -1.428559,0.35882 -2.286517,0.53738 -0.857958,0.17856 -2.55157,0.64439 -3.763586,1.0352 -2.422985,0.78129 -2.386966,0.77576 -3.033268,0.46331 z m 39.55522,-0.29581 c -0.800756,-0.28164 -2.251487,-0.70173 -3.223834,-0.93353 -0.972356,-0.23182 -2.288827,-0.55598 -2.925505,-0.72037 -0.636673,-0.16441 -2.106394,-0.29892 -3.266051,-0.29892 -1.15965,0 -2.340525,-0.10559 -2.624165,-0.23497 -1.129063,-0.51444 -1.123633,-2.13794 0.0088,-2.65395 0.975421,-0.44442 5.088637,-0.28024 7.626762,0.30443 5.109809,1.1771 7.07026,1.9155 7.550315,2.84383 0.396544,0.76682 0.09931,1.64906 -0.674363,2.00158 -0.67134,0.30587 -0.756711,0.29522 -2.472031,-0.3081 z m -19.172239,-3.656 c -0.503712,-0.24351 -1.014373,-1.26934 -0.802527,-1.61211 0.07497,-0.12135 0.733629,-0.22055 1.46369,-0.22055 0.730062,0 1.388719,0.0993 1.463685,0.22055 0.224904,0.36389 -0.311468,1.37284 -0.86356,1.62438 -0.605524,0.27589 -0.666457,0.2753 -1.261288,-0.0122 z m -13.701879,-8.43631 c -0.204364,-0.31457 -1.010693,-1.16571 -1.791831,-1.89139 -0.781143,-0.72567 -1.420255,-1.40423 -1.420255,-1.50791 0,-0.10667 1.853576,-0.18852 4.263791,-0.18852 2.345083,0 4.263783,0.0501 4.263783,0.1111 0,0.17784 -2.909088,3.06628 -3.60614,3.58055 -0.835276,0.61624 -1.258215,0.59056 -1.709348,-0.10391 z m 25.321679,-1.11322 c -1.051096,-0.93712 -1.911089,-1.78366 -1.911089,-1.88124 0,-0.0975 1.684715,-0.17738 3.743814,-0.17738 2.059097,0 3.743813,0.0565 3.743813,0.12549 0,0.28236 -3.009219,3.51896 -3.324448,3.57566 -0.190934,0.0343 -1.182054,-0.68853 -2.25209,-1.64254 z M 3.3978174,261.63262 c -0.3776355,-0.20507 -0.7008422,-0.68701 -1.0056951,-1.4996 -0.4386082,-1.16914 -0.4466579,-1.37915 -0.340717,-8.89303 0.059669,-4.23259 0.1711191,-8.04341 0.2476587,-8.46848 0.1352688,-0.75124 0.1157872,-0.78223 -0.6956894,-1.10693 -1.64444715,-0.65798 -1.60813622,-2.27681 0.065408,-2.91593 0.7355491,-0.2809 1.6418119,-0.32328 5.6367914,-0.26356 l 4.76032,0.0711 1.351937,0.69958 c 2.649727,1.37114 5.670707,4.00058 6.599833,5.74443 0.547546,1.02765 1.511759,3.90739 1.511759,4.51499 0,1.52848 -1.25705,2.7239 -2.343688,2.22879 -0.592487,-0.26997 -1.101751,-1.24953 -0.909745,-1.74992 0.193499,-0.50424 -0.967112,-3.50015 -1.728244,-4.46118 -1.010523,-1.27587 -3.813838,-3.28587 -5.107121,-3.66185 -0.763521,-0.22197 -1.7979569,-0.29911 -3.4560411,-0.25771 l -2.3663685,0.0589 -0.1627816,1.35193 c -0.089542,0.74357 -0.2150422,4.46098 -0.2789241,8.26091 -0.1030853,6.13155 -0.07661,7.02801 0.2352842,7.967 0.4141713,1.24694 0.1947479,2.07957 -0.6493852,2.46419 -0.6380512,0.2907 -0.679469,0.28816 -1.3645866,-0.0839 z m 57.9244236,0.0716 c -0.78695,-0.38047 -0.992223,-1.23595 -0.588339,-2.45191 0.311887,-0.939 0.338357,-1.83545 0.235281,-7.967 -0.06388,-3.79993 -0.189401,-7.51735 -0.278929,-8.26092 l -0.162775,-1.35193 -2.366367,-0.0589 c -1.65809,-0.0414 -2.692521,0.0356 -3.456041,0.25771 -1.293292,0.37598 -4.096606,2.38598 -5.107128,3.66186 -0.761126,0.96102 -1.921738,3.95694 -1.728245,4.46118 0.198517,0.51732 -0.334054,1.50422 -0.949254,1.75904 -1.097232,0.4545 -2.304173,-0.71772 -2.304173,-2.2379 0,-0.60762 0.964212,-3.48736 1.511752,-4.51501 0.929133,-1.74384 3.950113,-4.37329 6.599842,-5.74443 l 1.351936,-0.69957 4.760321,-0.0711 c 4.014854,-0.0602 4.899053,-0.0183 5.646206,0.26715 1.669646,0.63764 1.695612,2.25627 0.04675,2.91601 -0.801341,0.32065 -0.82154,0.35311 -0.686479,1.10324 0.07655,0.42507 0.187987,4.23589 0.247663,8.46848 0.105978,7.51667 0.09805,7.72348 -0.341277,8.89452 -0.323724,0.8629 -0.617238,1.28551 -1.047359,1.50793 -0.686775,0.35513 -0.76901,0.35882 -1.383407,0.0618 z"
              style="fill:#180606;stroke-width:.20799"/>
    </g>
</svg>
