<svg xmlns="http://www.w3.org/2000/svg" width="1800" height="1440" version="1.1" viewBox="0 0 476.25 381">
    <g transform="translate(-20.410715,-37.708332)">
        <path d="m 233.88606,357.06749 c -14.84519,-3.43737 -26.93282,-8.39556 -41.09142,-16.85513 -27.08979,-16.18578 -49.73167,-44.91206 -58.21116,-73.85399 -1.32251,-4.51374 -2.91396,-9.87773 -3.53668,-11.92005 -1.74596,-20.16734 -2.7722,-42.30865 2.37599,-60.16112 6.53076,-22.27421 17.27647,-40.45229 33.6155,-56.86597 10.93536,-10.98539 18.9152,-16.98451 32.9635,-24.78158 26.13637,-14.50608 60.33283,-18.783654 94.00342,-11.75858 41.92302,8.74681 82.50681,45.54659 95.75389,86.82598 7.93424,25.99324 8.29557,50.79571 2.97927,71.29931 -7.27244,27.95957 -23.52136,53.18896 -46.06255,71.52052 -32.7926,25.35836 -79.47707,33.21814 -112.78976,26.55061 z m -183.158611,-5.388 c -3.000688,-9.34826 -4.229704,-24.75736 -3.601531,-45.1557 0.509261,-16.53633 1.344177,-24.18346 4.825086,-44.19477 2.933729,-18.89943 2.984989,-41.34881 -4.006715,-55.06253 -3.630495,-7.03748 -9.268008,-12.02753 -18.360715,-16.25205 -6.487602,-3.01415 -7.125848,-4.87834 -6.648865,-19.4196 1.159985,-35.36414 13.165444,-60.14491 33.69066,-69.54166 5.466902,-2.502801 20.734863,-5.559454 23.146749,-4.633937 1.246439,0.478314 1.405918,15.286497 1.405918,130.532957 V 357.94557 H 66.958406 52.738838 Z m 406.722641,2.7849 c -2.55085,-6.09087 -4.00142,-17.59097 -4.40452,-34.91807 -0.52233,-22.45265 0.37407,-32.20355 5.94258,-64.64382 3.47293,-22.88075 -2.59786,-52.15528 -21.48141,-62.65857 -8.6182,-4.42579 -9.17147,-5.694 -8.70883,-19.96161 0.6474,-19.96642 3.21417,-31.41584 10.61371,-47.34412 4.11274,-8.85312 14.40177,-19.00292 23.30439,-22.98902 4.936,-2.210137 16.34209,-4.761593 21.58337,-4.828082 l 2.55286,-0.03237 V 227.51716 357.94559 h -13.97211 -13.97212 z"
              style="fill:#2d2d2d;fill-opacity:1;stroke-width:.928317"/>
        <path style="fill:#000;stroke-width:.35277778"/>
        <path style="fill:#000;stroke-width:.35277778"/>
        <path style="fill:#000;stroke-width:.35277778"/>
    </g>
</svg>
