<?xml version="1.0" encoding="UTF-8" standalone="no"?>
<svg
   xmlns:dc="http://purl.org/dc/elements/1.1/"
   xmlns:cc="http://creativecommons.org/ns#"
   xmlns:rdf="http://www.w3.org/1999/02/22-rdf-syntax-ns#"
   xmlns:svg="http://www.w3.org/2000/svg"
   xmlns="http://www.w3.org/2000/svg"
   xmlns:sodipodi="http://sodipodi.sourceforge.net/DTD/sodipodi-0.dtd"
   xmlns:inkscape="http://www.inkscape.org/namespaces/inkscape"
   id="logo_art"
   data-name="logo art"
   viewBox="0 0 586 559"
   version="1.1"
   sodipodi:docname="glgc.svg"
   inkscape:version="0.92.2 5c3e80d, 2017-08-06">
  <metadata
     id="metadata27">
    <rdf:RDF>
      <cc:Work
         rdf:about="">
        <dc:format>image/svg+xml</dc:format>
        <dc:type
           rdf:resource="http://purl.org/dc/dcmitype/StillImage" />
      </cc:Work>
    </rdf:RDF>
  </metadata>
  <sodipodi:namedview
     pagecolor="#ffffff"
     bordercolor="#666666"
     borderopacity="1"
     objecttolerance="10"
     gridtolerance="10"
     guidetolerance="10"
     inkscape:pageopacity="0"
     inkscape:pageshadow="2"
     inkscape:window-width="1760"
     inkscape:window-height="1082"
     id="namedview25"
     showgrid="false"
     inkscape:zoom="1.1941123"
     inkscape:cx="226.65882"
     inkscape:cy="295.84595"
     inkscape:window-x="0"
     inkscape:window-y="0"
     inkscape:window-maximized="0"
     inkscape:current-layer="logo_art" />
  <defs
     id="defs4">
    <style
       id="style2">.cls-1{fill:#fc6d26;}.cls-2{fill:#e24329;}.cls-3{fill:#fca326;}</style>
  </defs>
  <title
     id="title6">gitlab-icon-rgb</title>
  <g
     id="g845"
     transform="translate(0.00237362,15.995859)">
    <g
       transform="matrix(1.1669543,0,0,1.1669543,-48.91723,-46.664433)"
       id="g44">
      <path
         style="fill:#fc6d26"
         inkscape:connector-curvature="0"
         d="M 461.17,301.83 442.26,243.71 404.84,128.43 a 6.47,6.47 0 0 0 -12.27,0 L 355.15,243.64 H 230.82 L 193.4,128.43 a 6.46,6.46 0 0 0 -12.26,0 l -37.36,115.21 -18.91,58.19 a 12.88,12.88 0 0 0 4.66,14.39 L 293,435 456.44,316.22 a 12.9,12.9 0 0 0 4.73,-14.39"
         class="cls-1"
         id="path46" />
    </g>
    <g
       transform="matrix(1.1669543,0,0,1.1669543,-48.91723,-46.664433)"
       style="fill:#005500"
       id="g48">
      <path
         style="fill:#005500"
         inkscape:connector-curvature="0"
         d="m 293,434.91 v 0 L 355.16,243.63 H 230.87 Z"
         class="cls-2"
         id="path50" />
    </g>
    <g
       transform="matrix(1.1669543,0,0,1.1669543,-48.91723,-46.664433)"
       style="fill:#008000"
       id="g56">
      <path
         style="fill:#008000"
         inkscape:connector-curvature="0"
         d="M 293,434.91 230.82,243.63 h -87 z"
         class="cls-1"
         id="path58" />
    </g>
    <g
       transform="matrix(1.1669543,0,0,1.1669543,-48.91723,-46.664433)"
       style="fill:#00aa00"
       id="g64">
      <path
         style="fill:#00aa00"
         inkscape:connector-curvature="0"
         d="m 143.75,243.69 v 0 l -18.91,58.12 a 12.88,12.88 0 0 0 4.66,14.39 L 293,435 Z"
         class="cls-3"
         id="path66" />
    </g>
    <g
       transform="matrix(1.1669543,0,0,1.1669543,-48.91723,-46.664433)"
       style="fill:#005500"
       id="g72">
      <path
         style="fill:#005500"
         inkscape:connector-curvature="0"
         d="m 143.78,243.69 h 87.11 L 193.4,128.49 a 6.47,6.47 0 0 0 -12.27,0 z"
         class="cls-2"
         id="path74" />
    </g>
    <g
       transform="matrix(1.1669543,0,0,1.1669543,-48.91723,-46.664433)"
       style="fill:#008000"
       id="g76">
      <path
         style="fill:#008000"
         inkscape:connector-curvature="0"
         d="M 293,434.91 355.16,243.63 H 442.3 Z"
         class="cls-1"
         id="path78" />
    </g>
    <g
       transform="matrix(1.1669543,0,0,1.1669543,-48.91723,-46.664433)"
       style="fill:#00aa00"
       id="g80">
      <path
         style="fill:#00aa00"
         inkscape:connector-curvature="0"
         d="m 442.24,243.69 v 0 l 18.91,58.12 a 12.85,12.85 0 0 1 -4.66,14.39 L 293,434.91 442.2,243.69 Z"
         class="cls-3"
         id="path82" />
    </g>
    <g
       transform="matrix(1.1669543,0,0,1.1669543,-48.91723,-46.664433)"
       style="fill:#005500"
       id="g84">
      <path
         style="fill:#005500"
         inkscape:connector-curvature="0"
         d="m 442.28,243.69 h -87.1 l 37.42,-115.2 a 6.46,6.46 0 0 1 12.26,0 z"
         class="cls-2"
         id="path86" />
    </g>
  </g>
</svg>
