<?xml version="1.0" encoding="UTF-8" standalone="no"?>
<svg
   width="500"
   height="500"
   version="1.1"
   viewBox="0 0 132.292 132.292"
   id="svg5049"
   sodipodi:docname="heart.svg"
   inkscape:version="1.2.2 (b0a8486, 2022-12-01)"
   xmlns:inkscape="http://www.inkscape.org/namespaces/inkscape"
   xmlns:sodipodi="http://sodipodi.sourceforge.net/DTD/sodipodi-0.dtd"
   xmlns="http://www.w3.org/2000/svg"
   xmlns:svg="http://www.w3.org/2000/svg">
  <defs
     id="defs5053" />
  <sodipodi:namedview
     id="namedview5051"
     pagecolor="#ffffff"
     bordercolor="#111111"
     borderopacity="1"
     inkscape:showpageshadow="0"
     inkscape:pageopacity="0"
     inkscape:pagecheckerboard="1"
     inkscape:deskcolor="#d1d1d1"
     showgrid="false"
     inkscape:zoom="1.1775894"
     inkscape:cx="236.07549"
     inkscape:cy="240.74604"
     inkscape:window-width="1494"
     inkscape:window-height="825"
     inkscape:window-x="0"
     inkscape:window-y="25"
     inkscape:window-maximized="0"
     inkscape:current-layer="svg5049" />
  <path
     id="rect5224"
     style="fill:#ff0000;fill-opacity:1;stroke:#ffffff;stroke-width:0.264054"
     d="M 2.8973457,27.762411 C 7.3721232,18.363761 14.37071,11.876926 23.929649,8.2671967 c 2.642014,-0.9977031 4.896092,-1.3458118 9.760099,-1.5069715 5.095629,-0.1688336 8.823255,0.1486036 11.347501,0.9659678 2.003529,0.6487527 6.407067,2.956229 8.552271,4.481716 5.40815,3.845826 10.325015,10.238153 11.540382,15.003184 0.697653,2.73525 0.684099,2.741228 2.492499,-1.073756 3.609833,-7.615236 8.170906,-12.526 14.689919,-15.81701 5.077427,-2.5632509 9.218826,-3.507497 15.386145,-3.507497 4.957715,0 6.940195,0.3093481 11.321725,1.7669009 7.16981,2.3850901 13.58417,7.3104691 17.76518,13.6411311 2.87311,4.3503 4.21453,8.205892 5.03709,14.478685 0.57886,4.414441 0.37817,14.364422 -0.36874,18.282728 -1.60131,8.400378 -5.96462,16.51921 -12.87765,23.960946 -5.06436,5.451665 -10.13221,9.805897 -20.62387,17.720067 -8.0763,6.092212 -11.526225,8.853692 -16.685771,13.356462 -4.662972,4.06938 -13.765658,13.0063 -14.729626,14.46166 l -0.724598,1.09386 -1.71891,-2.60032 C 61.000349,118.29708 54.563721,112.31053 43.576201,103.89182 26.564016,90.856917 25.5991,90.082234 19.69245,84.716851 8.2387161,74.3127 2.8713127,65.285662 0.72150118,52.811554 -0.34762073,44.211672 0.1979613,33.54933 2.8973457,27.762411 Z"
     sodipodi:nodetypes="cssssscsssssssssccccscc" />
</svg>
