<svg xmlns="http://www.w3.org/2000/svg" xmlns:svg="http://www.w3.org/2000/svg" id="svg8" width="933.333" height="933.333" preserveAspectRatio="xMidYMid meet" version="1.0" viewBox="0 0 700 700"><metadata id="metadata2">Created by potrace 1.11, written by Peter Selinger 2001-2013</metadata><g style="fill:#000;stroke:none" id="g6" transform="matrix(0.1226657,0,0,-0.1226657,-79.341299,779.3504)"><path id="path4" d="m 2479,6318 c -3,-6 -7,-488 -10,-1120 -2,-588 -4,-658 -18,-659 -34,-2 -1065,-8 -1408,-8 l -361,-1 -1,-1919 V 692 l 27,-5 c 15,-3 879,-6 1920,-5 1426,0 1894,3 1897,11 2,7 6,404 8,883 2,479 7,875 10,881 4,6 256,11 664,12 362,2 759,4 883,5 l 225,1 3,1923 2,1922 H 4400 c -1056,0 -1921,-1 -1921,-2 z m 3597,-1925 -1,-1677 h -762 c -419,-1 -765,3 -769,7 -5,4 -10,412 -12,905 -2,493 -5,898 -5,899 -1,1 -403,3 -893,6 -490,2 -895,6 -900,10 -7,4 -11,1422 -5,1515 1,10 339,12 1674,12 H 6077 Z M 4280,4271 c 9,-2 6,-1539 -3,-1547 -9,-9 -1462,-13 -1517,-4 l -34,5 -1,760 c 0,418 1,767 3,775 3,14 90,15 775,14 425,-1 774,-2 777,-3 z"/></g></svg>