<svg xmlns="http://www.w3.org/2000/svg" xmlns:svg="http://www.w3.org/2000/svg" id="svg6" width="500" height="500" preserveAspectRatio="xMidYMid meet" version="1.0" viewBox="0 0 375 375"><metadata id="metadata12"/><g id="layer2"><rect id="rect822" width="171.598" height="300.675" x="101.051" y="37.718" style="opacity:1;fill:#1a1a1a;fill-opacity:1;stroke:none;stroke-width:.111765;stroke-miterlimit:4;stroke-dasharray:none;stroke-opacity:1"/></g><g id="layer1"><g style="fill:#000;stroke:none" id="g4" transform="matrix(0.03607474,0,0,-0.03607474,30.937932,416.36543)"><path id="path2" d="m 3294,11499 c -325,-4 -631,-12 -681,-18 -265,-32 -473,-138 -598,-303 -65,-86 -121,-205 -146,-313 -20,-83 -22,-124 -26,-545 -4,-369 -7,-458 -19,-474 -21,-31 -21,-643 1,-672 21,-28 21,-380 0,-408 -22,-29 -22,-641 0,-673 13,-18 15,-396 18,-3109 l 2,-3089 23,-85 c 63,-235 223,-423 437,-513 92,-38 230,-75 325,-86 348,-41 3080,-41 3420,0 232,28 438,117 568,248 93,93 152,199 194,346 l 23,80 3,3141 c 2,2768 4,3143 17,3154 22,18 22,655 0,686 -12,18 -15,158 -18,970 -4,1024 -1,980 -57,1139 -96,278 -352,461 -706,505 -92,12 -1346,30 -1864,28 -179,-1 -591,-5 -916,-9 z m 3357,-1059 c 19,-11 19,-67 19,-4118 0,-3182 -3,-4111 -12,-4120 -9,-9 -538,-12 -2319,-12 -2084,0 -2309,2 -2323,16 -15,14 -16,401 -16,4112 0,2253 4,4102 8,4108 4,6 14,14 22,17 29,11 4600,8 4621,-3 z"/></g></g><g id="layer3"><g id="g6" transform="matrix(0.01780289,0,0,-0.01780289,125.181,249.82619)" style="fill:#999;stroke:none"><path style="fill:#999" id="path4" d="m 2479,6318 c -3,-6 -7,-488 -10,-1120 -2,-588 -4,-658 -18,-659 -34,-2 -1065,-8 -1408,-8 l -361,-1 -1,-1919 V 692 l 27,-5 c 15,-3 879,-6 1920,-5 1426,0 1894,3 1897,11 2,7 6,404 8,883 2,479 7,875 10,881 4,6 256,11 664,12 362,2 759,4 883,5 l 225,1 3,1923 2,1922 H 4400 c -1056,0 -1921,-1 -1921,-2 z m 3597,-1925 -1,-1677 h -762 c -419,-1 -765,3 -769,7 -5,4 -10,412 -12,905 -2,493 -5,898 -5,899 -1,1 -403,3 -893,6 -490,2 -895,6 -900,10 -7,4 -11,1422 -5,1515 1,10 339,12 1674,12 H 6077 Z M 4280,4271 c 9,-2 6,-1539 -3,-1547 -9,-9 -1462,-13 -1517,-4 l -34,5 -1,760 c 0,418 1,767 3,775 3,14 90,15 775,14 425,-1 774,-2 777,-3 z"/></g></g></svg>