<svg xmlns="http://www.w3.org/2000/svg" width="933.333" height="933.333" preserveAspectRatio="xMidYMid meet"
     version="1.0" viewBox="0 0 700 700">
    <g style="fill:#000;stroke:none" id="g6" transform="matrix(0.12191283,0,0,-0.12191283,-76.705907,776.7147)">
        <path d="m 2479,6318 c -3,-6 -7,-488 -10,-1120 -2,-588 -4,-658 -18,-659 -34,-2 -1065,-8 -1408,-8 l -361,-1 -1,-1919 V 692 l 27,-5 c 15,-3 879,-6 1920,-5 1426,0 1894,3 1897,11 2,7 6,404 8,883 2,479 7,875 10,881 4,6 256,11 664,12 362,2 759,4 883,5 l 225,1 3,1923 2,1922 H 4400 c -1056,0 -1921,-1 -1921,-2 z m -18,-2047 c 3,0 7,-283 8,-628 4,-1037 5,-1163 11,-1164 11,-3 523,-8 1148,-10 358,-2 653,-5 653,-8 1,-3 2,-349 3,-768 1,-527 -1,-763 -8,-764 -38,-5 -3243,-4 -3287,1 l -54,5 -1,1665 c 0,916 0,1667 2,1670 2,5 1506,6 1525,1 z m 1819,0 c 9,-2 6,-1539 -3,-1547 -9,-9 -1462,-13 -1517,-4 l -34,5 -1,760 c 0,418 1,767 3,775 3,14 90,15 775,14 425,-1 774,-2 777,-3 z"/>
    </g>
</svg>
