<svg xmlns="http://www.w3.org/2000/svg" xmlns:svg="http://www.w3.org/2000/svg" id="svg4" width="24" height="24" version="1.1" viewBox="0 0 24 24"><metadata id="metadata10"/><path style="stroke-width:.984788" id="path2" d="m 12,2.3126365 c 3.155261,0 3.529482,0.011812 4.776224,0.068936 3.202531,0.1457487 4.698426,1.6652774 4.844175,4.8441746 0.05712,1.2457574 0.06795,1.619977 0.06795,4.7752379 0,3.156247 -0.01189,3.529482 -0.06795,4.775241 -0.146735,3.175943 -1.638689,4.698424 -4.844175,4.844172 -1.246742,0.05712 -1.618993,0.06893 -4.776224,0.06893 -3.1552626,0 -3.5294824,-0.01189 -4.7752397,-0.06893 -3.2104105,-0.146734 -4.6984258,-1.673155 -4.8441745,-4.845158 -0.057118,-1.245758 -0.068935,-1.618993 -0.068935,-4.775239 0,-3.1552623 0.012803,-3.5284973 0.068936,-4.7752395 C 2.5273192,4.046849 4.0192738,2.5263356 7.2247603,2.3805869 8.4715025,2.3244539 8.8447374,2.3126365 12,2.3126365 Z M 12,0.182539 c -3.209426,0 -3.6112197,0.0137811 -4.871749,0.0709046 C 2.8365429,0.45040146 0.45138511,2.83162 0.25442761,7.1272673 0.19632506,8.3887813 0.1825379,8.790575 0.1825379,12.000001 c 0,3.209425 0.0137811,3.612205 0.0709045,4.872733 0.19695764,4.291708 2.5781762,6.676866 6.8738235,6.873823 1.261514,0.05712 1.6633078,0.0709 4.8727341,0.0709 3.209425,0 3.612204,-0.01385 4.872732,-0.0709 4.287771,-0.196957 6.678836,-2.578176 6.872839,-6.873823 0.0581,-1.260528 0.07189,-1.663308 0.07189,-4.872733 0,-3.209426 -0.01385,-3.6112197 -0.0709,-4.871749 C 23.553538,2.8404831 21.169363,0.45138622 16.873717,0.25442845 15.612204,0.1963259 15.209425,0.182539 12,0.182539 Z m 0,5.7491951 c -3.3512356,0 -6.068267,2.7170313 -6.068267,6.0682669 0,3.351235 2.7170314,6.069251 6.068267,6.069251 3.351234,0 6.068266,-2.71703 6.068266,-6.069251 0,-3.3512356 -2.717032,-6.0682669 -6.068266,-6.0682669 z m 0,10.0074209 c -2.1753969,0 -3.9391544,-1.762772 -3.9391544,-3.939154 0,-2.1753986 1.7637575,-3.9391544 3.9391544,-3.9391544 2.175398,0 3.939154,1.7637558 3.939154,3.9391544 0,2.176382 -1.763756,3.939154 -3.939154,3.939154 z M 18.308554,4.2743352 c -0.78389,0 -1.41908,0.6351884 -1.41908,1.4180953 0,0.7829068 0.63519,1.4180953 1.41908,1.4180953 0.782908,0 1.41711,-0.6351885 1.41711,-1.4180953 0,-0.7829069 -0.634202,-1.4180953 -1.41711,-1.4180953 z"/></svg>