<?xml version="1.0" encoding="UTF-8" standalone="no"?>
<!-- Generator: Adobe Illustrator 16.0.0, SVG Export Plug-In . SVG Version: 6.00 Build 0)  -->

<svg
   xmlns:dc="http://purl.org/dc/elements/1.1/"
   xmlns:cc="http://creativecommons.org/ns#"
   xmlns:rdf="http://www.w3.org/1999/02/22-rdf-syntax-ns#"
   xmlns:svg="http://www.w3.org/2000/svg"
   xmlns="http://www.w3.org/2000/svg"
   xmlns:sodipodi="http://sodipodi.sourceforge.net/DTD/sodipodi-0.dtd"
   xmlns:inkscape="http://www.inkscape.org/namespaces/inkscape"
   version="1.1"
   id="Capa_1"
   x="0px"
   y="0px"
   width="457.03px"
   height="457.03px"
   viewBox="0 0 457.03 457.03"
   style="enable-background:new 0 0 457.03 457.03;"
   xml:space="preserve"
   sodipodi:docname="interfaces.svg"
   inkscape:version="0.92.2 5c3e80d, 2017-08-06"><metadata
     id="metadata41"><rdf:RDF><cc:Work
         rdf:about=""><dc:format>image/svg+xml</dc:format><dc:type
           rdf:resource="http://purl.org/dc/dcmitype/StillImage" /></cc:Work></rdf:RDF></metadata><defs
     id="defs39" /><sodipodi:namedview
     pagecolor="#ffffff"
     bordercolor="#666666"
     borderopacity="1"
     objecttolerance="10"
     gridtolerance="10"
     guidetolerance="10"
     inkscape:pageopacity="0"
     inkscape:pageshadow="2"
     inkscape:window-width="1920"
     inkscape:window-height="1081"
     id="namedview37"
     showgrid="false"
     inkscape:zoom="0.73026804"
     inkscape:cx="364.86978"
     inkscape:cy="446.28101"
     inkscape:window-x="0"
     inkscape:window-y="1"
     inkscape:window-maximized="1"
     inkscape:current-layer="Capa_1" /><g
     id="g4"
     transform="matrix(-0.38651193,0.38651193,-0.38651193,-0.38651193,405.16487,228.51558)"
     style="fill:#338000"><path
       d="m 421.512,207.074 -85.795,85.767 c -47.352,47.38 -124.169,47.38 -171.529,0 -7.46,-7.439 -13.296,-15.821 -18.421,-24.465 l 39.864,-39.861 c 1.895,-1.911 4.235,-3.006 6.471,-4.296 2.756,9.416 7.567,18.33 14.972,25.736 23.648,23.667 62.128,23.634 85.762,0 l 85.768,-85.765 c 23.666,-23.664 23.666,-62.135 0,-85.781 -23.635,-23.646 -62.105,-23.646 -85.768,0 l -30.499,30.532 c -24.75,-9.637 -51.415,-12.228 -77.373,-8.424 l 64.991,-64.989 c 47.38,-47.371 124.177,-47.371 171.557,0 47.357,47.369 47.357,124.178 0,171.546 z m -226.804,141.03 -30.521,30.532 c -23.646,23.634 -62.128,23.634 -85.778,0 -23.648,-23.667 -23.648,-62.138 0,-85.795 l 85.778,-85.767 c 23.665,-23.662 62.121,-23.662 85.767,0 7.388,7.39 12.204,16.302 14.986,25.706 2.249,-1.307 4.56,-2.369 6.454,-4.266 l 39.861,-39.845 c -5.092,-8.678 -10.958,-17.03 -18.421,-24.477 -47.348,-47.371 -124.172,-47.371 -171.543,0 L 35.526,249.96 c -47.366,47.385 -47.366,124.172 0,171.553 47.371,47.356 124.177,47.356 171.547,0 l 65.008,-65.003 c -25.972,3.826 -52.644,1.213 -77.373,-8.406 z"
       id="path2"
       inkscape:connector-curvature="0"
       style="fill:#338000" /></g><g
     id="g6" /><g
     id="g8" /><g
     id="g10" /><g
     id="g12" /><g
     id="g14" /><g
     id="g16" /><g
     id="g18" /><g
     id="g20" /><g
     id="g22" /><g
     id="g24" /><g
     id="g26" /><g
     id="g28" /><g
     id="g30" /><g
     id="g32" /><g
     id="g34" /></svg>