<?xml version="1.0" encoding="UTF-8" standalone="no"?>
<svg
   xmlns:dc="http://purl.org/dc/elements/1.1/"
   xmlns:cc="http://creativecommons.org/ns#"
   xmlns:rdf="http://www.w3.org/1999/02/22-rdf-syntax-ns#"
   xmlns:svg="http://www.w3.org/2000/svg"
   xmlns="http://www.w3.org/2000/svg"
   xmlns:sodipodi="http://sodipodi.sourceforge.net/DTD/sodipodi-0.dtd"
   xmlns:inkscape="http://www.inkscape.org/namespaces/inkscape"
   sodipodi:docname="linkedin.svg"
   inkscape:version="1.0beta1 (32d4812, 2019-09-19)"
   version="1.1"
   id="svg2"
   viewBox="0 0 500.00001 500.00001"
   height="500"
   width="500">
  <defs
     id="defs4" />
  <sodipodi:namedview
     inkscape:document-rotation="0"
     inkscape:window-maximized="0"
     inkscape:window-y="23"
     inkscape:window-x="0"
     inkscape:window-height="907"
     inkscape:window-width="1600"
     units="px"
     showgrid="false"
     inkscape:current-layer="layer1"
     inkscape:document-units="px"
     inkscape:cy="291.02711"
     inkscape:cx="357.34915"
     inkscape:zoom="0.97117345"
     inkscape:pageshadow="2"
     inkscape:pageopacity="0.0"
     borderopacity="1.0"
     bordercolor="#666666"
     pagecolor="#ffffff"
     id="base" />
  <metadata
     id="metadata7">
    <rdf:RDF>
      <cc:Work
         rdf:about="">
        <dc:format>image/svg+xml</dc:format>
        <dc:type
           rdf:resource="http://purl.org/dc/dcmitype/StillImage" />
        <dc:title />
      </cc:Work>
    </rdf:RDF>
  </metadata>
  <g
     transform="translate(0,-552.36216)"
     id="layer1"
     inkscape:groupmode="layer"
     inkscape:label="Layer 1">
    <path
       inkscape:connector-curvature="0"
       id="path3347"
       d="M 30.850433,1051.3759 C 17.819991,1049.1819 6.7539031,1039.628 2.1939378,1026.6355 L 0.81750159,1022.7138 0.69172831,803.68942 C 0.55258237,561.43028 0.28982059,581.29624 3.7289332,574.05451 c 0.9320576,-1.96268 2.3787722,-4.56281 3.2149038,-5.77807 3.568884,-5.1872 9.886054,-10.15274 16.159104,-12.70173 7.325938,-2.97679 -9.979002,-2.7777 228.710299,-2.6313 l 218.15057,0.13382 3.4316,1.15193 c 12.68036,4.25666 21.34178,12.83583 25.06814,24.83004 0.88589,2.85146 0.91385,9.67611 0.91385,223.29796 v 220.35664 l -1.37648,3.9217 c -2.01565,5.7432 -4.88466,10.2833 -9.13863,14.4617 -3.97564,3.9051 -7.44763,6.2132 -12.28575,8.1674 -6.91682,2.7938 8.26075,2.6225 -226.88989,2.56 -119.08282,-0.033 -217.559118,-0.2336 -218.836217,-0.4487 z M 148.13044,858.97826 V 740.09845 H 111.36348 74.596529 v 118.55301 c 0,65.20413 0.147068,118.70002 0.326821,118.8798 0.179742,0.17974 16.724874,0.32681 36.76696,0.32681 h 36.44013 z m 120.63103,52.20908 c 0.3007,-71.20513 0.24471,-69.66021 2.90767,-80.22779 3.38667,-13.43957 9.98812,-22.55289 19.85241,-27.40628 7.21957,-3.55217 14.77222,-4.94627 24.26618,-4.47922 19.79959,0.97407 30.5607,11.46685 34.3216,33.46582 1.6738,9.79063 1.93603,21.13367 1.94573,84.1656 l 0.009,61.15879 36.88952,-0.12564 36.88951,-0.12566 0.14947,-68.63165 c 0.15561,-71.44404 -0.0564,-82.33465 -1.88138,-96.64808 -4.45288,-34.92412 -16.87671,-56.50566 -39.33461,-68.32859 -6.32378,-3.32914 -16.60261,-6.63361 -25.33492,-8.14471 -9.76241,-1.68937 -26.01066,-2.13443 -34.48752,-0.94464 -24.07987,3.37976 -44.60926,15.91481 -55.8168,34.08123 -1.17012,1.89665 -2.40023,3.45034 -2.73357,3.45264 -0.46644,0.003 -0.63585,-3.69515 -0.73534,-16.05069 l -0.12925,-16.05491 -35.17372,-0.1258 -35.17371,-0.1258 v 118.88618 118.88617 l 36.64439,-0.12565 36.64439,-0.1257 0.28054,-66.42562 z M 120.08566,706.47614 c 15.26579,-3.13983 27.07238,-13.62014 32.39141,-28.75283 1.74597,-4.96731 1.76841,-5.13016 1.77476,-12.87456 0.005,-6.70081 -0.15486,-8.40012 -1.10066,-11.66321 -3.53742,-12.20454 -12.19328,-22.42185 -23.37005,-27.58583 -6.70404,-3.09746 -10.44719,-3.87785 -18.41764,-3.83987 -6.24283,0.0298 -7.6333,0.1934 -11.4206,1.34405 -7.381155,2.24253 -12.548568,5.22377 -17.926376,10.3423 -7.784887,7.40953 -12.456148,17.45189 -13.14223,28.25341 -1.356451,21.35571 13.331214,40.62958 34.155366,44.8203 4.48548,0.90269 12.55504,0.88198 17.05602,-0.0438 z"
       style="fill:#0173b2;stroke-width:1.06649" />
  </g>
</svg>
