<?xml version="1.0" encoding="UTF-8" standalone="no"?>
<!-- Created with Inkscape (http://www.inkscape.org/) -->

<svg
   xmlns:dc="http://purl.org/dc/elements/1.1/"
   xmlns:cc="http://creativecommons.org/ns#"
   xmlns:rdf="http://www.w3.org/1999/02/22-rdf-syntax-ns#"
   xmlns:svg="http://www.w3.org/2000/svg"
   xmlns="http://www.w3.org/2000/svg"
   xmlns:sodipodi="http://sodipodi.sourceforge.net/DTD/sodipodi-0.dtd"
   xmlns:inkscape="http://www.inkscape.org/namespaces/inkscape"
   width="500"
   height="500"
   viewBox="0 0 132.29166 132.29167"
   version="1.1"
   id="svg8"
   inkscape:version="0.92.2 5c3e80d, 2017-08-06"
   sodipodi:docname="Logo.svg">
  <defs
     id="defs2" />
  <sodipodi:namedview
     id="base"
     pagecolor="#000000"
     bordercolor="#666666"
     borderopacity="1.0"
     inkscape:pageopacity="0"
     inkscape:pageshadow="2"
     inkscape:zoom="1.4"
     inkscape:cx="4.0232586"
     inkscape:cy="257.583"
     inkscape:document-units="mm"
     inkscape:current-layer="layer1"
     showgrid="false"
     units="px"
     inkscape:window-width="1920"
     inkscape:window-height="1081"
     inkscape:window-x="0"
     inkscape:window-y="1"
     inkscape:window-maximized="1" />
  <metadata
     id="metadata5">
    <rdf:RDF>
      <cc:Work
         rdf:about="">
        <dc:format>image/svg+xml</dc:format>
        <dc:type
           rdf:resource="http://purl.org/dc/dcmitype/StillImage" />
        <dc:title />
      </cc:Work>
    </rdf:RDF>
  </metadata>
  <g
     inkscape:label="Layer 1"
     inkscape:groupmode="layer"
     id="layer1"
     transform="translate(0,-164.70832)">
    <path
       style="fill:#fefefe;stroke-width:0.04549196"
       d="m 24.998349,253.57738 v -20.74432 h 19.19761 19.197611 v -1.97891 -1.97891 H 44.195959 24.998349 v -20.74432 -20.74434 h 0.111776 c 0.0901,0 3.846615,3.98185 19.366528,20.52825 l 19.254758,20.52825 h 2.414392 2.414391 L 87.815066,207.91483 C 103.32759,191.3764 107.09165,187.38658 107.18162,187.38658 h 0.11169 v 20.74434 20.74432 H 88.141197 68.989082 v 1.97891 1.97891 h 19.152115 19.152113 v 20.74432 20.74434 h -0.11154 c -0.0899,0 -3.871,-4.0081 -19.387568,-20.55098 L 68.518186,233.21973 H 66.145834 63.773483 L 44.497466,253.77074 C 28.980899,270.31362 25.199691,274.32172 25.1099,274.32172 h -0.111551 z"
       id="path4692"
       inkscape:connector-curvature="0" />
  </g>
</svg>
