<svg xmlns="http://www.w3.org/2000/svg" xmlns:svg="http://www.w3.org/2000/svg" id="svg8" width="500" height="500" version="1.1" viewBox="0 0 132.292 132.292"><metadata id="metadata5"/><g id="layer1" transform="translate(0,-164.70832)"><path style="fill:#fefefe;stroke-width:.04549196" id="path4692" d="m 24.998349,253.57738 v -20.74432 h 19.19761 19.197611 v -1.97891 -1.97891 H 44.195959 24.998349 v -20.74432 -20.74434 h 0.111776 c 0.0901,0 3.846615,3.98185 19.366528,20.52825 l 19.254758,20.52825 h 2.414392 2.414391 L 87.815066,207.91483 C 103.32759,191.3764 107.09165,187.38658 107.18162,187.38658 h 0.11169 v 20.74434 20.74432 H 88.141197 68.989082 v 1.97891 1.97891 h 19.152115 19.152113 v 20.74432 20.74434 h -0.11154 c -0.0899,0 -3.871,-4.0081 -19.387568,-20.55098 L 68.518186,233.21973 H 66.145834 63.773483 L 44.497466,253.77074 C 28.980899,270.31362 25.199691,274.32172 25.1099,274.32172 h -0.111551 z"/></g></svg>