<svg xmlns="http://www.w3.org/2000/svg" xmlns:svg="http://www.w3.org/2000/svg" id="svg8" width="250" height="250" version="1.1" viewBox="0 0 66.146 66.146"><metadata id="metadata5"/><g id="layer1" transform="translate(0,-230.85415)"><path id="rect882" d="m 33.07081,231.13098 c -0.930425,0 -1.858013,0.27167 -2.883285,0.82014 -2.537166,1.35788 -2.887527,3.0228 -2.887527,13.76113 v 12.21377 H 15.086203 c -10.7382535,0 -12.4032924,0.35098 -13.7611319,2.88749 -1.09741513,2.05062 -1.09741513,3.72018 0,5.77081 1.3578395,2.53712 3.0228784,2.88751 13.7611319,2.88751 h 12.213795 v 12.19266 c 0,10.0911 0.43417,12.45089 2.523947,13.66814 3.168351,1.84541 2.905419,1.84059 6.227377,0.0656 2.422142,-1.29631 2.794512,-3.11055 2.794512,-13.71046 v -12.21382 h 12.213778 c 10.738271,0 12.403285,-0.35012 13.76115,-2.88748 1.097416,-2.0506 1.097416,-3.72019 0,-5.77078 -1.357865,-2.53712 -3.022879,-2.88749 -13.76115,-2.88749 H 38.845834 v -12.21585 c 0,-10.73829 -0.350313,-12.40326 -2.887519,-13.76115 -1.025279,-0.54896 -1.957104,-0.82015 -2.887505,-0.82015 z" style="opacity:1;fill:#bfbfbf;fill-opacity:1;stroke:none;stroke-width:.216457;stroke-miterlimit:4;stroke-dasharray:none;stroke-opacity:1"/></g></svg>