<?xml version="1.0" encoding="UTF-8" standalone="no"?>
<!-- Created with Inkscape (http://www.inkscape.org/) -->

<svg
   xmlns:dc="http://purl.org/dc/elements/1.1/"
   xmlns:cc="http://creativecommons.org/ns#"
   xmlns:rdf="http://www.w3.org/1999/02/22-rdf-syntax-ns#"
   xmlns:svg="http://www.w3.org/2000/svg"
   xmlns="http://www.w3.org/2000/svg"
   xmlns:xlink="http://www.w3.org/1999/xlink"
   xmlns:sodipodi="http://sodipodi.sourceforge.net/DTD/sodipodi-0.dtd"
   xmlns:inkscape="http://www.inkscape.org/namespaces/inkscape"
   width="500"
   height="500"
   viewBox="0 0 132.29166 132.29167"
   version="1.1"
   id="svg8"
   inkscape:version="0.92.2 5c3e80d, 2017-08-06"
   sodipodi:docname="Minotaur.svg"
   inkscape:export-filename="/Users/matt/Desktop/Minotaur.png"
   inkscape:export-xdpi="96"
   inkscape:export-ydpi="96">
  <defs
     id="defs2">
    <linearGradient
       inkscape:collect="always"
       id="linearGradient1001">
      <stop
         style="stop-color:#ff5b4d;stop-opacity:1;"
         offset="0"
         id="stop997" />
      <stop
         style="stop-color:#86ffaf;stop-opacity:1"
         offset="1"
         id="stop999" />
    </linearGradient>
    <linearGradient
       inkscape:collect="always"
       xlink:href="#linearGradient1001"
       id="linearGradient1003"
       x1="16.630953"
       y1="50.937485"
       x2="57.830353"
       y2="92.892838"
       gradientUnits="userSpaceOnUse"
       gradientTransform="matrix(3.1957855,0,0,3.1298896,12.804341,-60.706795)" />
    <linearGradient
       inkscape:collect="always"
       xlink:href="#linearGradient1001"
       id="linearGradient1007"
       gradientUnits="userSpaceOnUse"
       gradientTransform="matrix(3.2110142,0,0,3.1531452,-53.402278,4.0950837)"
       x1="16.630953"
       y1="50.937485"
       x2="57.830353"
       y2="92.892838" />
  </defs>
  <sodipodi:namedview
     id="base"
     pagecolor="#ffffff"
     bordercolor="#666666"
     borderopacity="1.0"
     inkscape:pageopacity="0.0"
     inkscape:pageshadow="2"
     inkscape:zoom="1.4"
     inkscape:cx="400.26421"
     inkscape:cy="246.71468"
     inkscape:document-units="mm"
     inkscape:current-layer="layer1"
     showgrid="false"
     units="px"
     inkscape:window-width="1920"
     inkscape:window-height="1081"
     inkscape:window-x="0"
     inkscape:window-y="1"
     inkscape:window-maximized="1" />
  <metadata
     id="metadata5">
    <rdf:RDF>
      <cc:Work
         rdf:about="">
        <dc:format>image/svg+xml</dc:format>
        <dc:type
           rdf:resource="http://purl.org/dc/dcmitype/StillImage" />
        <dc:title />
      </cc:Work>
    </rdf:RDF>
  </metadata>
  <g
     inkscape:label="Layer 1"
     inkscape:groupmode="layer"
     id="layer1"
     transform="translate(0,-164.70832)">
    <path
       style="opacity:1;fill:url(#linearGradient1007);fill-opacity:1;stroke:none;stroke-width:0.21047261;stroke-miterlimit:4;stroke-dasharray:none;stroke-opacity:1"
       d="M 0.44253649,164.70832 C 0.25659552,164.71894 0.07332572,164.72815 0,164.74198 v 132.25801 h 132.29067 l 0.001,-0.15579 v -7.93561 c -0.0188,-0.28706 -0.0484,-0.38436 -0.0926,-0.42857 -0.12134,-0.12135 -0.84095,-0.13558 -6.82076,-0.13558 -6.53517,0 -6.68736,-0.004 -6.7747,-0.16716 -0.0608,-0.11373 -0.0889,-4.4301 -0.088,-13.53228 l 0.001,-13.36611 -0.18788,-0.19979 -0.18735,-0.1998 H 100.42942 82.717062 l -0.210667,0.21065 -0.210652,0.21067 v 6.55936 c 0,5.45328 -0.01955,6.57594 -0.11746,6.65717 -0.08339,0.0688 -0.816715,0.0906 -2.5103,0.0744 l -2.392812,-0.0226 -0.04299,-6.70273 c -0.03522,-5.5078 -0.06355,-6.72793 -0.160447,-6.84455 -0.106534,-0.12825 -0.505138,-0.14233 -4.156227,-0.14233 -3.637029,0 -4.053676,0.0144 -4.195045,0.14233 -0.149952,0.13529 -0.156838,0.45776 -0.156838,6.76328 0,5.03541 -0.02459,6.64553 -0.102942,6.72396 -0.146746,0.14676 -4.625407,0.14676 -4.772153,0 -0.07835,-0.0784 -0.102508,-1.68515 -0.102508,-6.70894 0,-6.02678 -0.01294,-6.62011 -0.142332,-6.76329 -0.133708,-0.14793 -0.375327,-0.15734 -4.127761,-0.15734 -3.611553,0 -4.009565,0.0144 -4.235415,0.14752 l -0.248965,0.14699 v 10.90965 10.90966 l 0.19823,0.18634 0.198244,0.18633 17.711838,10e-4 17.711319,0.001 0.199266,-0.18738 0.198762,-0.18684 0.02229,-6.61579 0.02171,-6.61577 h 9.312443 9.31243 v 9.26944 9.26943 h -2.40314 -2.40317 l -0.043,-6.62302 -0.043,-6.62353 -0.20807,-0.22154 -0.20807,-0.22152 h -3.96628 c -3.777298,0 -3.976204,0.007 -4.169173,0.16407 l -0.202888,0.16408 -0.04298,6.68099 -0.04241,6.68047 -22.996919,0.0217 c -18.34056,0.0172 -23.009729,-2.7e-4 -23.064218,-0.086 -0.03753,-0.0591 -0.06915,-6.16306 -0.06987,-13.56486 l -0.0011,-13.45775 -0.364371,-0.16562 c -0.342519,-0.15553 -0.596949,-0.16568 -4.166592,-0.16769 l -3.801674,-10e-4 -0.210653,0.21068 -0.210666,0.21064 -0.001,13.41478 c -8.05e-4,7.37801 -0.03235,13.46282 -0.06987,13.52191 -0.05435,0.0858 -3.350839,0.10307 -16.198411,0.086 l -16.1300971,-0.0217 v -9.26944 -9.26944 h 9.3119121 9.312427 l 0.02272,2.30687 c 0.0161,1.63014 -0.0057,2.34167 -0.07447,2.4249 -0.08138,0.0978 -1.204234,0.11746 -6.669116,0.11746 h -6.571275 l -0.198753,0.18686 -0.198234,0.18632 v 4.00405 4.00403 l 0.199271,0.18737 0.199269,0.18736 h 10.844499 10.844491 l 0.199784,-0.18736 0.19928,-0.18737 v -10.87906 -10.87859 l -0.226194,-0.17806 -0.226179,-0.17804 H 22.29957 c -7.353726,0 -13.4317724,-0.0232 -13.5064406,-0.0518 -0.1226364,-0.047 -0.1356039,-0.94217 -0.1356039,-9.25235 0,-7.04127 0.02417,-9.22415 0.1029949,-9.30308 0.078316,-0.0784 1.6762586,-0.10295 6.6675606,-0.10295 h 6.564552 l 0.198245,-0.18685 0.198748,-0.18685 v -3.99161 c 0,-3.98053 -2.46e-4,-3.99282 -0.186326,-4.19089 l -0.186845,-0.19876 h -6.57647 c -5.000657,0 -6.6011497,-0.0245 -6.6794646,-0.10295 -0.1467434,-0.14673 -0.1467434,-4.62488 0,-4.77161 0.078316,-0.0783 1.6762586,-0.10295 6.6675606,-0.10295 h 6.564552 l 0.198245,-0.18686 0.198748,-0.18631 v -3.99217 c 0,-3.98052 -2.46e-4,-3.99279 -0.186326,-4.19088 l -0.186845,-0.19824 h -6.57647 c -5.000657,0 -6.6011497,-0.0246 -6.6794646,-0.10295 -0.079661,-0.0796 -0.1029949,-6.26926 -0.1029949,-27.33628 0,-27.11882 -7.955e-4,-27.23415 -0.1718396,-27.40509 -0.063635,-0.0635 -0.1237433,-0.10369 -0.3928487,-0.12881 z m 20.12224351,0 c -4.101149,0.0129 -6.783337,0.0292 -6.812486,0.0534 -0.09655,0.08 -0.115936,1.95221 -0.115936,11.08824 v 10.99093 l 0.18633,0.19874 0.186334,0.19928 h 3.991633 c 3.980464,-1e-5 3.992829,-8e-4 4.190901,-0.18686 l 0.19823,-0.18631 v -6.5837 c 0,-5.4304 0.0207,-6.5998 0.116454,-6.67944 0.08569,-0.0709 13.329835,-0.0909 50.530496,-0.075 l 50.414554,0.0217 0.0227,2.39692 c 0.0177,1.86068 -0.001,2.41271 -0.086,2.4663 -0.0598,0.0378 -12.33026,0.0697 -27.267546,0.0704 l -27.158322,0.001 -0.198749,0.18632 -0.198762,0.18686 v 3.99213 c 0,3.98052 8.06e-4,3.99231 0.186859,4.19036 l 0.186327,0.19877 h 27.142346 c 14.928237,0 27.203187,0.0236 27.277897,0.0523 0.12336,0.0474 0.13615,2.76196 0.13615,29.90192 0,27.13999 -0.0129,29.85467 -0.13615,29.90195 -0.0746,0.0285 -1.15463,0.0518 -2.40007,0.0518 -2.15538,0 -2.26842,-0.007 -2.35346,-0.16666 -0.0608,-0.11372 -0.0889,-4.43063 -0.088,-13.53281 l 0.001,-13.36558 -0.18788,-0.1998 -0.18737,-0.19979 h -3.97973 -3.98024 l -0.21065,0.21067 -0.21067,0.21065 v 13.41892 c 0,10.32243 -0.0237,13.44206 -0.10295,13.5214 -0.0781,0.0781 -1.6162,0.10295 -6.3979,0.10295 h -6.294913 l -0.210653,0.21065 -0.210652,0.21067 v 3.96831 c 0,3.95582 2.6e-4,3.96853 0.186327,4.16656 l 0.186845,0.19825 H 110.1021 c 10.14074,0 13.20932,0.0237 13.28853,0.10294 0.0792,0.0792 0.10296,3.19461 0.10296,13.49915 0,12.16491 0.0129,13.41399 0.13773,13.59282 0.0757,0.10811 0.20848,0.22292 0.295,0.25517 h 5.5e-4 c 0.28706,0.10487 8.15743,0.0292 8.28865,-0.0796 0.0346,-0.029 0.0587,-1.29835 0.075,-4.85546 V 164.70838 Z m 18.017206,13.77553 c -10.021896,0 -10.91238,0.0115 -11.056696,0.14177 -0.149939,0.13528 -0.156825,0.45775 -0.156825,6.76328 0,5.0354 -0.02458,6.64603 -0.102942,6.72447 -0.07836,0.0781 -1.676262,0.10295 -6.667562,0.10295 H 14.0334 l -0.198755,0.18633 -0.198234,0.18686 v 10.85841 10.85791 l 0.186331,0.19875 0.18685,0.19875 h 6.576467 c 5.00066,0 6.601211,0.0245 6.679466,0.10295 0.149837,0.14983 0.149837,32.08691 0,32.23674 -0.07836,0.0784 -1.676261,0.10306 -6.667562,0.10306 H 14.0334 l -0.198755,0.18685 -0.198234,0.18632 v 3.99214 c 0,3.98053 2.54e-4,3.99282 0.186331,4.19089 l 0.18685,0.19825 h 10.600194 10.6007 l 0.198748,-0.18635 0.198763,-0.18684 v -24.59047 -24.591 l -0.186858,-0.19823 -0.186326,-0.19875 h -6.319221 c -4.80039,0 -6.34398,-0.0248 -6.422233,-0.10305 -0.146747,-0.14675 -0.146747,-4.62539 0,-4.77214 0.0782,-0.0781 1.619671,-0.10295 6.412916,-0.10295 h 6.309904 l 0.453409,-0.44771 0.453408,-0.44771 v -6.31558 c 0,-4.79768 0.02473,-6.34025 0.102943,-6.41857 0.07835,-0.0784 1.67626,-0.10295 6.667561,-0.10295 h 6.564034 l 0.198762,-0.18687 0.198748,-0.18633 v -3.99214 c 0,-3.98053 -2.44e-4,-3.99229 -0.186325,-4.19035 l -0.186859,-0.19876 z m 20.640351,0 c -3.980466,0 -3.99283,2.4e-4 -4.190903,0.18634 l -0.198231,0.18683 v 6.57644 c 0,5.00072 -0.02473,6.60153 -0.102942,6.67996 -0.07835,0.0781 -1.676276,0.10295 -6.667563,0.10295 h -6.564565 l -0.198748,0.18632 -0.198763,0.18686 v 3.73438 c 0,3.71617 0.0011,3.73545 0.186859,3.93314 l 0.186326,0.19874 h 27.400046 c 15.069843,0 27.460397,0.0236 27.535129,0.0523 0.123211,0.0473 0.13615,1.94701 0.13615,20.65735 v 20.60558 l 0.186326,0.19876 0.186859,0.19875 h 3.746303 3.74629 l 0.20806,-0.22152 0.20809,-0.22154 0.043,-13.48983 0.043,-13.48929 6.6158,-0.0222 6.61527,-0.0217 0.18583,-0.19772 0.18529,-0.1972 0.001,-10.84548 0.001,-10.84548 -0.18788,-0.2003 -0.18789,-0.19978 h -3.99214 c -3.98048,0 -3.9923,2.2e-4 -4.19038,0.18632 l -0.19877,0.18684 v 6.58316 c 0,5.47517 -0.0196,6.59967 -0.11747,6.68101 -0.0832,0.0688 -0.7948,0.0911 -2.42489,0.075 l -2.30688,-0.0226 -0.043,-6.66444 c -0.0413,-6.40025 -0.0491,-6.67108 -0.206,-6.84454 l -0.16356,-0.18064 H 84.145636 c -15.716019,0 -20.377081,-0.0233 -20.4566,-0.10295 -0.07836,-0.0784 -0.102942,-1.67669 -0.102942,-6.66806 v -6.56452 l -0.186326,-0.19824 -0.186844,-0.19875 z m -18.104171,27.46515 -0.266033,0.30329 -0.266565,0.30331 v 24.29182 c 0,17.2896 0.02688,24.34629 0.09317,24.47971 0.05118,0.10306 0.234835,0.31259 0.407862,0.4653 l 0.314181,0.27744 4.763353,0.001 c 4.602951,7.9e-4 4.773088,-0.004 5.043376,-0.16978 0.153849,-0.0937 0.356551,-0.29644 0.450303,-0.4503 0.168154,-0.27616 0.170354,-0.46344 0.172351,-14.6989 0.0015,-14.936 0.0057,-15.10785 0.334368,-15.21752 0.10524,-0.0351 0.686819,0.54222 1.107117,1.09884 0.124793,0.16522 0.461488,0.57117 0.747907,0.90163 0.286434,0.33042 0.57672,0.68305 0.645429,0.78413 0.06872,0.10104 0.356507,0.45249 0.639734,0.78105 0.283241,0.32852 0.727421,0.85813 0.98704,1.17646 0.259649,0.31836 0.858683,1.0357 1.330723,1.59416 0.472056,0.55848 1.031854,1.22909 1.244275,1.49066 0.212421,0.26153 0.48291,0.58692 0.600931,0.72253 0.118036,0.13558 0.446048,0.52888 0.729275,0.87422 2.078372,2.53401 2.398937,2.87603 2.9104,3.10551 0.411484,0.18458 0.565952,0.19785 2.650046,0.2267 2.037584,0.0282 2.258544,0.0166 2.792377,-0.14545 0.53366,-0.1621 0.633884,-0.23387 1.262922,-0.90112 0.375844,-0.3987 0.973051,-1.07587 1.327085,-1.50513 0.354035,-0.42929 0.933731,-1.12777 1.287765,-1.55223 1.750504,-2.09869 2.214825,-2.66083 2.832231,-3.42694 0.165221,-0.20501 0.570697,-0.69204 0.901124,-1.08227 0.330442,-0.39024 0.813324,-0.97009 1.072957,-1.2888 0.259607,-0.31865 0.732596,-0.88599 1.05122,-1.26082 0.318638,-0.37484 0.579179,-0.71179 0.579179,-0.74895 0,-0.0371 0.213743,-0.25019 0.47463,-0.47307 0.390364,-0.33347 0.496855,-0.38653 0.600916,-0.3002 0.110416,0.0917 0.12623,1.94569 0.12623,14.66991 0,16.40895 -0.05046,15.18039 0.638182,15.58398 l 0.363868,0.21326 h 4.73851 c 5.192911,0 4.997786,0.0184 5.449684,-0.51863 l 0.224628,-0.26709 v -24.40465 -24.40518 l -0.222039,-0.26396 -0.222054,-0.26398 h -5.214691 c -5.089483,0 -5.218157,0.004 -5.368412,0.16978 -0.08468,0.0936 -0.381552,0.48959 -0.659402,0.87989 -0.277851,0.39031 -0.803518,1.12777 -1.168205,1.63867 -0.364674,0.51089 -0.778647,1.09457 -0.92026,1.29707 -0.141614,0.20248 -0.431483,0.61059 -0.643889,0.90681 -0.867597,1.20992 -1.212429,1.69424 -1.495298,2.10244 -0.163553,0.23602 -0.453753,0.642 -0.644924,0.90162 -0.191157,0.25964 -0.481717,0.6651 -0.645945,0.90111 -0.16423,0.23605 -0.454387,0.6415 -0.644912,0.90113 -0.19051,0.25963 -0.479114,0.66508 -0.641286,0.90112 -0.162159,0.23603 -0.449613,0.64148 -0.638714,0.9011 -0.189073,0.25964 -0.557542,0.78123 -0.818815,1.15888 -0.261303,0.37764 -0.697746,0.99541 -0.969961,1.37316 -0.2722,0.37775 -0.562372,0.78372 -0.644393,0.90163 -0.0821,0.11788 -0.304075,0.42668 -0.493779,0.68632 -0.189734,0.25963 -0.478798,0.66508 -0.642336,0.90112 -0.163497,0.23602 -0.453337,0.64148 -0.643876,0.9011 -0.190495,0.25964 -0.475233,0.66657 -0.633006,0.90422 -0.560546,0.84426 -1.098649,1.10694 -1.854507,0.9063 -0.44402,-0.11789 -0.978113,-0.58564 -1.430098,-1.25256 -0.159958,-0.23601 -0.447556,-0.64149 -0.638699,-0.90111 -0.191157,-0.25964 -0.480494,-0.66509 -0.643372,-0.90112 -0.162877,-0.23601 -0.452071,-0.642 -0.642323,-0.90163 -0.190265,-0.25963 -0.546945,-0.75758 -0.792937,-1.1066 -0.246019,-0.34901 -0.563348,-0.79858 -0.704963,-0.99947 -0.141613,-0.20084 -0.420758,-0.59123 -0.620066,-0.86745 -0.199323,-0.27622 -0.472099,-0.65692 -0.606092,-0.84575 -0.133993,-0.18883 -0.424095,-0.59427 -0.644926,-0.90111 -0.220802,-0.30683 -0.61384,-0.86662 -0.873677,-1.24427 -0.259821,-0.37764 -0.627816,-0.89924 -0.817277,-1.15887 -0.189445,-0.25963 -0.476856,-0.66508 -0.638699,-0.90113 -0.161827,-0.23602 -0.545609,-0.77697 -0.852988,-1.20182 -0.307367,-0.42485 -0.694973,-0.9653 -0.861257,-1.20132 -0.166284,-0.23604 -0.797723,-1.12438 -1.403183,-1.97407 -0.605446,-0.84971 -1.250413,-1.75739 -1.43372,-2.01703 -0.183293,-0.25963 -0.410494,-0.55887 -0.504648,-0.66509 l -0.171317,-0.19307 h -5.12567 z"
       id="rect974"
       inkscape:connector-curvature="0" />
  </g>
  <g
     inkscape:groupmode="layer"
     id="layer2"
     inkscape:label="Layer 2"
     transform="translate(0,-132.29167)" />
</svg>
