<?xml version="1.0" encoding="UTF-8" standalone="no"?>
<svg
   xmlns:dc="http://purl.org/dc/elements/1.1/"
   xmlns:cc="http://creativecommons.org/ns#"
   xmlns:rdf="http://www.w3.org/1999/02/22-rdf-syntax-ns#"
   xmlns:svg="http://www.w3.org/2000/svg"
   xmlns="http://www.w3.org/2000/svg"
   xmlns:sodipodi="http://sodipodi.sourceforge.net/DTD/sodipodi-0.dtd"
   xmlns:inkscape="http://www.inkscape.org/namespaces/inkscape"
   viewBox="0 0 500 499.99999"
   version="1.1"
   id="svg12"
   sodipodi:docname="ops.svg"
   width="500"
   height="500"
   inkscape:version="0.92.2 5c3e80d, 2017-08-06"
   inkscape:export-filename="/Users/matt/Desktop/ops.png"
   inkscape:export-xdpi="96"
   inkscape:export-ydpi="96">
  <metadata
     id="metadata18">
    <rdf:RDF>
      <cc:Work
         rdf:about="">
        <dc:format>image/svg+xml</dc:format>
        <dc:type
           rdf:resource="http://purl.org/dc/dcmitype/StillImage" />
        <dc:title />
      </cc:Work>
    </rdf:RDF>
  </metadata>
  <defs
     id="defs16">
    <inkscape:perspective
       id="perspective2669"
       inkscape:persp3d-origin="372.04724 : 350.78739 : 1"
       inkscape:vp_z="744.09448 : 526.18109 : 1"
       inkscape:vp_y="0 : 1000 : 0"
       inkscape:vp_x="0 : 526.18109 : 1"
       sodipodi:type="inkscape:persp3d" />
  </defs>
  <sodipodi:namedview
     pagecolor="#ffffff"
     bordercolor="#666666"
     borderopacity="1"
     objecttolerance="10"
     gridtolerance="10"
     guidetolerance="10"
     inkscape:pageopacity="0"
     inkscape:pageshadow="2"
     inkscape:window-width="1920"
     inkscape:window-height="1081"
     id="namedview14"
     showgrid="false"
     inkscape:zoom="1.296"
     inkscape:cx="43.442332"
     inkscape:cy="180.71444"
     inkscape:window-x="0"
     inkscape:window-y="1"
     inkscape:window-maximized="1"
     inkscape:current-layer="layer2" />
  <g
     inkscape:groupmode="layer"
     id="layer2"
     inkscape:label="Layer 2">
    <path
       class="rect-light"
       d="m 108.16788,100.82713 v 101.75374 l 88.10783,50.8769 V 151.70403 Z m 97.7782,271.46877 88.10783,50.8769 V 321.419 l -88.10783,-50.8769 z"
       id="path10"
       inkscape:connector-curvature="0"
       style="fill:#d40000;stroke-width:5.37242889" />
    <path
       class="rect-dark"
       d="m 303.72428,321.31587 v 101.70008 l 88.10784,-50.82318 V 270.38525 Z"
       id="path6"
       inkscape:connector-curvature="0"
       style="fill:#aa0000;stroke-width:5.37242889" />
    <path
       class="rect-light"
       d="m 107.95225,214.25563 88.10783,50.93062 v 101.70008 l -88.10783,-50.8769 z"
       id="path8"
       inkscape:connector-curvature="0"
       style="fill:#d40000;stroke-width:5.37242889" />
  </g>
  <g
     inkscape:groupmode="layer"
     id="layer1"
     inkscape:label="Layer 1">
    <path
       id="path886"
       d="m 379.55155,343.1801 -0.036,0.004 c 0.35447,-1.19978 -0.21882,-2.15123 -1.36746,-2.26958 h -0.51973 -0.87854 l 0.007,-0.0192 c -1.49777,0 -2.45379,-0.86338 -2.5753,-2.12418 -0.0259,-0.30955 -0.0102,-0.63802 0.0686,-0.98959 0.0285,-0.78322 0.0155,-1.54731 -0.0479,-2.29234 10e-4,-0.004 10e-4,-0.004 -0.002,-0.004 -0.0748,-0.26383 -0.10631,-0.55035 -0.0918,-0.85586 l 10e-4,-0.004 c 0.0169,-0.39729 0.1118,-0.82908 0.28787,-1.27207 0.4192,-1.05465 1.22311,-2.00993 2.19184,-2.69756 h -0.004 v 0 l 1.08367,-0.77563 c 0.0149,-0.008 0.025,-0.0152 0.041,-0.0265 0.0127,-0.0116 0.0268,-0.0192 0.0393,-0.0306 1.27593,-0.93218 1.89909,-2.38411 1.48615,-3.37376 l 0.0199,-0.0113 c -0.31208,-0.71442 -0.66325,-1.39828 -1.05824,-2.04806 -0.40137,-0.67252 -0.84683,-1.31033 -1.3368,-1.91398 l -0.0116,0.008 c -0.60238,-0.73369 -1.87709,-0.75644 -3.07056,-0.0802 l -0.7795,0.55758 -0.73396,0.51974 -0.0135,-0.023 c -1.55519,1.11552 -3.29908,1.39829 -4.45454,0.84445 -0.15831,-0.0726 -0.30132,-0.16441 -0.43604,-0.26759 -0.71032,-0.42414 -1.46695,-0.79839 -2.27162,-1.11935 -0.14772,-0.042 -0.28521,-0.0994 -0.42004,-0.16441 0,0 -0.004,0 -0.002,-0.004 -0.38335,-0.17958 -0.70272,-0.46227 -0.92592,-0.83283 -0.37538,-0.62299 -0.42161,-1.41004 -0.20675,-2.21977 0.0841,-0.31713 0.2117,-0.63809 0.37972,-0.95529 l 0.26133,-0.6575 c 0.49812,-1.25315 0.006,-2.29228 -1.10139,-2.50623 -0.14291,-0.0152 -0.28348,-0.0269 -0.43171,-0.0382 h 0.004 c -0.81478,-0.065 -1.64762,-0.10318 -2.50342,-0.10318 -0.85586,0 -1.71923,0.0382 -2.58735,0.10701 v 0 c -0.15345,0.0113 -0.30701,0.023 -0.46196,0.0381 -1.27582,0.21019 -2.59578,1.25315 -3.09237,2.50247 l -0.45106,1.13479 c -0.65152,1.63908 -2.23899,3.0375 -3.90117,3.5761 -0.10693,0.0386 -0.21451,0.0688 -0.3208,0.0957 -1.15662,0.34392 -2.30501,0.75268 -3.441,1.22657 -0.008,0 -0.01,0.004 -0.0132,0.004 -0.0931,0.042 -0.17929,0.0763 -0.27464,0.11452 -0.57341,0.22154 -1.15697,0.34392 -1.72624,0.34392 -1.05436,0 -1.83942,-0.4279 -2.25247,-1.11955 l -0.008,0.008 -0.48711,-0.80222 c -0.53411,-0.88647 -1.86406,-0.98207 -3.12689,-0.2941 -0.15127,0.0915 -0.30376,0.18709 -0.4471,0.27866 l -0.0211,0.0154 c -0.86815,0.55008 -1.7227,1.12318 -2.56102,1.72307 -0.83835,0.59988 -1.65895,1.22253 -2.46194,1.86847 0,0 -0.004,0 -0.006,0.004 -0.14492,0.11453 -0.28608,0.22912 -0.42845,0.34747 -1.09037,0.99349 -1.53618,2.36519 -1.00216,3.25166 l 0.48336,0.80222 c 0.69383,1.15789 0.27315,2.86948 -0.92377,4.27541 -0.0732,0.0881 -0.15007,0.17582 -0.23321,0.25973 -0.84653,0.94763 -1.64711,1.93353 -2.38819,2.94204 -0.0745,0.11084 -0.15387,0.21402 -0.23679,0.31714 l -10e-4,0.004 c -0.37445,0.48126 -0.84345,0.93977 -1.39037,1.32578 -1.04121,0.74502 -2.16426,1.11963 -3.14257,1.11963 l -0.004,0.0113 h -1.1348 c -1.25314,0 -2.65071,0.90158 -3.33856,2.09384 -0.0729,0.14513 -0.14753,0.2941 -0.21969,0.44682 v 0 c -0.39531,0.82142 -0.78205,1.7079 -1.11473,2.54483 v 0 l -0.007,0.0189 -0.009,0.023 v 0 c -0.33559,0.84426 -0.6323,1.67729 -0.89002,2.49871 l -10e-4,0.004 c -0.048,0.14897 -0.0916,0.29793 -0.13572,0.44716 -0.2599,1.192 0.4157,2.0974 1.66508,2.0974 h 0.004 1.13862 v 0 c 1.62398,0 2.60689,1.01644 2.58741,2.44916 l -0.001,0.004 c 1.6e-4,0.0956 -0.008,0.19118 -0.0221,0.28658 0.002,0.004 -3.9e-4,0.0117 0.004,0.0192 -0.0638,1.01617 -0.0431,2.002 0.0485,2.95345 0.002,0.004 0.004,0.0113 0.006,0.0152 0.0132,0.0726 0.017,0.14895 0.0233,0.22939 0.0288,0.48502 -0.0592,1.02375 -0.28399,1.58926 -0.4192,1.05464 -1.2267,2.00958 -2.1918,2.69749 l 0.002,0.004 -1.08376,0.77571 c -0.0149,0.008 -0.0268,0.0189 -0.0412,0.0265 -0.016,0.0116 -0.0268,0.0192 -0.0388,0.0306 -1.19607,0.87513 -1.82176,2.20843 -1.55319,3.18667 0.0576,0.13359 0.11527,0.26732 0.17436,0.39735 0.28737,0.64184 0.61222,1.2569 0.97133,1.85304 v 0 c 0.35914,0.59606 0.7502,1.16923 1.1765,1.71165 0.0859,0.11084 0.17344,0.21777 0.26061,0.32478 0.64579,0.59607 1.82786,0.57304 2.94194,-0.0575 l 0.77948,-0.55759 0.7314,-0.52356 0.0154,0.0192 c 1.61662,-1.15406 3.43525,-1.41379 4.58981,-0.77188 0.0603,0.0306 0.11779,0.0688 0.17292,0.10319 0.002,0.004 0.01,0.004 0.0147,0.0113 0.76914,0.47778 1.59861,0.89023 2.48798,1.23797 0.0774,0.0268 0.15301,0.0572 0.22513,0.0877 0.42604,0.18743 0.7805,0.47772 1.02599,0.87882 0.44887,0.7451 0.43626,1.71924 0.0474,2.69755 h 0.0113 l -0.44642,1.12311 c -0.52247,1.31445 0.0435,2.39935 1.27553,2.52939 l -0.006,0.0155 c 0.88599,0.0877 1.80149,0.1297 2.74918,0.1297 0.94736,0 1.89624,-0.042 2.85578,-0.1297 l 0.002,-0.0155 c 1.33158,-0.12997 2.76768,-1.21494 3.29015,-2.52939 l 0.45106,-1.13479 c 0.60899,-1.53208 2.03485,-2.8502 3.57519,-3.45774 0.3136,-0.12588 0.62906,-0.21778 0.94364,-0.27894 0.95377,-0.2941 1.90132,-0.63016 2.84548,-1.01617 0.28842,-0.14897 0.58694,-0.27524 0.87918,-0.36667 0.47514,-0.15688 0.96101,-0.24456 1.43462,-0.24456 0.96662,0 1.70875,0.36291 2.14667,0.9628 0.075,0.0994 0.14325,0.20636 0.1994,0.32472 l 0.38978,0.65325 0.006,-0.004 c 0.53863,0.894 1.90573,0.98208 3.18474,0.26376 0.004,0 0.01,-0.004 0.016,-0.0117 0.11125,-0.0687 0.2176,-0.13379 0.325,-0.2022 0.89351,-0.56558 1.76928,-1.15406 2.62885,-1.76919 0.85955,-0.61506 1.70704,-1.2569 2.53452,-1.9256 l 0.32265,-0.26383 c 1.08006,-0.95877 1.54926,-2.29234 1.09613,-3.19016 l -0.002,-0.004 -0.11195,-0.17958 v 0 l -0.42803,-0.71086 0.001,-0.004 c -0.686,-1.13855 -0.28688,-2.81584 0.86579,-4.2066 0.10929,-0.12997 0.22169,-0.26001 0.34281,-0.38211 0.8154,-0.91702 1.5871,-1.8682 2.31234,-2.84646 0.0897,-0.12975 0.17965,-0.25978 0.28165,-0.3821 0.37342,-0.47751 0.83583,-0.92058 1.37511,-1.30652 1.036,-0.74133 2.16305,-1.11586 3.14109,-1.11586 l 0.001,-0.004 h 1.0966 l 0.006,-0.0153 c 1.36014,0 2.89715,-1.06981 3.49527,-2.41103 l 0.0366,0.004 c 0.42714,-0.88238 0.81912,-1.77261 1.17448,-2.6666 0.37816,-0.95139 0.70591,-1.89116 0.9912,-2.81993 z m -15.93397,2.82 v 0 c -0.70771,1.78046 -1.68215,3.49205 -2.86574,5.08515 -0.44788,0.60754 -0.93161,1.19977 -1.43286,1.76912 -1.38165,1.56276 -2.9651,2.9803 -4.66219,4.20277 -1.69941,1.21878 -3.51866,2.23897 -5.38285,3.00683 -0.69078,0.28657 -1.38555,0.5349 -2.08039,0.74509 -1.81478,0.55786 -3.64489,0.85586 -5.42834,0.86338 h -0.0461 c -1.76502,0 -3.34232,-0.29035 -4.70982,-0.82901 -0.55306,-0.21395 -1.06637,-0.46992 -1.54327,-0.76026 -1.25255,-0.76047 -2.25783,-1.76912 -2.98761,-2.98025 -0.73953,-1.21501 -1.19935,-2.62498 -1.34232,-4.1874 -0.0606,-0.58847 -0.0734,-1.19977 -0.0384,-1.82644 0.0877,-1.58544 0.46421,-3.282 1.16351,-5.05078 0.70569,-1.7653 1.70577,-3.542 2.88068,-5.12362 0.46469,-0.63051 0.96356,-1.24179 1.48795,-1.83 1.38743,-1.55893 2.96586,-2.97273 4.67139,-4.18774 1.70547,-1.21496 3.52704,-2.23139 5.39342,-2.99542 0.69683,-0.28275 1.40461,-0.5349 2.11101,-0.7451 1.79579,-0.53865 3.60394,-0.829 5.36895,-0.829 h 0.0457 c 1.78137,0.008 3.37309,0.30961 4.74752,0.85969 0.52779,0.21012 1.02368,0.46227 1.48432,0.74502 1.25758,0.76779 2.26425,1.79188 2.99627,3.00683 0.72449,1.21495 1.17261,2.62498 1.32165,4.17216 0.0518,0.58096 0.0656,1.18057 0.0297,1.79967 -0.0851,1.58926 -0.46606,3.29716 -1.17077,5.07004 l -0.008,0.0193 z m 0,0"
       inkscape:connector-curvature="0"
       style="fill:#ffffff;stroke-width:0.06677593" />
  </g>
</svg>
