<?xml version="1.0" encoding="UTF-8" standalone="no"?>
<svg
   xmlns:dc="http://purl.org/dc/elements/1.1/"
   xmlns:cc="http://creativecommons.org/ns#"
   xmlns:rdf="http://www.w3.org/1999/02/22-rdf-syntax-ns#"
   xmlns:svg="http://www.w3.org/2000/svg"
   xmlns="http://www.w3.org/2000/svg"
   xmlns:sodipodi="http://sodipodi.sourceforge.net/DTD/sodipodi-0.dtd"
   xmlns:inkscape="http://www.inkscape.org/namespaces/inkscape"
   inkscape:export-ydpi="96"
   inkscape:export-xdpi="96"
   inkscape:export-filename="/Users/matt/Desktop/ops.png"
   inkscape:version="1.0beta1 (32d4812, 2019-09-19)"
   height="500"
   width="500"
   sodipodi:docname="ops.svg"
   id="svg12"
   version="1.1"
   viewBox="0 0 500 499.99999">
  <metadata
     id="metadata18">
    <rdf:RDF>
      <cc:Work
         rdf:about="">
        <dc:format>image/svg+xml</dc:format>
        <dc:type
           rdf:resource="http://purl.org/dc/dcmitype/StillImage" />
        <dc:title />
      </cc:Work>
    </rdf:RDF>
  </metadata>
  <defs
     id="defs16">
    <inkscape:perspective
       sodipodi:type="inkscape:persp3d"
       inkscape:vp_x="0 : 526.18109 : 1"
       inkscape:vp_y="0 : 1000 : 0"
       inkscape:vp_z="744.09448 : 526.18109 : 1"
       inkscape:persp3d-origin="372.04724 : 350.78739 : 1"
       id="perspective2669" />
  </defs>
  <sodipodi:namedview
     inkscape:document-rotation="0"
     inkscape:current-layer="svg12"
     inkscape:window-maximized="0"
     inkscape:window-y="23"
     inkscape:window-x="0"
     inkscape:cy="560"
     inkscape:cx="400"
     inkscape:zoom="0.35"
     showgrid="false"
     id="namedview14"
     inkscape:window-height="907"
     inkscape:window-width="1600"
     inkscape:pageshadow="2"
     inkscape:pageopacity="0"
     guidetolerance="10"
     gridtolerance="10"
     objecttolerance="10"
     borderopacity="1"
     bordercolor="#666666"
     pagecolor="#ffffff" />
  <g
     inkscape:label="Layer 2"
     id="layer2"
     inkscape:groupmode="layer">
    <path
       style="fill:#d40000;stroke-width:7.84862"
       inkscape:connector-curvature="0"
       id="path10"
       d="M 42.846133,26.541416 V 175.19418 L 171.56349,249.52061 V 100.86784 Z M 185.69101,423.13209 314.40837,497.45851 V 348.80566 L 185.69101,274.47923 Z"
       class="rect-light" />
    <path
       style="fill:#aa0000;stroke-width:7.84862"
       inkscape:connector-curvature="0"
       id="path6"
       d="M 328.53588,348.655 V 497.22937 L 457.25325,422.98142 V 274.25009 Z"
       class="rect-dark" />
    <path
       style="fill:#d40000;stroke-width:7.84862"
       inkscape:connector-curvature="0"
       id="path8"
       d="M 42.531117,192.24992 171.24848,266.65483 V 415.22921 L 42.531117,340.90278 Z"
       class="rect-light" />
  </g>
  <g
     inkscape:label="Layer 1"
     id="layer1"
     inkscape:groupmode="layer">
    <path
       style="fill:#ffffff;stroke-width:0.0975534"
       inkscape:connector-curvature="0"
       d="m 439.31248,380.59661 -0.0526,0.006 c 0.51785,-1.75277 -0.31968,-3.14275 -1.99773,-3.31565 h -0.75928 -1.28347 l 0.0102,-0.0281 c -2.1881,0 -3.58476,-1.26131 -3.76228,-3.10323 -0.0378,-0.45222 -0.0149,-0.93208 0.10022,-1.44569 0.0416,-1.14422 0.0226,-2.26048 -0.07,-3.3489 10e-4,-0.006 10e-4,-0.006 -0.003,-0.006 -0.10927,-0.38544 -0.15531,-0.80401 -0.13411,-1.25034 l 10e-4,-0.006 c 0.0247,-0.5804 0.16333,-1.21121 0.42055,-1.85838 0.61242,-1.54074 1.78686,-2.93632 3.20208,-3.94088 h -0.006 v 0 l 1.58314,-1.13312 c 0.0218,-0.0117 0.0365,-0.0222 0.0599,-0.0387 0.0186,-0.0169 0.0392,-0.0281 0.0574,-0.0447 1.86401,-1.36183 2.77439,-3.48297 2.17113,-4.92875 l 0.0291,-0.0165 c -0.45592,-1.0437 -0.96895,-2.04276 -1.54599,-2.99203 -0.58637,-0.98249 -1.23714,-1.91427 -1.95294,-2.79614 l -0.017,0.0117 c -0.88002,-1.07185 -2.74225,-1.10508 -4.4858,-0.11716 l -1.13878,0.81457 -1.07225,0.75929 -0.0197,-0.0336 c -2.27199,1.62967 -4.81965,2.04278 -6.50767,1.23367 -0.23128,-0.10607 -0.4402,-0.24019 -0.63701,-0.39093 -1.03772,-0.61963 -2.14308,-1.16637 -3.31863,-1.63526 -0.2158,-0.0614 -0.41666,-0.14522 -0.61364,-0.24019 0,0 -0.006,0 -0.003,-0.006 -0.56004,-0.26235 -1.02661,-0.67533 -1.35268,-1.21668 -0.5484,-0.91013 -0.61594,-2.05994 -0.30205,-3.24288 0.12287,-0.4633 0.30928,-0.93219 0.55474,-1.39559 l 0.38178,-0.96055 c 0.72771,-1.83073 0.009,-3.34881 -1.60903,-3.66137 -0.20878,-0.0222 -0.41414,-0.0393 -0.63069,-0.0558 h 0.006 c -1.19031,-0.095 -2.40701,-0.15074 -3.65726,-0.15074 -1.25033,0 -2.51163,0.0558 -3.77988,0.15633 v 0 c -0.22417,0.0165 -0.44851,0.0336 -0.67488,0.0557 -1.86385,0.30707 -3.79219,1.83074 -4.51766,3.65588 l -0.65896,1.65782 c -0.95181,2.39455 -3.27096,4.43751 -5.69925,5.22435 -0.15621,0.0564 -0.31338,0.10051 -0.46866,0.13981 -1.68971,0.50244 -3.3674,1.0996 -5.02698,1.79191 -0.0117,0 -0.0146,0.006 -0.0193,0.006 -0.13601,0.0614 -0.26193,0.11147 -0.40123,0.1673 -0.83769,0.32365 -1.69022,0.50244 -2.52187,0.50244 -1.54032,0 -2.68722,-0.62512 -3.29065,-1.63556 l -0.0117,0.0117 -0.71162,-1.17197 c -0.78029,-1.29505 -2.72322,-1.43472 -4.5681,-0.42966 -0.22099,0.13368 -0.44376,0.27333 -0.65317,0.4071 l -0.0308,0.0225 c -1.26829,0.80361 -2.51671,1.64086 -3.74142,2.51724 -1.22475,0.87637 -2.42357,1.78601 -3.59666,2.72967 0,0 -0.006,0 -0.009,0.006 -0.21171,0.16732 -0.41793,0.33472 -0.62592,0.50762 -1.59293,1.4514 -2.24422,3.45532 -1.46407,4.75037 l 0.70615,1.17197 c 1.01362,1.69157 0.39904,4.19205 -1.34954,6.24598 -0.10694,0.12871 -0.21924,0.25686 -0.3407,0.37944 -1.2367,1.3844 -2.40628,2.82471 -3.48893,4.29805 -0.10883,0.16193 -0.22479,0.31266 -0.34592,0.46331 l -10e-4,0.006 c -0.54703,0.70308 -1.2322,1.37292 -2.0312,1.93685 -1.52111,1.0884 -3.16178,1.63567 -4.591,1.63567 l -0.006,0.0165 h -1.65784 c -1.83072,0 -3.87244,1.31712 -4.87733,3.05891 -0.1065,0.21202 -0.21552,0.42965 -0.32094,0.65276 v 0 c -0.57752,1.20002 -1.14251,2.49508 -1.62852,3.71776 v 0 l -0.0102,0.0276 -0.0132,0.0336 v 0 c -0.49026,1.23339 -0.92373,2.45037 -1.30023,3.65038 l -10e-4,0.006 c -0.0701,0.21763 -0.13382,0.43525 -0.19828,0.65326 -0.37969,1.7414 0.6073,3.0641 2.43253,3.0641 h 0.006 1.66342 v 0 c 2.37249,0 3.80843,1.48493 3.77997,3.578 l -10e-4,0.006 c 2.3e-4,0.13966 -0.0117,0.2793 -0.0323,0.41867 0.003,0.006 -5.7e-4,0.0171 0.006,0.0281 -0.0932,1.48453 -0.063,2.92473 0.0709,4.31471 0.003,0.006 0.006,0.0165 0.009,0.0222 0.0193,0.10606 0.0248,0.2176 0.034,0.33512 0.0421,0.70857 -0.0865,1.4956 -0.41488,2.32176 -0.61241,1.54073 -1.7921,2.93581 -3.20202,3.94078 l 0.003,0.006 -1.58328,1.13324 c -0.0218,0.0117 -0.0392,0.0276 -0.0602,0.0387 -0.0234,0.017 -0.0392,0.0281 -0.0567,0.0447 -1.74735,1.27849 -2.66142,3.22631 -2.26907,4.65543 0.0841,0.19516 0.1684,0.39053 0.25473,0.58049 0.41982,0.93767 0.89439,1.83622 1.41902,2.70712 v 0 c 0.52467,0.87079 1.09597,1.70814 1.71876,2.50056 0.12549,0.16193 0.25338,0.31815 0.38072,0.47448 0.94344,0.8708 2.67034,0.83716 4.29791,-0.084 l 1.13874,-0.81459 1.06851,-0.76487 0.0225,0.0281 c 2.36173,-1.68598 5.01858,-2.06542 6.70529,-1.12765 0.0881,0.0447 0.17208,0.10051 0.25262,0.15075 0.003,0.006 0.0146,0.006 0.0215,0.0165 1.12364,0.69799 2.33542,1.30054 3.63471,1.80856 0.11307,0.0392 0.22353,0.0836 0.32889,0.12812 0.62241,0.27382 1.14024,0.69791 1.49888,1.28388 0.65576,1.08852 0.63733,2.51165 0.0693,3.94087 h 0.0165 l -0.65217,1.64075 c -0.76328,1.92029 0.0635,3.50523 1.86343,3.69521 l -0.009,0.0226 c 1.29435,0.12812 2.63181,0.18948 4.0163,0.18948 1.384,0 2.77023,-0.0614 4.17203,-0.18948 l 0.003,-0.0226 c 1.94531,-0.18988 4.04332,-1.77492 4.8066,-3.69521 l 0.65896,-1.65782 c 0.88968,-2.23822 2.97273,-4.16388 5.22302,-5.05144 0.45814,-0.18389 0.919,-0.31815 1.37857,-0.4075 1.39337,-0.42965 2.77765,-0.92061 4.15698,-1.48453 0.42136,-0.21763 0.85747,-0.4021 1.2844,-0.53567 0.69414,-0.22919 1.40395,-0.35728 2.09585,-0.35728 1.41214,0 2.49633,0.53018 3.13609,1.40656 0.10956,0.14521 0.20927,0.30147 0.2913,0.47439 l 0.56943,0.95433 0.009,-0.006 c 0.78689,1.30605 2.78409,1.43473 4.65261,0.38533 0.006,0 0.0146,-0.006 0.0234,-0.0171 0.16253,-0.10037 0.3179,-0.19546 0.4748,-0.2954 1.30533,-0.82626 2.58475,-1.68597 3.8405,-2.58462 1.25573,-0.89855 2.49383,-1.83622 3.7027,-2.81312 l 0.47136,-0.38544 c 1.57787,-1.40067 2.26333,-3.34889 1.60135,-4.66052 l -0.003,-0.006 -0.16355,-0.26235 v 0 l -0.62532,-1.0385 10e-4,-0.006 c -1.00219,-1.66332 -0.41911,-4.11368 1.26483,-6.14545 0.15967,-0.18988 0.32387,-0.37985 0.50082,-0.55823 1.19122,-1.33968 2.3186,-2.72927 3.37811,-4.15841 0.13105,-0.18956 0.26245,-0.37952 0.41147,-0.55822 0.54553,-0.69759 1.22107,-1.34488 2.0089,-1.9087 1.5135,-1.08301 3.16002,-1.63017 4.58885,-1.63017 l 10e-4,-0.006 h 1.60203 l 0.009,-0.0224 c 1.98704,0 4.23247,-1.5629 5.10627,-3.52229 l 0.0535,0.006 c 0.62401,-1.28908 1.19666,-2.58962 1.7158,-3.89566 0.55246,-1.38989 1.03127,-2.76281 1.44805,-4.11965 z m -23.27805,4.11975 v 0 c -1.0339,2.60109 -2.45747,5.10156 -4.18658,7.42894 -0.65431,0.88756 -1.361,1.75275 -2.09328,2.58452 -2.01846,2.28304 -4.33173,4.35394 -6.81102,6.13985 -2.48268,1.78053 -5.14044,3.27093 -7.86385,4.3927 -1.00916,0.41865 -2.02416,0.78144 -3.03925,1.08851 -2.65123,0.81498 -5.32485,1.25033 -7.9303,1.26132 h -0.0673 c -2.57853,0 -4.88282,-0.42418 -6.88061,-1.21111 -0.80797,-0.31256 -1.55787,-0.68651 -2.25458,-1.11067 -1.82986,-1.11097 -3.29848,-2.58452 -4.36462,-4.35387 -1.08038,-1.77501 -1.75214,-3.83485 -1.961,-6.1174 -0.0885,-0.8597 -0.10723,-1.75275 -0.0561,-2.66826 0.12812,-2.31618 0.67817,-4.7947 1.69978,-7.37872 1.03095,-2.57894 2.49197,-5.17453 4.20841,-7.48513 0.67886,-0.92112 1.40767,-1.81414 2.17375,-2.67346 2.02691,-2.27745 4.33285,-4.34289 6.82447,-6.1179 2.49153,-1.77495 5.15268,-3.25986 7.87928,-4.37603 1.01801,-0.41307 2.05201,-0.78144 3.08399,-1.08852 2.62349,-0.78692 5.26503,-1.2111 7.84354,-1.2111 h 0.0668 c 2.60241,0.0117 4.92777,0.45231 6.93568,1.25593 0.77105,0.30697 1.4955,0.67533 2.16846,1.08841 1.8372,1.12167 3.30785,2.61777 4.37727,4.3927 1.05841,1.77492 1.71307,3.83485 1.93081,6.09513 0.0757,0.84873 0.0958,1.72471 0.0434,2.62915 -0.12432,2.32177 -0.68087,4.81685 -1.71038,7.40686 l -0.0117,0.0282 z m 0,0"
       id="path886" />
  </g>
</svg>
