<?xml version="1.0" encoding="UTF-8" standalone="no"?>
<svg
   xmlns:dc="http://purl.org/dc/elements/1.1/"
   xmlns:cc="http://creativecommons.org/ns#"
   xmlns:rdf="http://www.w3.org/1999/02/22-rdf-syntax-ns#"
   xmlns:svg="http://www.w3.org/2000/svg"
   xmlns="http://www.w3.org/2000/svg"
   xmlns:sodipodi="http://sodipodi.sourceforge.net/DTD/sodipodi-0.dtd"
   xmlns:inkscape="http://www.inkscape.org/namespaces/inkscape"
   sodipodi:docname="pos.sible.svg"
   inkscape:version="1.0beta1 (32d4812, 2019-09-19)"
   id="svg8"
   version="1.1"
   viewBox="0 0 132.29166 132.29167"
   height="500"
   width="500">
  <defs
     id="defs2" />
  <sodipodi:namedview
     inkscape:document-rotation="0"
     inkscape:window-maximized="0"
     inkscape:window-y="23"
     inkscape:window-x="0"
     inkscape:window-height="907"
     inkscape:window-width="1600"
     units="px"
     showgrid="false"
     inkscape:current-layer="layer1"
     inkscape:document-units="mm"
     inkscape:cy="560"
     inkscape:cx="400"
     inkscape:zoom="0.35"
     inkscape:pageshadow="2"
     inkscape:pageopacity="0.0"
     borderopacity="1.0"
     bordercolor="#666666"
     pagecolor="#ffffff"
     id="base" />
  <metadata
     id="metadata5">
    <rdf:RDF>
      <cc:Work
         rdf:about="">
        <dc:format>image/svg+xml</dc:format>
        <dc:type
           rdf:resource="http://purl.org/dc/dcmitype/StillImage" />
        <dc:title />
      </cc:Work>
    </rdf:RDF>
  </metadata>
  <g
     transform="translate(0,-164.70832)"
     id="layer1"
     inkscape:groupmode="layer"
     inkscape:label="Layer 1">
    <path
       sodipodi:nodetypes="sscscscscccccccccccccccccccccscsssccscsccsccc"
       inkscape:connector-curvature="0"
       id="path907"
       d="M 50.674113,279.54419 C 22.780021,276.2262 0.497107,261.76734 0.497107,246.9855 c 0,-3.34468 1.5461818,-3.10219 4.1467025,0.65041 9.3984345,13.56198 32.9778475,21.99368 61.5054575,21.99368 28.542579,0 52.106463,-8.43093 61.516843,-22.01011 1.38306,-1.99578 2.87932,-3.62862 3.32502,-3.62862 1.56695,0 0.76824,6.14702 -1.40147,10.78568 -8.39985,17.95831 -43.513453,28.97873 -78.915547,24.76765 z m 0,-17.85946 C 27.426261,258.75754 8.2544132,248.88655 2.7157627,236.99242 0.4954262,232.22426 -0.153844,227.62186 1.2697338,226.74206 c 0.4249298,-0.2627 2.2796456,1.54105 4.1215716,4.00826 6.4129476,8.58993 21.1769076,16.00285 38.7175906,19.4399 11.27543,2.20944 32.567699,2.20951 43.961063,1.9e-4 17.368651,-3.36809 32.994081,-11.23706 39.045481,-19.66351 1.69702,-2.36308 3.44563,-4.07395 3.88574,-3.80193 1.44882,0.89545 0.81857,5.46401 -1.41152,10.23167 -8.37125,17.89719 -44.143149,29.10627 -78.915547,24.72809 z M 47.860449,243.44325 C 25.259045,239.95209 8.0950042,230.72435 2.7157627,219.17255 0.4954262,214.40442 -0.153844,209.80199 1.2697338,208.92216 c 0.4249298,-0.2627 2.2796456,1.54112 4.1215716,4.00832 6.4210906,8.6008 21.2366056,16.03297 38.7175906,19.42261 11.35769,2.2023 32.677699,2.21219 43.961063,0.0186 17.378541,-3.37588 32.995391,-11.24184 39.045481,-19.66634 1.69702,-2.36308 3.44563,-4.07397 3.88574,-3.80193 1.44935,0.89577 0.81825,5.4643 -1.41841,10.26743 -8.55627,18.37436 -46.650674,29.68802 -81.722321,24.27068 z m 0,-18.7578 C 25.259045,221.19431 8.0950042,211.96657 2.7157627,200.41477 c -3.8917402,-8.35741 -2.36622529,-13.83871 2.0107307,-7.22471 8.9079776,13.46091 32.8203826,22.04203 61.4227736,22.04203 27.618458,0 51.116123,-8.14455 60.757953,-21.05937 1.84193,-2.46717 3.69666,-4.27095 4.12158,-4.00828 1.42304,0.87945 0.77463,5.48168 -1.43914,10.21464 -8.64816,18.48919 -46.503721,29.74749 -81.729211,24.30637 z m 0.567891,-25.75697 c -7.10271,-1.86001 -13.229382,-5.55381 -13.229382,-7.97607 0,-1.76038 -0.01663,-1.7635 5.306299,0.99099 12.811259,6.62937 40.352685,6.6528 53.088598,0.0455 5.403439,-2.80342 5.381497,-2.79919 5.381497,-1.03616 0,2.4792 -6.178612,6.12189 -13.605512,8.02139 -9.931787,2.5401 -27.149634,2.519 -36.9415,-0.0454 z"
       style="fill:#eed0c8;stroke-width:0.937888" />
  </g>
</svg>
