<?xml version="1.0" encoding="UTF-8" standalone="no"?>
<!-- Created with Inkscape (http://www.inkscape.org/) -->

<svg
   xmlns:dc="http://purl.org/dc/elements/1.1/"
   xmlns:cc="http://creativecommons.org/ns#"
   xmlns:rdf="http://www.w3.org/1999/02/22-rdf-syntax-ns#"
   xmlns:svg="http://www.w3.org/2000/svg"
   xmlns="http://www.w3.org/2000/svg"
   xmlns:sodipodi="http://sodipodi.sourceforge.net/DTD/sodipodi-0.dtd"
   xmlns:inkscape="http://www.inkscape.org/namespaces/inkscape"
   width="500"
   height="500"
   viewBox="0 0 132.29166 132.29167"
   version="1.1"
   id="svg8"
   inkscape:version="0.92.2 5c3e80d, 2017-08-06"
   sodipodi:docname="pos.sible.svg">
  <defs
     id="defs2" />
  <sodipodi:namedview
     id="base"
     pagecolor="#ffffff"
     bordercolor="#666666"
     borderopacity="1.0"
     inkscape:pageopacity="0.0"
     inkscape:pageshadow="2"
     inkscape:zoom="0.9899495"
     inkscape:cx="-1.6635703"
     inkscape:cy="87.683159"
     inkscape:document-units="mm"
     inkscape:current-layer="layer1"
     showgrid="false"
     units="px"
     inkscape:window-width="1920"
     inkscape:window-height="1081"
     inkscape:window-x="0"
     inkscape:window-y="1"
     inkscape:window-maximized="1" />
  <metadata
     id="metadata5">
    <rdf:RDF>
      <cc:Work
         rdf:about="">
        <dc:format>image/svg+xml</dc:format>
        <dc:type
           rdf:resource="http://purl.org/dc/dcmitype/StillImage" />
        <dc:title />
      </cc:Work>
    </rdf:RDF>
  </metadata>
  <g
     inkscape:label="Layer 1"
     inkscape:groupmode="layer"
     id="layer1"
     transform="translate(0,-164.70832)">
    <path
       style="fill:#eed0c8;stroke-width:0.63556278"
       d="m 55.661373,265.21372 c -18.902519,-2.24845 -34.002606,-12.04654 -34.002606,-22.0635 0,-2.26653 1.047775,-2.10221 2.810026,0.44075 6.368879,9.19032 22.347542,14.90409 41.679367,14.90409 19.341969,0 35.31011,-5.71325 41.68708,-14.91522 0.93724,-1.35245 1.95118,-2.45895 2.25321,-2.45895 1.06185,0 0.5206,4.16555 -0.94971,7.30895 -5.69218,12.16951 -29.487026,19.63753 -53.477367,16.78388 z m 0,-12.10252 c -15.75398,-1.98362 -28.745843,-8.67273 -32.499127,-16.73282 -1.504618,-3.23116 -1.944598,-6.34999 -0.979906,-6.94619 0.287955,-0.17802 1.544809,1.0443 2.792996,2.71621 4.345754,5.82099 14.350598,10.84438 26.237097,13.17351 7.640831,1.49723 22.069604,1.49728 29.790353,1.3e-4 11.76992,-2.2824 22.358544,-7.61483 26.459294,-13.32504 1.14999,-1.60135 2.33494,-2.76073 2.63318,-2.57639 0.9818,0.6068 0.55471,3.7027 -0.95652,6.93352 -5.6728,12.12809 -29.913742,19.72396 -53.477367,16.75707 z m -1.906688,-12.3614 c -15.315913,-2.36579 -26.947179,-8.619 -30.592439,-16.44711 -1.504618,-3.23114 -1.944598,-6.34999 -0.979906,-6.94621 0.287955,-0.17802 1.544809,1.04434 2.792996,2.71625 4.351272,5.82836 14.391053,10.86479 26.237097,13.16179 7.696575,1.4924 22.144146,1.4991 29.790353,0.0126 11.776623,-2.28768 22.359434,-7.61807 26.459294,-13.32696 1.14999,-1.60135 2.33494,-2.76074 2.63318,-2.57639 0.98216,0.60702 0.55449,3.7029 -0.96119,6.95776 -5.79818,12.45144 -31.612973,20.11818 -55.379385,16.4471 z m 0,-12.71128 c -15.315913,-2.36578 -26.947179,-8.61899 -30.592439,-16.4471 -2.63725,-5.66343 -1.60348,-9.37785 1.362578,-4.89585 6.036519,9.12183 22.240836,14.93685 41.623336,14.93685 18.715735,0 34.639,-5.51918 41.17282,-14.27095 1.24819,-1.67188 2.50505,-2.89422 2.793,-2.71622 0.96433,0.59596 0.52493,3.71468 -0.97524,6.92198 -5.86045,12.52926 -31.513391,20.15848 -55.384055,16.47129 z m 0.384833,-17.45429 c -4.813174,-1.26044 -8.964932,-3.76356 -8.964932,-5.40501 0,-1.19293 -0.01127,-1.19504 3.59583,0.67155 8.68159,4.49241 27.345124,4.50829 35.975656,0.0308 3.661657,-1.89975 3.646788,-1.89688 3.646788,-0.70216 0,1.68004 -4.186956,4.14852 -9.219818,5.43572 -6.730307,1.72131 -18.398035,1.70701 -25.033524,-0.0308 z"
       id="path907"
       inkscape:connector-curvature="0"
       sodipodi:nodetypes="sscscscscccccccccccccccccccccscsssccscsccsccc" />
  </g>
</svg>
