<?xml version="1.0" encoding="UTF-8" standalone="no"?>
<svg
   xmlns:dc="http://purl.org/dc/elements/1.1/"
   xmlns:cc="http://creativecommons.org/ns#"
   xmlns:rdf="http://www.w3.org/1999/02/22-rdf-syntax-ns#"
   xmlns:svg="http://www.w3.org/2000/svg"
   xmlns="http://www.w3.org/2000/svg"
   xmlns:sodipodi="http://sodipodi.sourceforge.net/DTD/sodipodi-0.dtd"
   xmlns:inkscape="http://www.inkscape.org/namespaces/inkscape"
   sodipodi:docname="quaff.svg"
   inkscape:version="1.0beta1 (32d4812, 2019-09-19)"
   id="svg8"
   version="1.1"
   viewBox="0 0 132.29166 132.29167"
   height="500"
   width="500">
  <defs
     id="defs2">
    <filter
       id="filter898"
       inkscape:label="Invert"
       style="color-interpolation-filters:sRGB;">
      <feColorMatrix
         id="feColorMatrix896"
         result="fbSourceGraphic"
         values="1 0 0 0 0 0 1 0 0 0 0 0 1 0 0 0.21 0.72 0.07 1 0 " />
      <feColorMatrix
         id="feColorMatrix900"
         values="0 0 0 -1 0 0 0 0 -1 0 0 0 0 -1 0 0 0 0 1 0"
         in="fbSourceGraphic"
         result="fbSourceGraphicAlpha" />
      <feColorMatrix
         in="fbSourceGraphic"
         result="color2"
         values="1 0 0 0 0 0 1 0 0 0 0 0 1 0 0 0.21 0.72 0.07 1 0 "
         id="feColorMatrix902" />
    </filter>
  </defs>
  <sodipodi:namedview
     inkscape:window-maximized="0"
     inkscape:window-y="23"
     inkscape:window-x="0"
     inkscape:window-height="1076"
     inkscape:window-width="1834"
     units="px"
     showgrid="false"
     inkscape:document-rotation="0"
     inkscape:current-layer="layer2"
     inkscape:document-units="mm"
     inkscape:cy="254.36028"
     inkscape:cx="260.99456"
     inkscape:zoom="1.6606055"
     inkscape:pageshadow="2"
     inkscape:pageopacity="0.0"
     borderopacity="1.0"
     bordercolor="#666666"
     pagecolor="#ffffff"
     id="base" />
  <metadata
     id="metadata5">
    <rdf:RDF>
      <cc:Work
         rdf:about="">
        <dc:format>image/svg+xml</dc:format>
        <dc:type
           rdf:resource="http://purl.org/dc/dcmitype/StillImage" />
        <dc:title></dc:title>
      </cc:Work>
    </rdf:RDF>
  </metadata>
  <g
     style="display:inline"
     id="layer1"
     inkscape:groupmode="layer"
     inkscape:label="Layer 1" />
  <g
     style="display:inline;opacity:1"
     inkscape:label="Layer 2"
     id="layer2"
     inkscape:groupmode="layer">
    <path
       transform="matrix(0.49462705,0,0,0.49462705,27.553097,16.877987)"
       inkscape:connector-curvature="0"
       id="path872"
       d="m 56.203901,125.96045 c 2.95869,0.48738 12.52432,0.32946 16.40417,-0.27082 11.18748,-1.73092 20.867962,-5.54053 26.302672,-10.35102 0.9137,-0.80876 0.62231,-1.15281 -0.98273,-1.15881 -3.08485,-0.0124 -7.97275,-1.92533 -10.67309,-4.17696 -1.845412,-1.53876 -4.000032,-4.58133 -4.857442,-6.85925 -0.80233,-2.13159 -1.36292,-4.908494 -1.0534,-5.21802 0.15593,-0.155927 0.87031,0.373973 1.90818,1.41541 2.1268,2.13413 4.414692,3.76671 6.860572,4.89555 3.44031,1.58779 4.86102,1.85425 9.87962,1.85325 5.434677,-0.001 7.450157,-0.4446 11.906247,-2.61977 8.68758,-4.240724 14.35491,-12.614639 15.20763,-22.470429 0.14001,-1.616702 0.20561,-3.475239 0.14601,-4.130083 -0.0596,-0.654843 -0.18,-2.217446 -0.2676,-3.47245 -0.48226,-6.908474 -3.39392,-15.586334 -7.66413,-22.842035 C 114.29042,42.007995 105.00528,32.623163 94.743823,25.714349 88.759933,21.685534 80.614441,17.3144 73.713721,14.428907 l -3.25997,-1.363136 -2.32938,2.24553 c -4.10956,3.961627 -8.16822,6.791545 -21.31318,14.860706 -16.422126,10.080882 -22.708196,14.7055 -29.374723,21.61077 -9.009033,9.331672 -13.358116,19.807784 -12.737845,30.683064 0.517728,9.077378 4.225001,17.281833 10.744192,23.777639 5.241013,5.22221 10.49383,8.06213 17.88233,9.66801 3.184263,0.6921 9.250416,0.64245 12.742146,-0.10429 7.25137,-1.55077 13.24985,-4.73875 18.87614,-10.03197 1.27608,-1.20055 2.40724,-2.18281 2.51369,-2.18281 0.67519,0 -0.76208,4.23982 -2.29585,6.77256 -3.25353,5.37262 -9.51706,9.88185 -15.57195,11.21055 -2.91386,0.63943 -2.95784,0.7128 -1.12448,1.87572 1.54184,0.978 4.74147,2.0154 7.73906,2.5092 z"
       style="fill:#12abdb;fill-opacity:0.560784;stroke-width:0.264583;filter:url(#filter898)"
       sodipodi:nodetypes="cccccsccccccscssscssssscscssccc" />
  </g>
  <g
     style="display:inline"
     inkscape:label="Layer 3"
     id="layer3"
     inkscape:groupmode="layer">
    <path
       sodipodi:nodetypes="ccccccccccccscsssccssscsssscssscscccsccc"
       style="display:inline;opacity:1;fill:#242424;fill-opacity:1;stroke-width:0.130465;stop-opacity:1"
       d="M 0,66.145839 V 0 H 66.145839 132.29167 V 66.145839 132.29167 H 66.145839 0 Z m 86.041775,51.506571 c 0.863073,-0.28181 1.272762,-0.49147 5.541839,-2.83616 5.98041,-3.28455 9.449036,-5.56697 13.962706,-9.18765 3.06311,-2.4571 4.17488,-3.69873 4.17488,-4.66251 0,-0.37749 -0.0859,-0.55696 -0.38807,-0.81127 -0.53178,-0.447465 -0.97342,-0.568515 -2.93879,-0.805517 -3.88897,-0.468978 -7.119926,-1.728308 -10.531992,-4.105075 -1.493122,-1.04007 -5.731317,-5.218926 -7.282214,-7.180247 -3.512772,-4.442382 -4.943072,-8.012199 -4.26191,-10.637092 0.09854,-0.379712 0.603571,-1.323544 1.219453,-2.278959 2.872234,-4.45566 4.802151,-8.647475 5.934063,-12.888861 C 94.306855,51.635618 91.811164,41.62742 83.999458,32.293801 79.500764,26.918649 71.886998,21.046288 64.955026,17.605169 l -1.386514,-0.68828 -0.839275,0.530048 c -0.461603,0.291528 -1.427837,0.825403 -2.14719,1.186392 -4.446834,2.231525 -14.787044,8.998892 -27.248198,17.833153 -1.506872,1.068288 -4.002018,2.789419 -5.54477,3.824737 -1.542749,1.035317 -2.841494,1.948273 -2.886095,2.028792 -0.113474,0.204855 0.09477,3.024033 0.401108,5.430238 0.512277,4.023751 1.419218,8.188702 2.561053,11.761144 4.370715,13.674595 12.319961,22.324081 23.342434,25.398634 3.489897,0.973459 5.744779,1.25102 10.11105,1.244641 3.504464,-0.0053 5.96395,-0.218867 8.785257,-0.763513 1.342761,-0.259212 1.984743,-0.249024 2.934624,0.04662 3.302121,1.027728 6.899862,5.970746 9.739873,13.381828 1.307885,3.412957 1.763374,5.779417 1.762519,9.157047 -4.92e-4,2.40936 -0.194766,3.78681 -0.854605,6.06306 -0.592081,2.04251 -0.682415,2.80242 -0.398422,3.35159 0.362026,0.70009 1.173783,0.77705 2.7539,0.26111 z"
       id="path872-4"
       inkscape:connector-curvature="0" />
    <path
       inkscape:connector-curvature="0"
       id="path876"
       d="m 45.72877,74.183557 c -3.943537,-0.34105 -7.256603,-1.875858 -10.187441,-4.719413 -3.147126,-3.053408 -4.987501,-6.846347 -5.399474,-11.1281 -0.161626,-1.679809 -0.08513,-3.111286 0.270262,-5.057201 0.814336,-4.458865 3.523002,-8.775146 7.940874,-12.653842 2.987845,-2.623195 5.74845,-4.548633 12.20299,-8.511212 6.535205,-4.012103 8.812269,-5.593712 10.717805,-7.444408 0.550348,-0.534511 1.072464,-0.971838 1.160259,-0.971838 0.564253,0 5.654554,2.399169 8.25095,3.888851 10.20931,5.857586 16.617901,13.358603 18.747495,21.943252 0.444714,1.792699 0.80715,4.305351 0.621021,4.305351 -0.06305,0 -0.219669,-0.337578 -0.348052,-0.750175 -1.24892,-4.013878 -4.41181,-6.156981 -9.095281,-6.162765 -2.866139,-0.0035 -5.075407,1.03053 -7.42836,3.476912 -1.717481,1.785675 -2.656224,3.119504 -5.856499,8.321321 -1.233662,2.005231 -2.605333,4.177478 -3.048154,4.827211 -0.973597,1.428517 -2.912759,3.874768 -3.203984,4.041825 -0.115749,0.06641 -0.738837,0.628525 -1.384639,1.249171 -1.830696,1.759384 -3.701744,3.051721 -5.638399,3.894458 -2.661843,1.158304 -5.659297,1.680829 -8.321373,1.450602 z"
       style="opacity:1;fill:#0070ad;fill-opacity:1;stroke-width:0.130465;stop-opacity:1" />
  </g>
</svg>
