<svg xmlns="http://www.w3.org/2000/svg" width="500" height="500" version="1.1" viewBox="0 0 132.292 132.292">
    <defs>
        <filter style="color-interpolation-filters:sRGB" id="filter898">
            <feColorMatrix result="fbSourceGraphic" values="1 0 0 0 0 0 1 0 0 0 0 0 1 0 0 0.21 0.72 0.07 1 0"/>
            <feColorMatrix in="fbSourceGraphic" result="fbSourceGraphicAlpha"
                           values="0 0 0 -1 0 0 0 0 -1 0 0 0 0 -1 0 0 0 0 1 0"/>
            <feColorMatrix in="fbSourceGraphic" result="color2"
                           values="1 0 0 0 0 0 1 0 0 0 0 0 1 0 0 0.21 0.72 0.07 1 0"/>
        </filter>
    </defs>
    <g style="display:inline">
        <path style="display:inline;opacity:1;fill:#242424;fill-opacity:1;stroke-width:.130465;stop-opacity:1"
              d="M 1.8333333e-6,66.145837 V -1.8166667e-6 H 66.145838 132.29166 V 66.145837 132.29167 H 66.145838 1.8333333e-6 Z"/>
    </g>
    <g style="display:inline;opacity:1">
        <path d="m 91.407163,131.61548 c 1.103133,-0.3602 1.626775,-0.62817 7.083276,-3.62503 7.643831,-4.19813 12.077241,-7.11539 17.846371,-11.74315 3.9151,-3.14053 5.3361,-4.72751 5.3361,-5.95936 0,-0.48249 -0.10979,-0.71188 -0.49601,-1.03693 -0.67969,-0.57192 -1.24417,-0.72664 -3.7562,-1.02956 -4.97067,-0.59942 -9.1003,-2.20903 -13.46142,-5.24689 -1.90842,-1.32936 -7.325454,-6.670541 -9.307725,-9.177394 -4.489833,-5.67801 -6.317965,-10.240755 -5.447341,-13.59575 0.125949,-0.485327 0.771452,-1.691681 1.558639,-2.91284 3.671132,-5.694981 6.137846,-11.05273 7.584594,-16.473838 C 101.97114,47.236424 98.781281,34.444493 88.796785,22.514772 83.046801,15.644546 73.315301,8.1388157 64.455234,3.7405656 L 62.683067,2.8608438 61.610352,3.5383221 c -0.589996,0.3726152 -1.824983,1.054985 -2.744421,1.5163814 -5.6837,2.8522132 -18.899991,11.5018915 -34.827156,22.7933605 -1.926002,1.365428 -5.115161,3.565283 -7.087022,4.88857 -1.971857,1.323286 -3.631842,2.490176 -3.688849,2.593091 -0.145036,0.261834 0.12113,3.865154 0.512674,6.940633 0.654765,5.142939 1.813967,10.466351 3.273398,15.032451 5.586409,17.47812 15.746701,28.53342 29.835023,32.463145 4.460595,1.244222 7.342662,1.598986 12.923391,1.590832 4.479214,-0.0068 7.622795,-0.279744 11.228835,-0.97588 1.716244,-0.331311 2.53679,-0.318289 3.750876,0.05959 4.22059,1.313586 8.819026,7.631481 12.448973,17.103914 1.671667,4.36226 2.253848,7.38694 2.252755,11.70404 -6.29e-4,3.07951 -0.248939,4.84009 -1.092309,7.74947 -0.756766,2.61063 -0.872226,3.5819 -0.509241,4.28382 0.462722,0.89482 1.500265,0.99318 3.519884,0.33374 z"
              style="display:inline;opacity:1;fill:#fff;fill-opacity:1;stroke-width:.166753;stop-opacity:1"/>
    </g>
    <g style="display:inline">
        <path style="display:inline;opacity:1;fill:#12abdb;fill-opacity:.560784;stroke-width:.264583;filter:url(#filter898)"
              d="m 56.203901,125.96045 c 2.95869,0.48738 12.52432,0.32946 16.40417,-0.27082 11.18748,-1.73092 20.867962,-5.54053 26.302672,-10.35102 0.9137,-0.80876 0.62231,-1.15281 -0.98273,-1.15881 -3.08485,-0.0124 -7.97275,-1.92533 -10.67309,-4.17696 -1.845412,-1.53876 -4.000032,-4.58133 -4.857442,-6.85925 -0.80233,-2.13159 -1.36292,-4.908494 -1.0534,-5.21802 0.15593,-0.155927 0.87031,0.373973 1.90818,1.41541 2.1268,2.13413 4.414692,3.76671 6.860572,4.89555 3.44031,1.58779 4.86102,1.85425 9.87962,1.85325 5.434677,-0.001 7.450157,-0.4446 11.906247,-2.61977 8.68758,-4.240724 14.35491,-12.614639 15.20763,-22.470429 0.14001,-1.616702 0.20561,-3.475239 0.14601,-4.130083 -0.0596,-0.654843 -0.18,-2.217446 -0.2676,-3.47245 -0.48226,-6.908474 -3.39392,-15.586334 -7.66413,-22.842035 C 114.29042,42.007995 105.00528,32.623163 94.743823,25.714349 88.759933,21.685534 80.614441,17.3144 73.713721,14.428907 l -3.25997,-1.363136 -2.32938,2.24553 c -4.10956,3.961627 -8.16822,6.791545 -21.31318,14.860706 -16.422126,10.080882 -22.708196,14.7055 -29.374723,21.61077 -9.009033,9.331672 -13.358116,19.807784 -12.737845,30.683064 0.517728,9.077378 4.225001,17.281833 10.744192,23.777639 5.241013,5.22221 10.49383,8.06213 17.88233,9.66801 3.184263,0.6921 9.250416,0.64245 12.742146,-0.10429 7.25137,-1.55077 13.24985,-4.73875 18.87614,-10.03197 1.27608,-1.20055 2.40724,-2.18281 2.51369,-2.18281 0.67519,0 -0.76208,4.23982 -2.29585,6.77256 -3.25353,5.37262 -9.51706,9.88185 -15.57195,11.21055 -2.91386,0.63943 -2.95784,0.7128 -1.12448,1.87572 1.54184,0.978 4.74147,2.0154 7.73906,2.5092 z"
              transform="matrix(0.63220526,0,0,0.63220526,16.650134,2.8111214)"/>
    </g>
    <g style="display:inline">
        <path style="display:inline;opacity:1;fill:#0070ad;fill-opacity:1;stroke-width:.166753;stop-opacity:1"
              d="m 39.881285,76.055967 c -5.040413,-0.435912 -9.274993,-2.397619 -13.02103,-6.032096 -4.022484,-3.902699 -6.374751,-8.750626 -6.901312,-14.223329 -0.206582,-2.14704 -0.108809,-3.976675 0.345434,-6.463837 1.040839,-5.699078 4.502908,-11.215912 10.149591,-16.173449 3.8189,-3.352824 7.347354,-5.813814 15.597194,-10.878566 8.352942,-5.12805 11.26336,-7.149577 13.698912,-9.515035 0.703425,-0.683183 1.370765,-1.24215 1.48298,-1.24215 0.721197,0 7.227341,3.066486 10.545913,4.970517 13.048981,7.486846 21.240092,17.074235 23.962023,28.046664 0.568409,2.29133 1.031655,5.502864 0.793755,5.502864 -0.08059,0 -0.280769,-0.431473 -0.444861,-0.958832 -1.596302,-5.13032 -5.638935,-7.869517 -11.625091,-7.876909 -3.663342,-0.0045 -6.487108,1.317167 -9.494524,4.443998 -2.19519,2.282352 -3.39504,3.98718 -7.485456,10.635858 -1.5768,2.562976 -3.329995,5.339424 -3.895984,6.169877 -1.244399,1.825852 -3.722929,4.952516 -4.095157,5.166039 -0.147944,0.08488 -0.944341,0.803347 -1.76977,1.596623 -2.339896,2.248748 -4.731367,3.900542 -7.206693,4.977683 -3.402222,1.480481 -7.233404,2.148343 -10.635924,1.85408 z"/>
    </g>
</svg>
