<?xml version="1.0" encoding="UTF-8" standalone="no"?>
<!-- Created with Inkscape (http://www.inkscape.org/) -->

<svg
   xmlns:dc="http://purl.org/dc/elements/1.1/"
   xmlns:cc="http://creativecommons.org/ns#"
   xmlns:rdf="http://www.w3.org/1999/02/22-rdf-syntax-ns#"
   xmlns:svg="http://www.w3.org/2000/svg"
   xmlns="http://www.w3.org/2000/svg"
   xmlns:sodipodi="http://sodipodi.sourceforge.net/DTD/sodipodi-0.dtd"
   xmlns:inkscape="http://www.inkscape.org/namespaces/inkscape"
   width="1000"
   height="1000"
   viewBox="0 0 264.58333 264.58334"
   version="1.1"
   id="svg8"
   inkscape:version="0.92.2 5c3e80d, 2017-08-06"
   sodipodi:docname="scribbles.svg">
  <defs
     id="defs2" />
  <sodipodi:namedview
     id="base"
     pagecolor="#ffffff"
     bordercolor="#666666"
     borderopacity="1.0"
     inkscape:pageopacity="0.0"
     inkscape:pageshadow="2"
     inkscape:zoom="0.7"
     inkscape:cx="194.08143"
     inkscape:cy="582.96763"
     inkscape:document-units="mm"
     inkscape:current-layer="layer1"
     showgrid="false"
     units="px"
     inkscape:window-width="1920"
     inkscape:window-height="1081"
     inkscape:window-x="0"
     inkscape:window-y="1"
     inkscape:window-maximized="1" />
  <metadata
     id="metadata5">
    <rdf:RDF>
      <cc:Work
         rdf:about="">
        <dc:format>image/svg+xml</dc:format>
        <dc:type
           rdf:resource="http://purl.org/dc/dcmitype/StillImage" />
        <dc:title />
      </cc:Work>
    </rdf:RDF>
  </metadata>
  <g
     inkscape:label="Layer 1"
     inkscape:groupmode="layer"
     id="layer1"
     transform="translate(0,-32.416658)">
    <path
       style="fill:#040404;stroke-width:0.30603915"
       d="m 60.681229,236.25674 c -0.07892,-0.1277 -0.01065,-0.85072 0.15173,-1.60671 0.162375,-0.75598 0.563113,-2.71728 0.890531,-4.35841 0.327417,-1.64113 0.880347,-4.39548 1.228733,-6.12078 0.348385,-1.7253 0.864827,-4.37636 1.147647,-5.89126 0.282819,-1.51489 0.600926,-2.89206 0.706903,-3.06038 0.105977,-0.16832 0.363307,-1.5455 0.571845,-3.0604 0.208539,-1.51489 0.48423,-2.89206 0.612646,-3.06038 0.128418,-0.16833 0.403853,-1.54551 0.612079,-3.0604 0.208226,-1.51489 0.485096,-2.89207 0.615264,-3.06039 0.13017,-0.16831 0.409429,-1.58425 0.620578,-3.14652 0.211148,-1.56226 0.501475,-2.91313 0.645169,-3.00193 0.143695,-0.0888 0.261263,-0.50669 0.261263,-0.92864 0,-0.42192 0.14893,-1.04543 0.330955,-1.38554 0.182027,-0.34012 23.04702,-23.33476 50.811108,-51.0992 l 50.48013,-50.48078 2.3632,0.29374 c 2.69692,0.335207 5.91259,1.084537 7.25983,1.691719 1.07335,0.483733 4.75489,2.284663 5.92404,2.897916 0.44485,0.233335 1.38287,0.887492 2.08449,1.453683 0.70161,0.566198 1.3946,1.029442 1.53999,1.029442 0.49187,0 7.13062,6.69647 7.13062,7.19263 0,0.0937 0.52841,0.83879 1.17426,1.65585 1.18705,1.50173 3.09172,5.17519 4.31484,8.32184 0.57645,1.48302 1.06515,3.67147 1.76117,7.88658 0.16909,1.02394 -0.26835,1.47176 -50.71821,51.92231 -41.0471,41.04765 -51.07178,50.921 -51.83507,51.05262 -5.18242,0.89362 -8.369407,1.4944 -8.7503,1.64951 -0.438946,0.17874 -3.035671,0.68588 -9.028154,1.76316 -1.514895,0.27233 -3.029788,0.61438 -3.366432,0.76011 -0.336642,0.14572 -1.782678,0.43111 -3.21341,0.63419 -1.430734,0.20309 -2.73905,0.4724 -2.907371,0.59849 -0.168322,0.12608 -1.545499,0.3996 -3.060393,0.60783 -1.514893,0.20823 -2.89207,0.4851 -3.060391,0.61526 -0.168321,0.13018 -1.584252,0.40943 -3.146513,0.62059 -1.562261,0.21115 -2.913135,0.50146 -3.001942,0.64516 -0.200105,0.32378 -0.956886,0.3429 -1.150835,0.0291 z m 54.950581,-57.99286 c 28.88159,-29.36761 43.35949,-44.08523 58.38021,-59.34681 6.71899,-6.82673 8.59609,-8.90206 8.4547,-9.34755 -0.30805,-0.97057 -2.68172,-3.04084 -4.77118,-4.1613 -3.34626,-1.79444 -3.00046,-1.87574 -6.48091,1.52376 -1.69477,1.65536 -3.77153,3.83606 -4.61501,4.84599 -0.84348,1.00992 -20.89188,21.30202 -44.55198,45.09356 l -43.018382,43.25732 0.749433,0.59236 c 0.412188,0.3258 1.438021,1.06512 2.279629,1.64293 0.841607,0.57782 2.356501,1.80664 3.36643,2.73072 1.009929,0.92409 1.905094,1.68599 1.989254,1.69311 0.08416,0.007 12.782176,-12.8287 28.217806,-28.52409 z"
       id="path880"
       inkscape:connector-curvature="0" />
  </g>
</svg>
