<?xml version="1.0" encoding="UTF-8" standalone="no"?>
<svg
   xmlns:dc="http://purl.org/dc/elements/1.1/"
   xmlns:cc="http://creativecommons.org/ns#"
   xmlns:rdf="http://www.w3.org/1999/02/22-rdf-syntax-ns#"
   xmlns:svg="http://www.w3.org/2000/svg"
   xmlns="http://www.w3.org/2000/svg"
   xmlns:sodipodi="http://sodipodi.sourceforge.net/DTD/sodipodi-0.dtd"
   xmlns:inkscape="http://www.inkscape.org/namespaces/inkscape"
   sodipodi:docname="scribbles.svg"
   inkscape:version="1.0beta1 (32d4812, 2019-09-19)"
   id="svg8"
   version="1.1"
   viewBox="0 0 264.58333 264.58334"
   height="1000"
   width="1000">
  <defs
     id="defs2" />
  <sodipodi:namedview
     inkscape:document-rotation="0"
     inkscape:window-maximized="0"
     inkscape:window-y="23"
     inkscape:window-x="0"
     inkscape:window-height="907"
     inkscape:window-width="1635"
     units="px"
     showgrid="false"
     inkscape:current-layer="layer1"
     inkscape:document-units="mm"
     inkscape:cy="560"
     inkscape:cx="400"
     inkscape:zoom="0.35"
     inkscape:pageshadow="2"
     inkscape:pageopacity="0.0"
     borderopacity="1.0"
     bordercolor="#666666"
     pagecolor="#ffffff"
     id="base" />
  <metadata
     id="metadata5">
    <rdf:RDF>
      <cc:Work
         rdf:about="">
        <dc:format>image/svg+xml</dc:format>
        <dc:type
           rdf:resource="http://purl.org/dc/dcmitype/StillImage" />
        <dc:title />
      </cc:Work>
    </rdf:RDF>
  </metadata>
  <g
     transform="translate(0,-32.416658)"
     id="layer1"
     inkscape:groupmode="layer"
     inkscape:label="Layer 1">
    <path
       inkscape:connector-curvature="0"
       id="path880"
       d="m 1.0965096,295.78985 c -0.14458679,-0.23395 -0.019512,-1.55858 0.2779796,-2.9436 0.2974819,-1.38501 1.031661,-4.97824 1.6315129,-7.9849 0.5998501,-3.00666 1.6128552,-8.05282 2.2511218,-11.21368 0.6382649,-3.16087 1.5844215,-8.01779 2.1025668,-10.79319 0.5181435,-2.77538 1.100937,-5.29845 1.2950941,-5.60682 0.194157,-0.30838 0.6656029,-2.83146 1.0476586,-5.60686 0.3820576,-2.77538 0.8871416,-5.29845 1.1224086,-5.60683 0.235271,-0.30839 0.739886,-2.83147 1.12137,-5.60685 0.381484,-2.77539 0.888729,-5.29847 1.127206,-5.60685 0.23848,-0.30835 0.750101,-2.90245 1.13694,-5.76463 0.386838,-2.86217 0.918736,-5.33705 1.181993,-5.49974 0.263259,-0.16269 0.478652,-0.92829 0.478652,-1.70133 0,-0.77299 0.27285,-1.9153 0.606332,-2.53841 0.333486,-0.62312 42.223697,-42.75085 93.089385,-93.61718 l 92.483,-92.484198 4.32954,0.538151 c 4.94094,0.614122 10.83227,1.986945 13.3005,3.099344 1.96645,0.886231 8.71128,4.185657 10.85324,5.309178 0.815,0.427485 2.53352,1.625945 3.81893,2.663245 1.2854,1.037313 2.555,1.886007 2.82137,1.886007 0.90114,0 13.06377,12.268386 13.06377,13.177384 0,0.171665 0.96809,1.53672 2.15133,3.033629 2.17475,2.751271 5.66424,9.481298 7.90508,15.246173 1.05609,2.716993 1.95142,6.726381 3.22658,14.448747 0.30978,1.875927 -0.49164,2.696364 -92.91919,95.12518 -75.201056,75.20206 -93.566947,93.29071 -94.965346,93.53185 -9.494543,1.63717 -15.333318,2.73784 -16.03114,3.02201 -0.804179,0.32746 -5.561554,1.25658 -16.540188,3.23023 -2.77539,0.49892 -5.550776,1.12558 -6.167531,1.39257 -0.61675,0.26697 -3.265986,0.78982 -5.887184,1.16188 -2.621201,0.37207 -5.018124,0.86547 -5.3265,1.09647 -0.308377,0.23099 -2.831458,0.7321 -5.606846,1.11359 -2.775387,0.38149 -5.298468,0.88873 -5.606843,1.1272 -0.308376,0.2385 -2.902457,0.7501 -5.7646245,1.13696 -2.8621677,0.38684 -5.3370601,0.91871 -5.4997605,1.18198 -0.3666059,0.59318 -1.7530798,0.62821 -2.1084074,0.0533 z M 101.76968,189.54302 c 52.91303,-53.80345 79.43752,-80.76712 106.95649,-108.727368 12.30964,-12.50703 15.74862,-16.309175 15.48958,-17.125343 -0.56437,-1.77815 -4.91309,-5.571024 -8.74112,-7.623782 -6.13058,-3.287536 -5.49705,-3.436483 -11.87347,2.791631 -3.10493,3.032731 -6.90969,7.027921 -8.45501,8.878181 -1.54531,1.850241 -38.27533,39.026741 -81.62223,82.614451 l -78.812582,79.25033 1.373012,1.08524 c 0.755156,0.59689 2.634551,1.95137 4.176434,3.00996 1.541881,1.0586 4.317269,3.30989 6.167527,5.00286 1.850258,1.693 3.490261,3.08885 3.644448,3.10189 0.154186,0.0128 23.417809,-23.50304 51.696921,-52.25805 z"
       style="fill:#040404;stroke-width:0.560684" />
  </g>
</svg>
