<?xml version="1.0" encoding="UTF-8" standalone="no"?>
<!-- Created with Inkscape (http://www.inkscape.org/) -->

<svg
   xmlns:dc="http://purl.org/dc/elements/1.1/"
   xmlns:cc="http://creativecommons.org/ns#"
   xmlns:rdf="http://www.w3.org/1999/02/22-rdf-syntax-ns#"
   xmlns:svg="http://www.w3.org/2000/svg"
   xmlns="http://www.w3.org/2000/svg"
   xmlns:sodipodi="http://sodipodi.sourceforge.net/DTD/sodipodi-0.dtd"
   xmlns:inkscape="http://www.inkscape.org/namespaces/inkscape"
   width="500"
   height="500"
   viewBox="0 0 132.29166 132.29167"
   version="1.1"
   id="svg8"
   inkscape:version="0.92.2 5c3e80d, 2017-08-06"
   sodipodi:docname="stackchat.svg">
  <defs
     id="defs2" />
  <sodipodi:namedview
     id="base"
     pagecolor="#797979"
     bordercolor="#666666"
     borderopacity="1.0"
     inkscape:pageopacity="0"
     inkscape:pageshadow="2"
     inkscape:zoom="0.98994949"
     inkscape:cx="-88.94233"
     inkscape:cy="284.62936"
     inkscape:document-units="mm"
     inkscape:current-layer="layer1"
     showgrid="false"
     units="px"
     inkscape:window-width="1920"
     inkscape:window-height="1081"
     inkscape:window-x="0"
     inkscape:window-y="1"
     inkscape:window-maximized="1" />
  <metadata
     id="metadata5">
    <rdf:RDF>
      <cc:Work
         rdf:about="">
        <dc:format>image/svg+xml</dc:format>
        <dc:type
           rdf:resource="http://purl.org/dc/dcmitype/StillImage" />
        <dc:title />
      </cc:Work>
    </rdf:RDF>
  </metadata>
  <g
     inkscape:label="Layer 1"
     inkscape:groupmode="layer"
     id="layer1"
     transform="translate(0,-164.70832)">
    <path
       style="fill:#fefefe;stroke-width:0.23704647"
       d="m 59.127556,263.17182 -6.794998,-6.795 -2.354484,2.17259 c -1.294967,1.19493 -2.44356,2.1726 -2.552427,2.1726 -0.289961,0 -29.741014,-29.45219 -29.741014,-29.74216 0,-0.1351 6.719424,-6.96443 14.932053,-15.17627 l 14.932051,-14.93064 2.315964,2.30727 2.315961,2.30726 6.86993,-6.87299 c 3.778462,-3.78015 6.976625,-6.873 7.107028,-6.873 0.130404,0 3.332611,3.09418 7.116015,6.87596 l 6.878912,6.87595 2.244176,-2.25356 c 1.234294,-1.23944 2.303276,-2.25354 2.375511,-2.25354 0.199085,0 29.732626,29.59884 29.834586,29.90054 0.0877,0.25959 -26.532969,27.0761 -28.718163,28.9294 l -1.132068,0.96013 -2.383414,-2.19928 -2.383412,-2.19929 -6.797547,6.79451 c -3.738652,3.737 -6.903773,6.79452 -7.033603,6.79452 -0.129829,0 -3.293805,-3.05775 -7.031057,-6.795 z m 15.271525,-12.46201 -3.612322,-3.61231 -2.198993,2.18984 c -1.209444,1.20442 -2.301654,2.18985 -2.42713,2.18985 -0.125477,0 -1.217687,-0.98543 -2.427131,-2.18985 l -2.198992,-2.18984 -3.611725,3.61172 -3.611726,3.61172 5.923604,5.92716 5.923604,5.92717 5.926564,-5.92658 5.926568,-5.92656 z m 26.947479,-10.42315 9.35676,-9.41266 -12.90801,-12.98822 c -7.099403,-7.14352 -12.96361,-13.01565 -13.031573,-13.04916 -0.06796,-0.0335 -0.672504,0.56267 -1.343422,1.32487 l -1.21985,1.38583 6.854752,6.85169 c 3.770111,3.76843 6.85475,6.99111 6.85475,7.16151 0,0.1704 -1.992501,2.33387 -4.427782,4.80769 l -4.42778,4.49786 3.196398,3.25343 c 3.875747,3.9449 5.51162,5.69592 5.629158,6.0254 0.04869,0.13647 -3.021817,3.35981 -6.823342,7.16297 l -6.911859,6.91484 1.302525,1.43933 1.302523,1.43934 3.619998,-3.70101 c 1.991001,-2.03556 7.830538,-7.93674 12.976754,-13.11371 z m -52.385171,15.35239 1.274182,-1.2902 -7.030655,-6.91608 c -3.866863,-3.80384 -7.030659,-7.03573 -7.030659,-7.18198 0,-0.14625 2.052389,-2.32032 4.560866,-4.83127 l 4.560864,-4.56537 -4.618246,-4.6228 -4.618245,-4.62281 7.059501,-7.06244 7.059499,-7.06245 -1.256766,-1.38291 -1.256764,-1.38292 -12.916009,12.96585 c -7.103806,7.13122 -12.916011,13.04823 -12.916011,13.1489 0,0.19872 25.519548,26.07692 25.727639,26.08922 0.06964,0.004 0.700003,-0.57312 1.400804,-1.28274 z m 4.468359,-16.65573 c -5.822699,-5.82605 -5.988656,-5.96933 -6.460096,-5.57723 -0.26613,0.22135 -1.945975,1.83617 -3.732989,3.5885 l -3.249117,3.18605 6.093675,5.9852 6.093673,5.9852 3.615537,-3.59402 3.615539,-3.59403 z m 35.131778,-2.36651 -3.674219,-3.60067 -5.984905,5.96888 -5.984906,5.96887 3.604694,3.61034 3.604697,3.61033 6.05443,-5.97854 6.054431,-5.97853 z m -21.148295,7.10457 -1.237036,-1.25259 -1.252596,1.23703 -1.252594,1.23704 1.237035,1.25259 1.237036,1.25259 1.252596,-1.23704 1.252594,-1.23702 z m -4.567953,-2.20348 1.170701,-1.18858 -4.557524,-4.56202 c -2.506641,-2.50911 -4.557527,-4.66672 -4.557527,-4.79468 0,-0.12796 2.081425,-2.31604 4.625388,-4.86239 l 4.625387,-4.62972 -1.309933,-1.29366 -1.309935,-1.29366 -5.999562,5.9961 -5.99956,5.99609 5.943496,5.90605 c 3.268923,3.24834 6.000843,5.90808 6.070931,5.91055 0.07009,0.002 0.65425,-0.53037 1.298138,-1.18408 z m 13.983044,-4.73819 5.923201,-5.92675 -5.980463,-5.98047 -5.980461,-5.98045 -1.310516,1.29423 -1.310515,1.29424 4.625387,4.62972 c 2.543963,2.54635 4.625388,4.73443 4.625388,4.86239 0,0.12796 -2.050886,2.28557 -4.557527,4.79468 l -4.557524,4.56202 1.170701,1.18858 c 0.643888,0.65371 1.228849,1.18858 1.299916,1.18858 0.07107,0 2.794653,-2.66704 6.052413,-5.92677 z m -23.406612,-14.04669 5.98426,-5.98771 -3.615539,-3.60065 -3.615537,-3.60065 -6.069857,6.00847 -6.069859,6.00845 3.579899,3.57991 c 1.968944,1.96895 3.634457,3.5799 3.701137,3.5799 0.06668,0 2.814154,-2.69449 6.105496,-5.98772 z m 38.695513,-1.10791 c 0,-0.0719 -2.692423,-2.82485 -5.983161,-6.11749 l -5.983162,-5.98661 -3.617801,3.61215 -3.617798,3.61215 5.965745,5.96918 5.965747,5.9692 3.635216,-3.46386 c 1.999369,-1.90512 3.635214,-3.52274 3.635214,-3.59472 z m -24.652833,-6.06046 -1.293045,-1.3093 -1.303754,1.30374 -1.303757,1.30376 1.293047,1.30931 1.293045,1.30932 1.303754,-1.30376 1.303757,-1.30375 z m -1.303754,-5.33354 c 0.12571,0 1.245444,1.01307 2.4883,2.25126 l 2.259736,2.25124 3.622465,-3.62812 3.622466,-3.62813 -6.062508,-5.91231 -6.062506,-5.91231 -5.919032,5.92751 -5.919031,5.92749 3.611988,3.61199 3.611987,3.61199 2.258784,-2.25031 c 1.242332,-1.23766 2.36164,-2.2503 2.487351,-2.2503 z"
       id="path953"
       inkscape:connector-curvature="0" />
  </g>
</svg>
