<svg xmlns="http://www.w3.org/2000/svg" xmlns:svg="http://www.w3.org/2000/svg" id="svg8" width="500" height="500" version="1.1" viewBox="0 0 132.292 132.292"><metadata id="metadata5"/><g id="layer1" transform="translate(0,-164.70832)"><path id="path953" d="m 56.719018,274.26262 -9.126911,-9.12691 -3.162497,2.91818 c -1.739375,1.60501 -3.282143,2.9182 -3.428371,2.9182 -0.38947,0 -39.9475584,-39.55962 -39.9475584,-39.9491 0,-0.18147 9.0254014,-9.35449 20.0564464,-20.38448 l 20.056444,-20.05454 3.110758,3.09908 3.110754,3.09906 9.227558,-9.23166 c 5.075158,-5.07743 9.370869,-9.23169 9.546024,-9.23169 0.175156,0 4.476299,4.15605 9.558094,9.23566 l 9.239622,9.23564 3.014334,-3.02693 c 1.65788,-1.6648 3.093716,-3.02692 3.190741,-3.02692 0.267407,0 39.936294,39.7566 40.073244,40.16184 0.1178,0.34867 -35.638575,36.36809 -38.573686,38.85741 l -1.520572,1.28963 -3.201356,-2.95403 -3.201353,-2.95405 -9.130334,9.12626 c -5.021686,5.01946 -9.273016,9.12627 -9.447401,9.12627 -0.174384,0 -4.424175,-4.10711 -9.44398,-9.12692 z m 20.512418,-16.73873 -4.852001,-4.85198 -2.953645,2.94135 c -1.624502,1.61775 -3.091537,2.94136 -3.260074,2.94136 -0.168539,0 -1.635574,-1.32361 -3.260076,-2.94136 l -2.953644,-2.94135 -4.851199,4.85119 -4.851201,4.85119 7.956471,7.96125 7.956471,7.96126 7.960446,-7.96047 7.960453,-7.96044 z m 36.195334,-14.00017 12.56782,-12.64291 -17.33779,-17.44553 c -9.53578,-9.59503 -17.41247,-17.48237 -17.503757,-17.52738 -0.09128,-0.045 -0.903294,0.75577 -1.804459,1.77954 l -1.638479,1.86142 9.207171,9.20306 c 5.063944,5.06169 9.207164,9.39033 9.207164,9.6192 0,0.22888 -2.67628,3.13481 -5.94731,6.4576 l -5.947306,6.04144 4.293341,4.36995 c 5.205825,5.29871 7.403105,7.65065 7.560975,8.0932 0.0654,0.1833 -4.05885,4.51283 -9.16498,9.62116 l -9.283876,9.28788 1.749526,1.93328 1.749524,1.93329 4.862312,-4.97112 c 2.674274,-2.73413 10.517824,-10.66048 17.430124,-17.61408 z m -70.362752,20.62103 1.711457,-1.73297 -9.443441,-9.28955 c -5.193896,-5.10924 -9.443446,-9.45025 -9.443446,-9.64669 0,-0.19644 2.756729,-3.11661 6.126067,-6.48927 l 6.126065,-6.13212 -6.203139,-6.20926 -6.203138,-6.20927 9.482186,-9.48613 9.482183,-9.48615 -1.688063,-1.85749 -1.688062,-1.85752 -17.348535,17.41548 c -9.541695,9.57852 -17.3485371,17.52614 -17.3485371,17.66135 0,0.26692 34.2773661,35.02602 34.5568701,35.04254 0.09354,0.005 0.94023,-0.7698 1.881533,-1.72295 z m 6.001814,-22.37166 c -7.820938,-7.82543 -8.043848,-8.01788 -8.677077,-7.49122 -0.357461,0.29731 -2.613796,2.4663 -5.014079,4.82 l -4.364152,4.27944 8.184907,8.03921 8.184905,8.0392 4.85632,-4.82742 4.856322,-4.82743 z m 47.188328,-3.17865 -4.93514,-4.83635 -8.038809,8.01729 -8.038811,8.01727 4.841756,4.84934 4.841759,4.84932 8.132194,-8.03026 8.132191,-8.03024 z m -28.405983,9.54273 -1.661563,-1.68246 -1.682463,1.66156 -1.68246,1.66156 1.661562,1.68246 1.661563,1.68245 1.682463,-1.66156 1.68246,-1.66155 z m -6.135587,-2.95968 1.572464,-1.59647 -6.121579,-6.12762 c -3.366872,-3.37019 -6.121583,-6.26825 -6.121583,-6.44012 0,-0.17188 2.79573,-3.11086 6.212733,-6.53107 l 6.21273,-6.21855 -1.759476,-1.73762 -1.75948,-1.73762 -8.058496,8.05384 -8.058494,8.05384 7.98319,7.93289 c 4.390754,4.36311 8.060217,7.93562 8.154357,7.93894 0.09414,0.003 0.878776,-0.71239 1.743634,-1.59044 z m 18.781756,-6.36424 7.95593,-7.9607 -8.032843,-8.03285 -8.03284,-8.03283 -1.76026,1.73839 -1.760259,1.7384 6.212731,6.21855 c 3.417002,3.42021 6.212732,6.35919 6.212732,6.53107 0,0.17187 -2.75471,3.06993 -6.121582,6.44012 l -6.121579,6.12762 1.572463,1.59647 c 0.864858,0.87805 1.650567,1.59648 1.746022,1.59648 0.09546,0 3.753725,-3.58232 8.129485,-7.96072 z M 49.055035,219.946 l 8.037943,-8.04257 -4.856322,-4.83633 -4.85632,-4.83632 -8.152915,8.07046 -8.152918,8.07044 4.808451,4.80846 c 2.644648,2.64466 4.881733,4.80845 4.971296,4.80845 0.08956,0 3.779918,-3.61918 8.200785,-8.04259 z m 51.975065,-1.48812 c 0,-0.0966 -3.616407,-3.79428 -8.036463,-8.21689 l -8.036468,-8.0411 -4.859361,4.85177 -4.859356,4.85177 8.013074,8.01769 8.013076,8.01771 4.882752,-4.65259 c 2.685514,-2.55892 4.882746,-4.73168 4.882746,-4.82836 z m -33.113207,-8.14029 -1.736793,-1.75863 -1.751178,1.75116 -1.751181,1.75118 1.736796,1.75864 1.736793,1.75866 1.751177,-1.75119 1.751182,-1.75117 z m -1.751177,-7.16391 c 0.168851,0 1.672856,1.36074 3.342236,3.02385 l 3.035234,3.02382 4.865626,-4.87322 4.865626,-4.87323 -8.143044,-7.94131 -8.143041,-7.9413 -7.95033,7.96172 -7.950329,7.96169 4.851553,4.85156 4.851551,4.85155 3.033956,-3.02257 c 1.668676,-1.6624 3.172109,-3.02256 3.340962,-3.02256 z" style="fill:#fefefe;stroke-width:.318396"/></g></svg>