<?xml version="1.0" encoding="UTF-8" standalone="no"?>
<svg
   xmlns:dc="http://purl.org/dc/elements/1.1/"
   xmlns:cc="http://creativecommons.org/ns#"
   xmlns:rdf="http://www.w3.org/1999/02/22-rdf-syntax-ns#"
   xmlns:svg="http://www.w3.org/2000/svg"
   xmlns="http://www.w3.org/2000/svg"
   xmlns:sodipodi="http://sodipodi.sourceforge.net/DTD/sodipodi-0.dtd"
   xmlns:inkscape="http://www.inkscape.org/namespaces/inkscape"
   inkscape:version="1.0beta1 (32d4812, 2019-09-19)"
   sodipodi:docname="vscode.svg"
   id="svg58"
   version="1.1"
   fill="none"
   viewBox="0 0 256 256"
   height="256"
   width="256">
  <metadata
     id="metadata62">
    <rdf:RDF>
      <cc:Work
         rdf:about="">
        <dc:format>image/svg+xml</dc:format>
        <dc:type
           rdf:resource="http://purl.org/dc/dcmitype/StillImage" />
      </cc:Work>
    </rdf:RDF>
  </metadata>
  <sodipodi:namedview
     inkscape:document-rotation="0"
     inkscape:current-layer="svg58"
     inkscape:window-maximized="0"
     inkscape:window-y="23"
     inkscape:window-x="0"
     inkscape:cy="179.48233"
     inkscape:cx="151.62641"
     inkscape:zoom="1.4990106"
     showgrid="false"
     id="namedview60"
     inkscape:window-height="907"
     inkscape:window-width="1600"
     inkscape:pageshadow="2"
     inkscape:pageopacity="0"
     guidetolerance="10"
     gridtolerance="10"
     objecttolerance="10"
     borderopacity="1"
     bordercolor="#666666"
     pagecolor="#ffffff" />
  <mask
     height="256"
     width="256"
     y="0"
     x="0"
     maskUnits="userSpaceOnUse"
     mask-type="alpha"
     id="mask0">
    <path
       id="path2"
       fill="white"
       d="M181.534 254.252C185.566 255.823 190.164 255.722 194.234 253.764L246.94 228.403C252.478 225.738 256 220.132 256 213.983V42.0181C256 35.8689 252.478 30.2638 246.94 27.5988L194.234 2.23681C188.893 -0.333132 182.642 0.296344 177.955 3.70418C177.285 4.191 176.647 4.73454 176.049 5.33354L75.149 97.3862L31.1992 64.0247C27.1079 60.9191 21.3853 61.1735 17.5855 64.63L3.48936 77.4525C-1.15853 81.6805 -1.16386 88.9926 3.47785 93.2274L41.5926 128L3.47785 162.773C-1.16386 167.008 -1.15853 174.32 3.48936 178.548L17.5855 191.37C21.3853 194.827 27.1079 195.081 31.1992 191.976L75.149 158.614L176.049 250.667C177.645 252.264 179.519 253.467 181.534 254.252ZM192.039 69.8853L115.479 128L192.039 186.115V69.8853Z"
       clip-rule="evenodd"
       fill-rule="evenodd" />
  </mask>
  <g
     transform="matrix(0.99293381,0,0,0.99293381,0.86927853,0.90429792)"
     id="g19"
     mask="url(#mask0)">
    <path
       style="fill:#0065a9"
       inkscape:connector-curvature="0"
       id="path5"
       d="M 246.94,27.6383 194.193,2.24138 C 188.088,-0.698302 180.791,0.541721 175.999,5.33332 L 3.32371,162.773 c -4.64453,4.235 -4.63919,11.547 0.01152,15.775 L 17.4399,191.37 c 3.8022,3.457 9.5283,3.711 13.622,0.606 L 239.003,34.2269 c 6.976,-5.2922 16.996,-0.3166 16.996,8.4398 v -0.6124 c 0,-6.1465 -3.521,-11.7496 -9.059,-14.416 z" />
    <g
       style="filter:url(#filter0_d)"
       id="g9">
      <path
         style="fill:#007acc"
         inkscape:connector-curvature="0"
         id="path7"
         d="m 246.94,228.362 -52.747,25.397 c -6.105,2.939 -13.402,1.699 -18.194,-3.092 L 3.32371,93.2272 C -1.32082,88.9925 -1.31548,81.6802 3.33523,77.4523 L 17.4399,64.6298 c 3.8022,-3.4565 9.5283,-3.711 13.622,-0.6053 L 239.003,221.773 c 6.976,5.292 16.996,0.317 16.996,-8.44 v 0.613 c 0,6.146 -3.521,11.749 -9.059,14.416 z" />
    </g>
    <g
       style="filter:url(#filter1_d)"
       id="g13">
      <path
         style="fill:#1f9cf0"
         inkscape:connector-curvature="0"
         id="path11"
         d="m 194.196,253.763 c -6.107,2.937 -13.404,1.696 -18.196,-3.096 5.904,5.904 16,1.722 16,-6.628 V 11.9606 c 0,-8.35003 -10.096,-12.531775 -16,-6.62739 4.792,-4.792044 12.089,-6.033817 18.196,-3.09673 l 52.738,25.36202 c 5.542,2.665 9.066,8.2701 9.066,14.4193 V 213.983 c 0,6.149 -3.524,11.754 -9.066,14.419 z" />
    </g>
    <g
       id="g17"
       style="opacity:0.25;mix-blend-mode:overlay">
      <path
         style="clip-rule:evenodd;fill:url(#paint0_linear);fill-rule:evenodd"
         inkscape:connector-curvature="0"
         id="path15"
         d="m 181.378,254.252 c 4.032,1.57 8.63,1.47 12.699,-0.488 l 52.706,-25.362 c 5.539,-2.665 9.061,-8.27 9.061,-14.419 V 42.0179 c 0,-6.1492 -3.522,-11.7543 -9.06,-14.4193 L 194.077,2.23665 c -5.34,-2.569949 -11.591,-1.940473 -16.279,1.46736 -0.669,0.48682 -1.307,1.03036 -1.906,1.62936 L 74.9927,97.386 31.0429,64.0245 C 26.9517,60.9189 21.229,61.1734 17.4292,64.6298 L 3.33311,77.4523 c -4.64789,4.228 -4.65322,11.5402 -0.01151,15.775 L 41.4364,128 3.3216,162.773 c -4.64171,4.235 -4.63638,11.547 0.01151,15.775 L 17.4292,191.37 c 3.7998,3.457 9.5225,3.711 13.6137,0.606 l 43.9498,-33.362 100.8993,92.053 c 1.596,1.597 3.471,2.8 5.486,3.585 z M 191.883,69.8851 115.323,128 l 76.56,58.115 z" />
    </g>
  </g>
  <defs
     id="defs56">
    <filter
       color-interpolation-filters="sRGB"
       filterUnits="userSpaceOnUse"
       height="236.149"
       width="298.822"
       y="40.5225"
       x="-21.4896"
       id="filter0_d">
      <feFlood
         id="feFlood21"
         result="BackgroundImageFix"
         flood-opacity="0" />
      <feColorMatrix
         id="feColorMatrix23"
         values="0 0 0 0 0 0 0 0 0 0 0 0 0 0 0 0 0 0 127 0"
         type="matrix"
         in="SourceAlpha" />
      <feOffset
         id="feOffset25" />
      <feGaussianBlur
         id="feGaussianBlur27"
         stdDeviation="10.6667" />
      <feColorMatrix
         id="feColorMatrix29"
         values="0 0 0 0 0 0 0 0 0 0 0 0 0 0 0 0 0 0 0.25 0"
         type="matrix" />
      <feBlend
         id="feBlend31"
         result="effect1_dropShadow"
         in2="BackgroundImageFix"
         mode="overlay" />
      <feBlend
         id="feBlend33"
         result="shape"
         in2="effect1_dropShadow"
         in="SourceGraphic"
         mode="normal" />
    </filter>
    <filter
       color-interpolation-filters="sRGB"
       filterUnits="userSpaceOnUse"
       height="297.347"
       width="122.667"
       y="-20.6735"
       x="154.667"
       id="filter1_d">
      <feFlood
         id="feFlood36"
         result="BackgroundImageFix"
         flood-opacity="0" />
      <feColorMatrix
         id="feColorMatrix38"
         values="0 0 0 0 0 0 0 0 0 0 0 0 0 0 0 0 0 0 127 0"
         type="matrix"
         in="SourceAlpha" />
      <feOffset
         id="feOffset40" />
      <feGaussianBlur
         id="feGaussianBlur42"
         stdDeviation="10.6667" />
      <feColorMatrix
         id="feColorMatrix44"
         values="0 0 0 0 0 0 0 0 0 0 0 0 0 0 0 0 0 0 0.25 0"
         type="matrix" />
      <feBlend
         id="feBlend46"
         result="effect1_dropShadow"
         in2="BackgroundImageFix"
         mode="overlay" />
      <feBlend
         id="feBlend48"
         result="shape"
         in2="effect1_dropShadow"
         in="SourceGraphic"
         mode="normal" />
    </filter>
    <linearGradient
       gradientUnits="userSpaceOnUse"
       y2="255.34"
       x2="127.844"
       y1="0.659988"
       x1="127.844"
       id="paint0_linear">
      <stop
         id="stop51"
         stop-color="white" />
      <stop
         id="stop53"
         stop-opacity="0"
         stop-color="white"
         offset="1" />
    </linearGradient>
  </defs>
</svg>
