<?xml version="1.0" encoding="UTF-8" standalone="no"?>
<svg
   xmlns:dc="http://purl.org/dc/elements/1.1/"
   xmlns:cc="http://creativecommons.org/ns#"
   xmlns:rdf="http://www.w3.org/1999/02/22-rdf-syntax-ns#"
   xmlns:svg="http://www.w3.org/2000/svg"
   xmlns="http://www.w3.org/2000/svg"
   xmlns:sodipodi="http://sodipodi.sourceforge.net/DTD/sodipodi-0.dtd"
   xmlns:inkscape="http://www.inkscape.org/namespaces/inkscape"
   inkscape:export-ydpi="96"
   inkscape:export-xdpi="96"
   inkscape:export-filename="C:\Users\Matt\Downloads\Visus.png"
   sodipodi:docname="vyllian.svg"
   inkscape:version="1.0beta1 (32d4812, 2019-09-19)"
   id="svg8"
   version="1.1"
   viewBox="0 0 264.58333 264.58334"
   height="1000"
   width="1000">
  <defs
     id="defs2" />
  <sodipodi:namedview
     inkscape:document-rotation="0"
     inkscape:window-maximized="0"
     inkscape:window-y="23"
     inkscape:window-x="0"
     inkscape:window-height="907"
     inkscape:window-width="1600"
     units="px"
     showgrid="false"
     inkscape:current-layer="layer1"
     inkscape:document-units="mm"
     inkscape:cy="560"
     inkscape:cx="400"
     inkscape:zoom="0.35"
     inkscape:pageshadow="2"
     inkscape:pageopacity="0"
     borderopacity="1.0"
     bordercolor="#666666"
     pagecolor="#595959"
     id="base" />
  <metadata
     id="metadata5">
    <rdf:RDF>
      <cc:Work
         rdf:about="">
        <dc:format>image/svg+xml</dc:format>
        <dc:type
           rdf:resource="http://purl.org/dc/dcmitype/StillImage" />
        <dc:title />
      </cc:Work>
    </rdf:RDF>
  </metadata>
  <g
     transform="translate(0,-32.41665)"
     id="layer1"
     inkscape:groupmode="layer"
     inkscape:label="Layer 1">
    <path
       inkscape:connector-curvature="0"
       id="path3697"
       d="m 128.17313,287.31077 -4.15689,-8.90635 50.57047,-108.42551 c 27.81376,-59.63404 50.61393,-108.469966 50.66705,-108.524232 0.1055,-0.107778 19.70896,-6.909883 19.7618,-6.857044 0.0295,0.02955 -112.12957,240.560166 -112.51812,241.300516 -0.1659,0.31626 -0.20277,0.24328 -4.32431,-8.58738 z M 83.248151,191.0928 C 65.480303,153.037 50.967213,121.83871 50.996858,121.76322 51.049608,121.62892 204.43847,68.52489 204.9836,68.452231 c 0.22803,-0.03042 0.26309,-9.85e-4 0.19944,0.167815 -0.40222,1.065697 -89.40678,191.665114 -89.50221,191.665114 -0.0701,0 -14.66483,-31.13657 -32.432679,-69.19235 z M 45.547737,110.24348 C 45.331242,109.91239 19.525603,54.640917 19.567811,54.598707 c 0.07773,-0.07773 93.703369,32.360213 93.705089,32.465492 10e-4,0.09316 -67.216794,23.431001 -67.486752,23.431001 -0.0406,0 -0.14789,-0.11329 -0.238411,-0.25172 z"
       style="fill:#ffffff;stroke-width:0.111867" />
  </g>
</svg>
