<?xml version="1.0" encoding="UTF-8" standalone="no"?>
<!-- Created with Inkscape (http://www.inkscape.org/) -->

<svg
   xmlns:dc="http://purl.org/dc/elements/1.1/"
   xmlns:cc="http://creativecommons.org/ns#"
   xmlns:rdf="http://www.w3.org/1999/02/22-rdf-syntax-ns#"
   xmlns:svg="http://www.w3.org/2000/svg"
   xmlns="http://www.w3.org/2000/svg"
   xmlns:sodipodi="http://sodipodi.sourceforge.net/DTD/sodipodi-0.dtd"
   xmlns:inkscape="http://www.inkscape.org/namespaces/inkscape"
   width="500"
   height="500"
   viewBox="0 0 500.00001 500.00001"
   id="svg2"
   version="1.1"
   inkscape:version="0.91 r13725"
   sodipodi:docname="YouTube.svg">
  <defs
     id="defs4" />
  <sodipodi:namedview
     id="base"
     pagecolor="#ffffff"
     bordercolor="#666666"
     borderopacity="1.0"
     inkscape:pageopacity="0.0"
     inkscape:pageshadow="2"
     inkscape:zoom="1.1395821"
     inkscape:cx="303.85301"
     inkscape:cy="190.25482"
     inkscape:document-units="px"
     inkscape:current-layer="layer1"
     showgrid="false"
     units="px"
     inkscape:window-width="1920"
     inkscape:window-height="1029"
     inkscape:window-x="0"
     inkscape:window-y="25"
     inkscape:window-maximized="1" />
  <metadata
     id="metadata7">
    <rdf:RDF>
      <cc:Work
         rdf:about="">
        <dc:format>image/svg+xml</dc:format>
        <dc:type
           rdf:resource="http://purl.org/dc/dcmitype/StillImage" />
        <dc:title></dc:title>
      </cc:Work>
    </rdf:RDF>
  </metadata>
  <g
     inkscape:label="Layer 1"
     inkscape:groupmode="layer"
     id="layer1"
     transform="translate(0,-552.36213)">
    <path
       style="fill:#d12121"
       d="m 211.29353,967.64746 c -77.80448,-1.48622 -109.38421,-2.79849 -128.694998,-5.34797 -14.161471,-1.86955 -21.115983,-3.69227 -28.95966,-7.58979 -12.95476,-6.4372 -21.011548,-15.41341 -26.826001,-29.88732 -5.315944,-13.23293 -7.480426,-23.74311 -9.466949,-45.96925 -2.241798,-25.08222 -2.416939,-29.62307 -2.649826,-68.7031 -0.273873,-45.95818 0.277161,-61.0183 3.34876,-91.5229 1.610281,-15.99201 3.957377,-26.62016 8.367614,-37.8905 4.016303,-10.26365 7.683254,-15.92819 14.351973,-22.17031 8.381326,-7.84516 17.586236,-12.61422 29.206402,-15.13183 17.34459,-3.75784 95.739395,-6.65527 180.069575,-6.65527 84.33019,0 162.72499,2.89743 180.06958,6.65527 12.54358,2.71767 21.74955,7.73736 30.73191,16.75695 7.03012,7.05928 10.65092,13.47392 14.9599,26.50313 4.43993,13.42513 6.14268,25.30629 8.6656,60.46529 1.19806,16.69645 1.19774,93.55585 0,110.24409 -1.40176,19.52272 -3.12189,36.90813 -4.26727,43.12898 -2.94472,15.99352 -8.72801,30.96776 -15.24857,39.4817 -4.4736,5.84118 -13.3048,12.80104 -20.68949,16.30542 -7.47766,3.54848 -14.60211,5.30779 -26.08736,6.44207 -35.58981,3.51494 -144.26943,6.08135 -206.88069,4.88534 z m 46.04879,-133.32651 c 71.26283,-36.95828 69.7306,-36.14767 69.7306,-36.88969 0,-0.69448 -124.73573,-66.03289 -125.34393,-65.657 -0.4111,0.25407 -0.48778,130.41498 -0.077,130.82569 0.15164,0.15162 0.58337,0.15766 0.95938,0.0133 0.37603,-0.14428 25.00498,-12.87587 54.73102,-28.29238 z"
       id="path3527"
       inkscape:connector-curvature="0" />
  </g>
</svg>
