<?xml version="1.0" encoding="UTF-8" standalone="no"?>
<svg
   width="500"
   height="500"
   version="1.1"
   viewBox="0 0 500 500"
   id="svg136"
   xmlns="http://www.w3.org/2000/svg">
  <defs
     id="defs140" />
  <rect
     style="fill:#ffffff;stroke:#ffffff"
     id="rect415"
     width="247.37738"
     height="247.37738"
     x="126.31131"
     y="126.31131" />
  <g
     transform="translate(0,-552.36213)"
     id="g134">
    <path
       d="M 209.00916,977.40223 C 126.61283,975.8283 93.169336,974.43858 72.718868,971.73864 57.721618,969.75875 50.356666,967.82846 42.050073,963.70092 28.330752,956.88381 19.79847,947.37784 13.640861,932.04971 8.0111815,918.0358 5.7189565,906.90534 3.6151933,883.36746 1.2410894,856.80494 1.0556119,851.9961 0.80898047,810.60965 0.51894409,761.93912 1.1024989,745.99019 4.3553769,713.68528 c 1.7053162,-16.93583 4.1909326,-28.19123 8.8614521,-40.12672 4.253336,-10.86939 8.136703,-16.86823 15.198995,-23.47875 8.875973,-8.30816 18.624136,-13.35868 30.930099,-16.02488 18.368229,-3.97962 101.389727,-7.04805 190.696887,-7.04805 89.30717,0 172.32865,3.06843 190.69688,7.04805 13.28388,2.87806 23.03316,8.194 32.54564,17.74591 7.44503,7.4759 11.27952,14.26912 15.8428,28.06729 4.70197,14.21745 6.50521,26.79981 9.17703,64.03381 1.26876,17.68184 1.26843,99.07731 0,116.75046 -1.48449,20.6749 -3.30614,39.08636 -4.51912,45.67435 -3.11851,16.93743 -9.24311,32.79541 -16.1485,41.81183 -4.73763,6.18591 -14.09002,13.55652 -21.91054,17.26773 -7.91898,3.7579 -15.4639,5.62104 -27.62698,6.82226 -37.69024,3.72239 -152.78389,6.44026 -219.09033,5.17366 z m 48.76649,-141.19514 c 75.4686,-39.13948 73.84594,-38.28103 73.84594,-39.06684 0,-0.73547 -132.09735,-69.93 -132.74145,-69.53193 -0.43536,0.26906 -0.51657,138.11178 -0.0815,138.54673 0.16059,0.16057 0.6178,0.16697 1.016,0.0141 0.39822,-0.1528 26.48072,-13.63578 57.96112,-29.96214 z"
       style="fill:#d12121;stroke-width:1.05902"
       id="path132" />
  </g>
</svg>
