<?xml version="1.0" standalone="no"?>
<!DOCTYPE svg PUBLIC "-//W3C//DTD SVG 20010904//EN"
 "http://www.w3.org/TR/2001/REC-SVG-20010904/DTD/svg10.dtd">
<svg version="1.0" xmlns="http://www.w3.org/2000/svg"
 width="700.000000pt" height="700.000000pt" viewBox="0 0 700.000000 700.000000"
 preserveAspectRatio="xMidYMid meet">
<metadata>
Created by potrace 1.11, written by Peter Selinger 2001-2013
</metadata>
<g transform="translate(0.000000,700.000000) scale(0.100000,-0.100000)"
fill="#000000" stroke="none">
<path d="M2479 6318 c-3 -6 -7 -488 -10 -1120 -2 -588 -4 -658 -18 -659 -34
-2 -1065 -8 -1408 -8 l-361 -1 -1 -1919 0 -1919 27 -5 c15 -3 879 -6 1920 -5
1426 0 1894 3 1897 11 2 7 6 404 8 883 2 479 7 875 10 881 4 6 256 11 664 12
362 2 759 4 883 5 l225 1 3 1923 2 1922 -1920 0 c-1056 0 -1921 -1 -1921 -2z
m3597 -1925 l-1 -1677 -762 0 c-419 -1 -765 3 -769 7 -5 4 -10 412 -12 905 -2
493 -5 898 -5 899 -1 1 -403 3 -893 6 -490 2 -895 6 -900 10 -7 4 -11 1422 -5
1515 1 10 339 12 1674 12 l1674 0 -1 -1677z m-3615 -122 c3 0 7 -283 8 -628 4
-1037 5 -1163 11 -1164 11 -3 523 -8 1148 -10 358 -2 653 -5 653 -8 1 -3 2
-349 3 -768 1 -527 -1 -763 -8 -764 -38 -5 -3243 -4 -3287 1 l-54 5 -1 1665
c0 916 0 1667 2 1670 2 5 1506 6 1525 1z m1819 0 c9 -2 6 -1539 -3 -1547 -9
-9 -1462 -13 -1517 -4 l-34 5 -1 760 c0 418 1 767 3 775 3 14 90 15 775 14
425 -1 774 -2 777 -3z"/>
</g>
</svg>
