<?xml version="1.0" standalone="no"?>
<!DOCTYPE svg PUBLIC "-//W3C//DTD SVG 20010904//EN"
 "http://www.w3.org/TR/2001/REC-SVG-20010904/DTD/svg10.dtd">
<svg version="1.0" xmlns="http://www.w3.org/2000/svg"
 width="700.000000pt" height="700.000000pt" viewBox="0 0 700.000000 700.000000"
 preserveAspectRatio="xMidYMid meet">
<metadata>
Created by potrace 1.11, written by Peter Selinger 2001-2013
</metadata>
<g transform="translate(0.000000,700.000000) scale(0.100000,-0.100000)"
fill="#000000" stroke="none">
<path d="M437 6732 c-3 -6 -2 -6463 2 -6470 1 -2 118 118 268 274 52 54 237
252 323 344 28 31 134 143 357 380 33 36 78 83 98 105 21 22 95 101 165 175
70 74 144 153 165 175 20 22 87 93 149 159 61 65 122 130 135 145 29 32 111
119 297 316 78 83 158 168 179 190 20 22 87 94 150 160 62 66 127 136 145 155
18 19 87 93 154 164 66 71 136 146 154 165 96 103 143 151 150 152 4 0 83 2
176 2 l169 2 62 -65 c35 -36 80 -84 102 -107 21 -22 90 -96 153 -163 63 -68
126 -134 139 -149 13 -14 81 -87 152 -161 70 -74 139 -148 154 -165 15 -16 57
-62 94 -100 36 -39 125 -133 196 -209 72 -76 146 -155 165 -176 19 -20 87 -92
150 -160 63 -68 131 -140 150 -160 19 -20 89 -94 155 -164 66 -71 142 -151
169 -180 88 -93 271 -288 295 -315 13 -14 83 -89 155 -165 72 -76 147 -156
166 -176 19 -21 105 -111 190 -200 85 -90 174 -183 198 -208 23 -25 43 -44 43
-41 4 10 5 6479 1 6479 -2 0 -24 -21 -49 -47 -25 -27 -93 -98 -152 -159 -58
-60 -140 -146 -181 -190 -41 -44 -134 -143 -206 -220 -73 -76 -146 -155 -164
-174 -17 -19 -85 -91 -150 -160 -65 -69 -132 -141 -150 -160 -18 -19 -91 -98
-164 -174 -165 -176 -166 -177 -311 -331 -66 -71 -129 -138 -140 -149 -11 -12
-83 -89 -160 -171 -77 -82 -147 -157 -155 -166 -25 -26 -281 -300 -345 -368
-33 -35 -80 -85 -105 -111 -25 -26 -97 -103 -160 -171 -63 -68 -131 -140 -150
-160 -19 -20 -58 -62 -87 -93 l-52 -56 -181 0 -181 0 -25 27 c-14 16 -51 55
-82 88 -32 33 -118 125 -192 205 -74 79 -144 154 -155 166 -11 11 -81 85 -155
165 -204 217 -269 286 -352 374 -42 44 -90 96 -108 115 -97 105 -248 266 -515
550 -44 47 -101 107 -125 134 -25 26 -70 74 -100 106 -30 31 -82 86 -115 121
-33 35 -121 129 -196 209 -76 80 -151 161 -169 180 -18 19 -88 94 -155 165
-68 72 -144 153 -170 180 -139 148 -265 274 -268 267z"/>
</g>
</svg>
