<?xml version="1.0" standalone="no"?>
<!DOCTYPE svg PUBLIC "-//W3C//DTD SVG 20010904//EN"
 "http://www.w3.org/TR/2001/REC-SVG-20010904/DTD/svg10.dtd">
<svg version="1.0" xmlns="http://www.w3.org/2000/svg"
 width="3000.000000pt" height="3000.000000pt" viewBox="0 0 3000.000000 3000.000000"
 preserveAspectRatio="xMidYMid meet">
<metadata>
Created by potrace 1.11, written by Peter Selinger 2001-2013
</metadata>
<g transform="translate(0.000000,3000.000000) scale(0.100000,-0.100000)"
fill="#000000" stroke="none">
<path d="M0 15000 l0 -15000 15000 0 15000 0 0 15000 0 15000 -15000 0 -15000
0 0 -15000z m10278 4943 l4213 -4493 514 0 514 0 4213 4493 c2317 2470 4232
4512 4255 4537 l42 45 1 -4537 0 -4538 -4255 0 -4255 0 0 -455 0 -455 4255 0
4255 0 0 -4537 -1 -4538 -37 40 c-20 22 -1935 2064 -4255 4538 l-4218 4497
-514 0 -514 0 -4253 -4534 -4253 -4535 -3 4531 c-1 2492 -1 4533 1 4535 2 1
593 3 1313 3 l1309 0 0 105 c0 58 -4 105 -8 105 -5 0 -5 5 -1 12 11 17 11 488
1 488 -5 0 -5 5 -1 12 11 18 12 81 2 102 -7 12 -7 16 0 12 6 -4 10 2 9 14 -1
11 -4 20 -8 20 -4 0 -5 9 -2 20 5 20 0 20 -1306 20 l-1311 0 0 4538 1 4537 42
-45 c23 -25 1938 -2067 4255 -4537z"/>
<path d="M9334 15425 c3 -14 0 -25 -5 -25 -6 0 -7 -5 -3 -11 4 -6 6 -75 4
-153 -5 -300 -6 -672 -2 -683 3 -10 528 -13 2578 -13 l2574 0 0 455 0 455
-2575 0 -2575 0 4 -25z"/>
</g>
</svg>
