<?xml version="1.0" encoding="UTF-8" standalone="no"?>
<!-- Created with Inkscape (http://www.inkscape.org/) -->

<svg
   xmlns:dc="http://purl.org/dc/elements/1.1/"
   xmlns:cc="http://creativecommons.org/ns#"
   xmlns:rdf="http://www.w3.org/1999/02/22-rdf-syntax-ns#"
   xmlns:svg="http://www.w3.org/2000/svg"
   xmlns="http://www.w3.org/2000/svg"
   xmlns:sodipodi="http://sodipodi.sourceforge.net/DTD/sodipodi-0.dtd"
   xmlns:inkscape="http://www.inkscape.org/namespaces/inkscape"
   width="250"
   height="250"
   viewBox="0 0 66.145832 66.145835"
   version="1.1"
   id="svg8"
   inkscape:version="0.92.2 5c3e80d, 2017-08-06"
   sodipodi:docname="aspc.svg">
  <defs
     id="defs2" />
  <sodipodi:namedview
     id="base"
     pagecolor="#919191"
     bordercolor="#666666"
     borderopacity="1.0"
     inkscape:pageopacity="0"
     inkscape:pageshadow="2"
     inkscape:zoom="0.7"
     inkscape:cx="321.24799"
     inkscape:cy="107.43657"
     inkscape:document-units="mm"
     inkscape:current-layer="layer1"
     showgrid="false"
     units="px"
     inkscape:window-width="1920"
     inkscape:window-height="1081"
     inkscape:window-x="0"
     inkscape:window-y="1"
     inkscape:window-maximized="1" />
  <metadata
     id="metadata5">
    <rdf:RDF>
      <cc:Work
         rdf:about="">
        <dc:format>image/svg+xml</dc:format>
        <dc:type
           rdf:resource="http://purl.org/dc/dcmitype/StillImage" />
        <dc:title></dc:title>
      </cc:Work>
    </rdf:RDF>
  </metadata>
  <g
     inkscape:label="Layer 1"
     inkscape:groupmode="layer"
     id="layer1"
     transform="translate(0,-230.85415)">
    <g
       id="g1017"
       transform="matrix(0.2784152,0,0,0.2784152,48.25475,194.48272)">
      <path
         inkscape:connector-curvature="0"
         id="path1007"
         d="m -64.578495,330.2176 c -15.473043,-1.84353 -29.832499,-7.8982 -42.201045,-17.79408 -2.85175,-2.28165 -9.15648,-8.44682 -10.80683,-10.56762 -1.24097,-1.59473 -1.42919,-2.80973 -0.63501,-4.0992 0.46591,-0.75647 9.49454,-6.22968 11.44193,-6.93616 1.61321,-0.58525 2.19587,-0.26491 5.50417,3.02616 7.664203,7.62429 15.815465,12.75109 25.451993,16.00823 7.075448,2.3915 13.075423,3.37179 20.6375,3.37179 13.244376,0 25.115598,-3.6043 36.115626,-10.9653 3.594029,-2.40505 5.739519,-4.18308 9.5520093,-7.91604 3.92784,-3.84589 4.55918,-4.18726 6.31095,-3.41237 1.83016,0.80957 10.01791,5.61395 10.79052,6.33163 0.93244,0.86615 1.1566,2.0636 0.62462,3.33679 -0.50534,1.20944 -8.81393998,9.59365 -12.06456,12.17435 -12.4181603,9.85888 -27.5850013,16.01673 -43.3535513,17.60187 -3.81389,0.3834 -13.560987,0.29357 -17.368322,-0.16005 z"
         style="fill:#006680;fill-opacity:1;stroke-width:0.26458335" />
      <path
         inkscape:connector-curvature="0"
         id="path1005"
         d="m -46.019945,297.30161 c -0.415819,-0.12102 -0.993556,-0.43499 -1.283859,-0.69772 -1.113007,-1.00725 -1.267399,-1.72792 -1.267399,-5.9159 0,-5.6885 0.148455,-5.93666 4.347874,-7.26815 5.366367,-1.70149 10.411921,-4.86397 14.522495,-9.10249 4.747861,-4.89564 7.716047,-10.40878 9.341351,-17.35071 0.754335,-3.22189 0.696851,-11.76653 -0.101606,-15.1034 -0.946938,-3.95739 -0.784862,-4.20961 4.725897,-7.35403 3.38868,-1.93357 4.46361,-2.15735 5.9651003,-1.24179 0.99232,0.60508 1.63553,2.15267 2.42715,5.83984 1.81439,8.45098 1.34906,17.70561 -1.29258,25.70754 -2.6350303,7.98191 -8.2993703,16.48265 -14.5162263,21.78517 -6.299253,5.3728 -14.237618,9.36629 -21.450705,10.79103 -0.363802,0.0719 -1.001673,0.0316 -1.417492,-0.0894 z"
         style="fill:#338000;fill-opacity:1;stroke-width:0.26458335" />
      <path
         inkscape:connector-curvature="0"
         id="path1003"
         d="m -68.565353,296.65586 c -8.363501,-2.47432 -15.880901,-7.04588 -21.813201,-13.26528 -7.845573,-8.22527 -12.449006,-18.45511 -13.498146,-29.99582 -0.4847,-5.33182 0.27676,-12.59758 1.81027,-17.27326 0.58759,-1.79158 0.86674,-2.27116 1.60987,-2.76582 1.515134,-1.00852 2.413813,-0.81852 6.109505,1.29171 1.820624,1.03957 3.574661,2.12864 3.89786,2.42016 1.122275,1.01225 1.22731,1.9874 0.553199,5.13594 -0.524743,2.4509 -0.608277,3.5713 -0.58782,7.88398 0.02233,4.7092 0.07454,5.21961 0.825498,8.0717 1.858264,7.05756 4.981125,12.38463 10.135865,17.29003 3.83762,3.65199 8.302625,6.3155 13.356458,7.96752 4.332438,1.41621 4.363304,1.4665 4.364635,7.11201 0.0011,4.64997 -0.218821,5.53999 -1.565463,6.33547 -1.035042,0.61141 -2.645883,0.54686 -5.19853,-0.20834 z"
         style="fill:#668000;fill-opacity:1;stroke-width:0.26458335" />
      <path
         inkscape:connector-curvature="0"
         id="path1001"
         d="m 18.897548,279.0712 c -0.53965,-0.16909 -8.58255,-4.72977 -10.7706397,-6.10743 -0.3213,-0.2023 -0.79227,-0.75422 -1.04662,-1.22651 -0.52385,-0.97274 -0.5404,-0.86347 1.06051,-7.00441 1.475,-5.65797 1.8736097,-8.99892 1.8736097,-15.70372 0,-6.44518 -0.3640897,-9.70685 -1.6851697,-15.09669 -2.46408,-10.05308 -7.12801,-19.15016 -13.82815,-26.97206 -8.7442403,-10.20821 -20.3748773,-17.42969 -33.2697243,-20.65721 -5.451761,-1.36455 -5.4067,-1.27503 -5.261822,-10.45263 0.07708,-4.88266 0.154077,-5.76233 0.556194,-6.35406 0.965774,-1.42121 2.204587,-1.57975 6.092684,-0.77974 17.840493,3.67082 34.8436883,14.02954 46.4611383,28.30514 17.7062697,21.75758 23.1164197,50.72317 14.4653297,77.44645 -1.07199,3.31138 -1.47148,3.97794 -2.68904,4.48667 -0.97789,0.40859 -1.01758,0.41094 -1.9583,0.1162 z"
         style="fill:#668000;fill-opacity:1;stroke-width:0.26458335" />
      <path
         inkscape:connector-curvature="0"
         id="path999"
         d="m -130.82761,278.3817 c -1.81351,-1.52597 -4.84309,-13.45389 -5.60416,-22.06441 -0.43928,-4.96991 -0.18168,-14.73817 0.50617,-19.19441 2.43699,-15.78807 8.90219,-29.89662 19.16067,-41.81299 11.46133,-13.31361 27.617853,-22.81232 44.999282,-26.45589 3.876289,-0.81257 4.872141,-0.68076 5.751434,0.76126 0.464034,0.76101 0.507785,1.39077 0.508688,7.32219 0.0013,8.061 0.0095,8.04115 -3.703178,8.87217 -4.89268,1.09514 -10.050153,2.99075 -15.009873,5.51683 -16.252123,8.27751 -28.399213,23.32627 -33.253823,41.19741 -2.87284,10.57567 -2.7721,23.35871 0.26732,33.92279 0.98491,3.42324 1.10796,4.79048 0.50822,5.64673 -0.32659,0.46628 -7.97842,5.05274 -10.90548,6.53668 -1.22212,0.61959 -2.29165,0.53723 -3.22527,-0.24836 z"
         style="fill:#aad400;fill-opacity:1;stroke-width:0.26458335" />
      <path
         inkscape:connector-curvature="0"
         id="path997"
         d="m -60.080578,268.21866 c -2.454852,-0.65318 -3.622953,-1.16786 -5.703891,-2.51322 -3.129841,-2.02348 -5.298191,-4.54498 -7.012271,-8.15435 -1.309817,-2.7581 -1.775928,-5.25588 -1.63966,-8.78654 0.194268,-5.03339 1.925114,-8.98698 5.499061,-12.56093 6.012005,-6.012 14.421684,-7.424 22.085928,-3.70826 8.681918,4.20914 12.765198,14.33058 9.53203,23.62756 -0.952098,2.73776 -2.155309,4.57164 -4.637239,7.06788 -2.589898,2.60483 -5.278874,4.17149 -8.631565,5.02897 -2.684685,0.68662 -6.909528,0.68613 -9.492393,-10e-4 z"
         style="fill:#006680;fill-opacity:1;stroke-width:0.26458335" />
      <path
         inkscape:connector-curvature="0"
         id="path979"
         d="m -86.673059,222.69142 c -3.755856,-2.12367 -4.361738,-2.61608 -4.780637,-3.88536 -0.675847,-2.04784 1.507609,-4.73552 7.489341,-9.21885 19.301489,-14.46652 46.20485,-12.66712 63.356515,4.23753 2.525366,2.489 2.911408,3.18915 2.618706,4.7494 -0.23736,1.26523 -1.04806,1.96441 -4.75597,4.10168 -2.735877,1.57698 -3.454308,1.87936 -4.46535,1.87936 -1.287671,0 -1.019389,0.1742 -5.485749,-3.56206 -2.220719,-1.85771 -5.127646,-3.6072 -8.180742,-4.92346 -12.518554,-5.39704 -27.566028,-2.87552 -37.592176,6.29936 -3.147414,2.88018 -3.645696,2.89977 -8.203938,0.3224 z"
         style="fill:#338000;fill-opacity:1;stroke-width:0.26458335" />
    </g>
  </g>
</svg>
