<?xml version="1.0" encoding="UTF-8" standalone="no"?>
<svg
   xmlns:dc="http://purl.org/dc/elements/1.1/"
   xmlns:cc="http://creativecommons.org/ns#"
   xmlns:rdf="http://www.w3.org/1999/02/22-rdf-syntax-ns#"
   xmlns:svg="http://www.w3.org/2000/svg"
   xmlns="http://www.w3.org/2000/svg"
   xmlns:sodipodi="http://sodipodi.sourceforge.net/DTD/sodipodi-0.dtd"
   xmlns:inkscape="http://www.inkscape.org/namespaces/inkscape"
   width="2500"
   height="2283"
   viewBox="51.344 196.683 489.296 446.769"
   version="1.1"
   id="svg4"
   sodipodi:docname="atom.svg"
   inkscape:version="0.92.2 5c3e80d, 2017-08-06">
  <metadata
     id="metadata10">
    <rdf:RDF>
      <cc:Work
         rdf:about="">
        <dc:format>image/svg+xml</dc:format>
        <dc:type
           rdf:resource="http://purl.org/dc/dcmitype/StillImage" />
      </cc:Work>
    </rdf:RDF>
  </metadata>
  <defs
     id="defs8" />
  <sodipodi:namedview
     pagecolor="#ffffff"
     bordercolor="#666666"
     borderopacity="1"
     objecttolerance="10"
     gridtolerance="10"
     guidetolerance="10"
     inkscape:pageopacity="0"
     inkscape:pageshadow="2"
     inkscape:window-width="1291"
     inkscape:window-height="947"
     id="namedview6"
     showgrid="false"
     inkscape:zoom="0.10337276"
     inkscape:cx="1250"
     inkscape:cy="1141.5"
     inkscape:window-x="0"
     inkscape:window-y="0"
     inkscape:window-maximized="0"
     inkscape:current-layer="svg4" />
  <path
     d="m 316.43714,421.0361 c 0,-12.01054 -9.12496,-21.74002 -20.39751,-21.74002 -11.27255,0 -20.39751,9.72948 -20.39751,21.74002 0,12.01055 9.12496,21.74003 20.39751,21.74003 11.27255,0 20.39751,-9.72876 20.39751,-21.74003 z M 185.99769,556.44166 c 2.81777,4.69701 6.57553,8.65604 11.13765,11.40673 9.12495,5.43501 20.5995,5.83755 32.81131,2.34815 12.21182,-3.4894 25.76615,-10.93711 40.46101,-22.07548 3.15323,-2.48233 3.82413,-7.6497 1.34108,-10.80365 -2.48233,-3.22031 -7.58189,-3.89194 -10.80292,-1.40889 -13.62143,10.40039 -25.76615,16.70757 -35.29437,19.45898 -9.52821,2.7514 -16.17084,1.81215 -20.73296,-0.87217 -4.56283,-2.68432 -7.98514,-7.71607 -9.66311,-16.97593 -1.67797,-9.25985 -1.27471,-22.41092 2.28178,-38.71595 4.76411,-21.67293 15.29795,-45.9631 27.9123,-70.32036 19.39188,42.07117 46.0302,87.56465 76.49264,118.56453 12.346,12.34599 24.62562,21.87421 36.50271,27.77885 11.87636,5.83754 23.75272,8.32059 34.55565,4.69701 10.80292,-3.62285 18.05008,-13.01689 21.87349,-24.5578 3.82484,-11.54092 4.7641,-25.76615 3.35521,-41.93699 -2.75068,-32.47659 -14.56068,-73.33942 -35.16018,-115.9473 -1.74434,-3.62286 -6.70971,-5.30083 -10.33257,-3.55649 -3.62358,1.74434 -5.30155,6.70971 -3.55649,10.33329 19.92788,41.33246 31.20115,80.72003 33.75057,110.5123 1.27543,14.89541 0.20127,27.37558 -2.61723,35.89817 -2.81778,8.58823 -6.7768,13.01689 -12.21181,14.82904 -5.43501,1.81143 -13.15107,0.87217 -22.74638,-3.89266 -9.66239,-4.76411 -20.80077,-13.42015 -32.34168,-24.96107 -36.77034,-41.53372 -59.51672,-79.98204 -77.70026,-125.27352 9.12495,-15.83539 18.98862,-30.52954 29.85863,-45.09022 58.57746,-1.27471 121.31522,8.58896 159.62863,28.18139 11.87636,6.03881 20.39751,12.48017 25.56488,18.45262 5.16665,5.97172 7.11225,11.07128 6.84389,15.70121 -0.20127,4.62993 -2.54941,9.32695 -8.25278,14.69486 -5.70337,5.3672 -14.69486,11.07129 -27.10795,15.90249 -3.75776,1.47597 -5.83754,6.24008 -4.36156,10.06421 1.47597,3.75776 6.24008,5.83827 10.06493,4.36157 13.68851,-5.30083 24.28945,-11.60801 32.07332,-18.92153 7.71607,-7.31353 12.41309,-16.03594 12.81563,-25.42998 0.46963,-9.32694 -3.48868,-18.51971 -10.46748,-26.57123 -6.97807,-8.05223 -16.97592,-15.36576 -30.0599,-22.07547 C 392.45943,360.1105 333.88125,350.583 276.91467,350.583 c 15.36576,-18.72098 31.33533,-35.76399 47.3049,-47.9758 13.42016,-10.26621 25.22943,-16.70757 34.75765,-19.45898 9.52749,-2.81849 16.23793,-2.01342 20.80004,0.53672 4.56284,2.54942 8.05224,7.38062 9.86367,16.37212 1.81215,8.9244 1.40961,21.53875 -1.87852,37.44124 -0.87289,3.95903 2.0127,8.32059 5.97101,9.12567 3.95902,0.80508 8.32059,-2.01342 9.12567,-5.97172 3.55649,-17.24429 4.36157,-31.73788 1.94561,-43.68133 -2.41596,-11.94346 -8.45478,-21.60585 -17.57973,-26.7725 -9.12568,-5.16665 -20.46532,-5.43501 -32.61004,-1.87852 -12.07764,3.55649 -25.4307,11.07129 -39.92429,22.07548 -19.99569,15.23158 -39.11922,36.56907 -57.30276,59.7858 -14.02324,0.60381 -26.77249,1.74434 -39.99138,3.75704 -2.07978,-9.72949 -5.16664,-19.19061 -5.83754,-27.57758 -1.27543,-14.89613 -0.20127,-27.3763 2.6165,-35.89817 2.8185,-8.58895 6.77753,-13.01689 12.21254,-14.82904 8.45478,-2.88559 23.954,1.67725 42.80916,17.24428 2.88559,3.35522 8.9244,3.35522 11.74218,-0.0671 2.88487,-3.42231 1.81215,-9.32695 -2.0127,-11.608 -20.66659,-17.64682 -40.39392,-26.23578 -57.43693,-20.53169 -10.80292,3.62285 -18.05008,13.01689 -21.87421,24.62489 -3.82485,11.54164 -4.7641,25.76615 -3.35449,41.93699 0.73798,8.79023 3.28812,18.65389 5.435,28.58465 -29.32191,5.83755 -71.72925,21.47167 -80.78712,46.83528 -3.22104,10.19911 -0.80508,21.20331 6.10591,30.73152 6.91171,9.52822 18.18426,18.11645 33.34875,25.83324 3.62286,2.34887 9.19277,0.87217 11.07129,-3.01977 1.94561,-3.89194 -0.20055,-9.19204 -4.29376,-10.66874 -13.75488,-7.04517 -22.94837,-14.4936 -27.71175,-21.13622 -4.76411,-6.57554 -5.43501,-11.60801 -3.75776,-17.04302 10.80292,-18.92153 40.12484,-31.26824 68.77657,-36.03235 3.22104,12.01055 8.05152,25.69906 13.08471,38.64886 -16.10375,29.18774 -28.9201,58.37619 -34.82401,85.48414 -3.89266,17.64754 -4.69774,32.54295 -2.48305,44.75549 1.07416,6.03737 3.6243,11.60584 5.7719,16.23577 z m 41.80208,-164.6611 c -2.68432,-7.64898 -5.435,-15.23158 -7.4477,-22.47802 8.25278,-1.20762 16.03594,-2.48233 24.75907,-3.08614 -6.03881,8.52115 -11.87636,16.64047 -17.37846,25.56488 h 0.0671 z"
     id="path2"
     inkscape:connector-curvature="0"
     style="fill:#67595d;stroke-width:0.72139728" />
</svg>
