<?xml version="1.0" encoding="UTF-8" standalone="no"?>
<svg
   xmlns:dc="http://purl.org/dc/elements/1.1/"
   xmlns:cc="http://creativecommons.org/ns#"
   xmlns:rdf="http://www.w3.org/1999/02/22-rdf-syntax-ns#"
   xmlns:svg="http://www.w3.org/2000/svg"
   xmlns="http://www.w3.org/2000/svg"
   xmlns:sodipodi="http://sodipodi.sourceforge.net/DTD/sodipodi-0.dtd"
   xmlns:inkscape="http://www.inkscape.org/namespaces/inkscape"
   version="1.0"
   width="700.000000pt"
   height="700.000000pt"
   viewBox="0 0 700.000000 700.000000"
   preserveAspectRatio="xMidYMid meet"
   id="svg8"
   sodipodi:docname="bp-backend.svg"
   inkscape:version="0.92.2 5c3e80d, 2017-08-06">
  <defs
     id="defs12" />
  <sodipodi:namedview
     pagecolor="#ffffff"
     bordercolor="#666666"
     borderopacity="1"
     objecttolerance="10"
     gridtolerance="10"
     guidetolerance="10"
     inkscape:pageopacity="0"
     inkscape:pageshadow="2"
     inkscape:window-width="1920"
     inkscape:window-height="1081"
     id="namedview10"
     showgrid="false"
     inkscape:zoom="2.0228571"
     inkscape:cx="571.7915"
     inkscape:cy="551.2668"
     inkscape:window-x="0"
     inkscape:window-y="1"
     inkscape:window-maximized="1"
     inkscape:current-layer="svg8" />
  <metadata
     id="metadata2">
Created by potrace 1.11, written by Peter Selinger 2001-2013
<rdf:RDF>
  <cc:Work
     rdf:about="">
    <dc:format>image/svg+xml</dc:format>
    <dc:type
       rdf:resource="http://purl.org/dc/dcmitype/StillImage" />
  </cc:Work>
</rdf:RDF>
</metadata>
  <g
     transform="matrix(0.0709848,0,0,-0.0709848,101.56768,598.42065)"
     id="g6"
     style="fill:#000000;stroke:none">
    <path
       d="m 2479,6318 c -3,-6 -7,-488 -10,-1120 -2,-588 -4,-658 -18,-659 -34,-2 -1065,-8 -1408,-8 l -361,-1 -1,-1919 V 692 l 27,-5 c 15,-3 879,-6 1920,-5 1426,0 1894,3 1897,11 2,7 6,404 8,883 2,479 7,875 10,881 4,6 256,11 664,12 362,2 759,4 883,5 l 225,1 3,1923 2,1922 H 4400 c -1056,0 -1921,-1 -1921,-2 z m -18,-2047 c 3,0 7,-283 8,-628 4,-1037 5,-1163 11,-1164 11,-3 523,-8 1148,-10 358,-2 653,-5 653,-8 1,-3 2,-349 3,-768 1,-527 -1,-763 -8,-764 -38,-5 -3243,-4 -3287,1 l -54,5 -1,1665 c 0,916 0,1667 2,1670 2,5 1506,6 1525,1 z m 1819,0 c 9,-2 6,-1539 -3,-1547 -9,-9 -1462,-13 -1517,-4 l -34,5 -1,760 c 0,418 1,767 3,775 3,14 90,15 775,14 425,-1 774,-2 777,-3 z"
       id="path4"
       inkscape:connector-curvature="0"
       sodipodi:nodetypes="ccccccccccsccccccsccccccccccccccccccccc" />
  </g>
</svg>
