<?xml version="1.0" encoding="UTF-8" standalone="no"?>
<svg
   xmlns:dc="http://purl.org/dc/elements/1.1/"
   xmlns:cc="http://creativecommons.org/ns#"
   xmlns:rdf="http://www.w3.org/1999/02/22-rdf-syntax-ns#"
   xmlns:svg="http://www.w3.org/2000/svg"
   xmlns="http://www.w3.org/2000/svg"
   xmlns:sodipodi="http://sodipodi.sourceforge.net/DTD/sodipodi-0.dtd"
   xmlns:inkscape="http://www.inkscape.org/namespaces/inkscape"
   version="1.0"
   width="700.000000pt"
   height="700.000000pt"
   viewBox="0 0 700.000000 700.000000"
   preserveAspectRatio="xMidYMid meet"
   id="svg8"
   sodipodi:docname="bp-frontend.svg"
   inkscape:version="0.92.2 5c3e80d, 2017-08-06">
  <defs
     id="defs12" />
  <sodipodi:namedview
     pagecolor="#ffffff"
     bordercolor="#666666"
     borderopacity="1"
     objecttolerance="10"
     gridtolerance="10"
     guidetolerance="10"
     inkscape:pageopacity="0"
     inkscape:pageshadow="2"
     inkscape:window-width="1920"
     inkscape:window-height="1081"
     id="namedview10"
     showgrid="false"
     inkscape:zoom="0.715188"
     inkscape:cx="550.67146"
     inkscape:cy="455.5502"
     inkscape:window-x="0"
     inkscape:window-y="1"
     inkscape:window-maximized="1"
     inkscape:current-layer="svg8" />
  <metadata
     id="metadata2">
Created by potrace 1.11, written by Peter Selinger 2001-2013
<rdf:RDF>
  <cc:Work
     rdf:about="">
    <dc:format>image/svg+xml</dc:format>
    <dc:type
       rdf:resource="http://purl.org/dc/dcmitype/StillImage" />
  </cc:Work>
</rdf:RDF>
</metadata>
  <g
     transform="matrix(0.0709848,0,0,-0.0709848,101.56768,598.42065)"
     id="g6"
     style="fill:#000000;stroke:none">
    <path
       d="m 2479,6318 c -3,-6 -7,-488 -10,-1120 -2,-588 -4,-658 -18,-659 -34,-2 -1065,-8 -1408,-8 l -361,-1 -1,-1919 V 692 l 27,-5 c 15,-3 879,-6 1920,-5 1426,0 1894,3 1897,11 2,7 6,404 8,883 2,479 7,875 10,881 4,6 256,11 664,12 362,2 759,4 883,5 l 225,1 3,1923 2,1922 H 4400 c -1056,0 -1921,-1 -1921,-2 z m 3597,-1925 -1,-1677 h -762 c -419,-1 -765,3 -769,7 -5,4 -10,412 -12,905 -2,493 -5,898 -5,899 -1,1 -403,3 -893,6 -490,2 -895,6 -900,10 -7,4 -11,1422 -5,1515 1,10 339,12 1674,12 H 6077 Z M 4280,4271 c 9,-2 6,-1539 -3,-1547 -9,-9 -1462,-13 -1517,-4 l -34,5 -1,760 c 0,418 1,767 3,775 3,14 90,15 775,14 425,-1 774,-2 777,-3 z"
       id="path4"
       inkscape:connector-curvature="0"
       sodipodi:nodetypes="ccccccccccsccccccscccccsccccscccccccccc" />
  </g>
</svg>
