<?xml version="1.0" encoding="UTF-8" standalone="no"?>
<!-- Created with Inkscape (http://www.inkscape.org/) -->

<svg
   xmlns:dc="http://purl.org/dc/elements/1.1/"
   xmlns:cc="http://creativecommons.org/ns#"
   xmlns:rdf="http://www.w3.org/1999/02/22-rdf-syntax-ns#"
   xmlns:svg="http://www.w3.org/2000/svg"
   xmlns="http://www.w3.org/2000/svg"
   xmlns:sodipodi="http://sodipodi.sourceforge.net/DTD/sodipodi-0.dtd"
   xmlns:inkscape="http://www.inkscape.org/namespaces/inkscape"
   width="250"
   height="250"
   viewBox="0 0 66.145832 66.145835"
   version="1.1"
   id="svg8"
   inkscape:version="0.92.2 5c3e80d, 2017-08-06"
   sodipodi:docname="Chrome-Theme-Minimal-Grey.svg">
  <defs
     id="defs2" />
  <sodipodi:namedview
     id="base"
     pagecolor="#9e9e9e"
     bordercolor="#666666"
     borderopacity="1.0"
     inkscape:pageopacity="0"
     inkscape:pageshadow="2"
     inkscape:zoom="1.979899"
     inkscape:cx="19.186696"
     inkscape:cy="98.597822"
     inkscape:document-units="mm"
     inkscape:current-layer="layer1"
     showgrid="false"
     units="px"
     inkscape:window-width="1920"
     inkscape:window-height="1081"
     inkscape:window-x="0"
     inkscape:window-y="1"
     inkscape:window-maximized="1" />
  <metadata
     id="metadata5">
    <rdf:RDF>
      <cc:Work
         rdf:about="">
        <dc:format>image/svg+xml</dc:format>
        <dc:type
           rdf:resource="http://purl.org/dc/dcmitype/StillImage" />
        <dc:title />
      </cc:Work>
    </rdf:RDF>
  </metadata>
  <g
     inkscape:label="Layer 1"
     inkscape:groupmode="layer"
     id="layer1"
     transform="translate(0,-230.85415)">
    <path
       style="opacity:1;fill:#bfbfbf;fill-opacity:1;stroke:none;stroke-width:0.08117914;stroke-miterlimit:4;stroke-dasharray:none;stroke-opacity:1"
       d="m 33.072127,251.6274 c -0.348942,0 -0.69682,0.10189 -1.081332,0.30758 -0.951525,0.50925 -1.082923,1.13366 -1.082923,5.1609 v 4.58059 h -4.580597 c -4.027217,0 -4.651664,0.13163 -5.160901,1.08291 -0.411569,0.76905 -0.411569,1.3952 0,2.16425 0.509237,0.95151 1.133684,1.08292 5.160901,1.08292 h 4.580597 v 4.57267 c 0,3.78451 0.162829,4.66952 0.946567,5.12603 1.188242,0.69209 1.089634,0.69028 2.335483,0.0246 0.908387,-0.48616 1.048039,-1.16657 1.048039,-5.1419 v -4.58059 h 4.58059 c 4.027224,0 4.651662,-0.13131 5.160908,-1.08291 0.411569,-0.76904 0.411569,-1.3952 0,-2.16424 -0.509246,-0.95151 -1.133684,-1.08291 -5.160908,-1.08291 h -4.58059 v -4.58137 c 0,-4.02723 -0.13138,-4.65165 -1.08292,-5.16091 -0.384515,-0.20587 -0.733982,-0.30758 -1.082914,-0.30758 z"
       id="rect882"
       inkscape:connector-curvature="0" />
  </g>
</svg>
