<?xml version="1.0" encoding="UTF-8" standalone="no"?>
<!-- Created with Inkscape (http://www.inkscape.org/) -->

<svg
   xmlns:dc="http://purl.org/dc/elements/1.1/"
   xmlns:cc="http://creativecommons.org/ns#"
   xmlns:rdf="http://www.w3.org/1999/02/22-rdf-syntax-ns#"
   xmlns:svg="http://www.w3.org/2000/svg"
   xmlns="http://www.w3.org/2000/svg"
   xmlns:sodipodi="http://sodipodi.sourceforge.net/DTD/sodipodi-0.dtd"
   xmlns:inkscape="http://www.inkscape.org/namespaces/inkscape"
   width="250"
   height="250"
   viewBox="0 0 66.145832 66.145835"
   version="1.1"
   id="svg8"
   inkscape:version="0.92.2 5c3e80d, 2017-08-06"
   sodipodi:docname="dots.svg">
  <defs
     id="defs2" />
  <sodipodi:namedview
     id="base"
     pagecolor="#b2b2b2"
     bordercolor="#666666"
     borderopacity="1.0"
     inkscape:pageopacity="0"
     inkscape:pageshadow="2"
     inkscape:zoom="2.8"
     inkscape:cx="156.10428"
     inkscape:cy="112.58128"
     inkscape:document-units="mm"
     inkscape:current-layer="layer1"
     showgrid="false"
     units="px"
     inkscape:window-width="1920"
     inkscape:window-height="1081"
     inkscape:window-x="0"
     inkscape:window-y="1"
     inkscape:window-maximized="1" />
  <metadata
     id="metadata5">
    <rdf:RDF>
      <cc:Work
         rdf:about="">
        <dc:format>image/svg+xml</dc:format>
        <dc:type
           rdf:resource="http://purl.org/dc/dcmitype/StillImage" />
        <dc:title></dc:title>
      </cc:Work>
    </rdf:RDF>
  </metadata>
  <g
     inkscape:label="Layer 1"
     inkscape:groupmode="layer"
     id="layer1"
     transform="translate(0,-230.85415)">
    <path
       style="fill:#180606;stroke-width:0.13590869"
       d="m 21.088602,280.41452 c -0.162865,-0.0787 -0.366179,-0.31229 -0.451805,-0.51902 -0.132612,-0.32014 -0.106022,-0.47386 0.179401,-1.03711 0.537308,-1.06033 1.585439,-1.93579 3.364151,-2.80995 0.864848,-0.42503 1.659913,-0.77339 1.766813,-0.77412 0.1069,-7.7e-4 0.521521,-0.15363 0.921378,-0.33978 0.798826,-0.37187 2.053068,-0.45921 2.655122,-0.1849 0.465027,0.21189 0.689155,0.7849 0.483523,1.23621 -0.201206,0.44161 -0.658078,0.64889 -1.430217,0.64889 -0.38095,0 -0.861279,0.12747 -1.280219,0.33976 -0.368779,0.18688 -0.78864,0.33978 -0.933029,0.33978 -0.144385,0 -0.81449,0.27631 -1.489118,0.61404 -0.88419,0.44262 -1.400233,0.80715 -1.848582,1.30582 -0.342089,0.38049 -0.621983,0.74478 -0.621983,0.80951 0,0.12351 -0.723286,0.53909 -0.910634,0.52324 -0.05978,-0.005 -0.241935,-0.0736 -0.404801,-0.15237 z m 23.104413,-0.0131 c -0.162901,-0.0908 -0.474883,-0.4119 -0.69329,-0.71357 -0.218408,-0.30168 -0.604978,-0.72382 -0.859041,-0.93808 -0.534755,-0.45098 -2.504209,-1.43545 -2.871641,-1.43545 -0.13725,0 -0.551278,-0.1529 -0.920057,-0.33978 -0.418936,-0.2123 -0.899265,-0.33976 -1.280219,-0.33976 -0.787037,0 -1.245776,-0.21559 -1.436014,-0.67488 -0.193031,-0.46601 0.02427,-0.99833 0.495123,-1.21286 0.596772,-0.27191 1.853456,-0.18294 2.649319,0.18754 0.399862,0.18615 0.814482,0.33905 0.921382,0.33978 0.106901,7.7e-4 0.901966,0.34909 1.766813,0.77411 1.778708,0.87416 2.826843,1.74963 3.364151,2.80996 0.285003,0.56242 0.31189,0.71726 0.179887,1.03594 -0.08535,0.20607 -0.306839,0.44377 -0.492176,0.52821 -0.410957,0.18725 -0.452191,0.18619 -0.824237,-0.0211 z m -24.871224,-4.87958 c -0.470476,-0.22745 -0.651587,-0.81487 -0.400775,-1.29988 0.313688,-0.60661 1.594723,-1.08911 4.933675,-1.85827 1.666816,-0.38396 4.346174,-0.48937 4.989426,-0.19628 0.737779,0.33615 0.734231,1.39701 -0.0058,1.73419 -0.182144,0.083 -0.955581,0.1509 -1.718741,0.1509 -0.763162,0 -1.601219,0.0626 -1.862351,0.13901 -0.261133,0.0764 -0.933476,0.23447 -1.4941,0.35114 -0.560624,0.11668 -1.667297,0.42108 -2.459277,0.67645 -1.583274,0.51052 -1.559738,0.50691 -1.982057,0.30274 z m 25.846949,-0.19329 c -0.523246,-0.18404 -1.471211,-0.45854 -2.106581,-0.61001 -0.635376,-0.15148 -1.49561,-0.3633 -1.911641,-0.47072 -0.416027,-0.10743 -1.376401,-0.19532 -2.134167,-0.19532 -0.757761,0 -1.529392,-0.069 -1.714733,-0.15354 -0.737775,-0.33616 -0.734227,-1.39702 0.0058,-1.7342 0.637378,-0.2904 3.325117,-0.18312 4.983628,0.19893 3.338952,0.76916 4.619988,1.25166 4.933676,1.85827 0.259117,0.50107 0.06489,1.07756 -0.440656,1.30791 -0.43868,0.19987 -0.494465,0.19291 -1.615323,-0.20132 z m -12.527901,-2.38898 c -0.329145,-0.15912 -0.662831,-0.82943 -0.524403,-1.05341 0.04899,-0.0793 0.479382,-0.14412 0.956433,-0.14412 0.477051,0 0.907444,0.0649 0.95643,0.14412 0.146961,0.23778 -0.203526,0.89706 -0.564284,1.06143 -0.395674,0.18028 -0.43549,0.17989 -0.824176,-0.008 z m -8.953351,-5.51263 c -0.13354,-0.20556 -0.660427,-0.76172 -1.170853,-1.23591 -0.51043,-0.47418 -0.928051,-0.91758 -0.928051,-0.98533 0,-0.0697 1.2112,-0.12319 2.78613,-0.12319 1.53237,0 2.786125,0.0327 2.786125,0.0726 0,0.11621 -1.900914,2.00363 -2.356395,2.33968 -0.545803,0.40267 -0.822168,0.38589 -1.116956,-0.0679 z m 16.546189,-0.72742 c -0.686828,-0.61236 -1.248781,-1.16552 -1.248781,-1.22928 0,-0.0637 1.100859,-0.11591 2.446356,-0.11591 1.345496,0 2.446356,0.0369 2.446356,0.082 0,0.18451 -1.966343,2.29943 -2.172326,2.33648 -0.124764,0.0224 -0.772401,-0.44991 -1.471605,-1.0733 z M 13.68203,262.4278 c -0.246762,-0.134 -0.457958,-0.44892 -0.657161,-0.9799 -0.286604,-0.76396 -0.291864,-0.90119 -0.222638,-5.81106 0.03899,-2.76574 0.111816,-5.25588 0.16183,-5.53364 0.08839,-0.49089 0.07566,-0.51114 -0.454591,-0.72331 -1.074547,-0.42995 -1.05082,-1.48776 0.04274,-1.90539 0.480637,-0.18355 1.072825,-0.21124 3.683303,-0.17221 l 3.110582,0.0465 0.883409,0.45713 c 1.731437,0.89596 3.705465,2.61414 4.312593,3.75364 0.357788,0.67151 0.987843,2.55324 0.987843,2.95028 0,0.99876 -0.821406,1.7799 -1.531458,1.45637 -0.387155,-0.1764 -0.719929,-0.81649 -0.594464,-1.14346 0.12644,-0.32949 -0.631949,-2.28714 -1.129303,-2.91511 -0.660316,-0.83371 -2.492113,-2.14712 -3.337196,-2.3928 -0.498914,-0.14505 -1.174856,-0.19545 -2.258314,-0.1684 l -1.546279,0.0385 -0.106368,0.8834 c -0.05851,0.48588 -0.140517,2.91499 -0.18226,5.39801 -0.06736,4.0066 -0.05006,4.59238 0.153744,5.20596 0.270636,0.8148 0.127256,1.35887 -0.424334,1.61019 -0.416928,0.18996 -0.443992,0.1883 -0.891675,-0.0548 z m 37.850115,0.0468 c -0.514224,-0.24861 -0.648358,-0.80761 -0.384444,-1.60217 0.203799,-0.61358 0.221096,-1.19936 0.153742,-5.20596 -0.04174,-2.48302 -0.123762,-4.91213 -0.182263,-5.39801 l -0.106364,-0.8834 -1.546278,-0.0385 c -1.083462,-0.0271 -1.7594,0.0233 -2.258314,0.1684 -0.845088,0.24568 -2.676885,1.55909 -3.3372,2.3928 -0.49735,0.62797 -1.25574,2.58562 -1.129304,2.91511 0.129719,0.33804 -0.218284,0.98292 -0.62028,1.14943 -0.716975,0.29699 -1.505638,-0.46899 -1.505638,-1.46234 0,-0.39704 0.630054,-2.27877 0.987839,-2.95028 0.607132,-1.1395 2.58116,-2.85768 4.312598,-3.75364 l 0.883409,-0.45713 3.110582,-0.0465 c 2.623465,-0.0393 3.201236,-0.0119 3.689455,0.17457 1.091013,0.41666 1.10798,1.47434 0.03055,1.90544 -0.523628,0.20952 -0.536827,0.23073 -0.448573,0.7209 0.05002,0.27776 0.122838,2.7679 0.161833,5.53364 0.06925,4.91169 0.06407,5.04683 -0.223004,5.81203 -0.211534,0.56386 -0.403328,0.84 -0.684386,0.98534 -0.448766,0.23206 -0.502501,0.23447 -0.903973,0.0404 z"
       id="path907"
       inkscape:connector-curvature="0" />
  </g>
</svg>
