<?xml version="1.0" encoding="UTF-8" standalone="no"?>
<!-- Created with Inkscape (http://www.inkscape.org/) -->

<svg
   xmlns:dc="http://purl.org/dc/elements/1.1/"
   xmlns:cc="http://creativecommons.org/ns#"
   xmlns:rdf="http://www.w3.org/1999/02/22-rdf-syntax-ns#"
   xmlns:svg="http://www.w3.org/2000/svg"
   xmlns="http://www.w3.org/2000/svg"
   xmlns:sodipodi="http://sodipodi.sourceforge.net/DTD/sodipodi-0.dtd"
   xmlns:inkscape="http://www.inkscape.org/namespaces/inkscape"
   width="476.25mm"
   height="381mm"
   viewBox="0 0 476.25 381"
   version="1.1"
   id="svg8"
   inkscape:version="0.92.2 5c3e80d, 2017-08-06"
   sodipodi:docname="flavour101.svg">
  <defs
     id="defs2" />
  <sodipodi:namedview
     id="base"
     pagecolor="#bdbdbd"
     bordercolor="#666666"
     borderopacity="1.0"
     inkscape:pageopacity="0"
     inkscape:pageshadow="2"
     inkscape:zoom="0.49497475"
     inkscape:cx="604.61616"
     inkscape:cy="724.58029"
     inkscape:document-units="mm"
     inkscape:current-layer="layer1"
     showgrid="false"
     fit-margin-top="0"
     fit-margin-left="0"
     fit-margin-right="0"
     fit-margin-bottom="0"
     inkscape:window-width="1833"
     inkscape:window-height="1063"
     inkscape:window-x="0"
     inkscape:window-y="1"
     inkscape:window-maximized="0" />
  <metadata
     id="metadata5">
    <rdf:RDF>
      <cc:Work
         rdf:about="">
        <dc:format>image/svg+xml</dc:format>
        <dc:type
           rdf:resource="http://purl.org/dc/dcmitype/StillImage" />
        <dc:title />
      </cc:Work>
    </rdf:RDF>
  </metadata>
  <g
     inkscape:label="Layer 1"
     inkscape:groupmode="layer"
     id="layer1"
     transform="translate(-20.410715,-37.708332)">
    <path
       style="fill:#2d2d2d;fill-opacity:1;stroke-width:0.61376107"
       d="m 240.98332,313.40421 c -9.81497,-2.27263 -17.80677,-5.55077 -27.1678,-11.14385 -17.91055,-10.70131 -32.88034,-29.69384 -38.4866,-48.82894 -0.87438,-2.98428 -1.92658,-6.53071 -2.33829,-7.881 -1.15436,-13.33374 -1.83286,-27.97258 1.57089,-39.77583 4.31785,-14.72671 11.42243,-26.74524 22.22506,-37.59723 7.22997,-7.26304 12.50588,-11.22939 21.79399,-16.38446 17.28019,-9.59077 39.88935,-12.41891 62.15083,-7.77425 27.71762,5.783 54.5498,30.11336 63.30817,57.40544 5.24577,17.18556 5.48466,33.58384 1.96976,47.1399 -4.80821,18.48561 -15.55127,35.16615 -30.45449,47.28615 -21.68099,16.76581 -52.54666,21.96234 -74.57152,17.55407 z m -121.09624,-3.5623 c -1.98392,-6.18065 -2.79649,-16.36846 -2.38117,-29.85492 0.3367,-10.93308 0.88871,-15.98902 3.19013,-29.2196 1.93965,-12.49545 1.97354,-27.33797 -2.64906,-36.40487 -2.40032,-4.65286 -6.12759,-7.95206 -12.13928,-10.74512 -4.28931,-1.99282 -4.71129,-3.22534 -4.39593,-12.83937 0.76693,-23.38118 8.7044,-39.76511 22.27475,-45.97782 3.61447,-1.65474 13.70896,-3.67566 15.30359,-3.06375 0.82409,0.31624 0.92953,10.10675 0.92953,86.30252 v 85.94578 h -9.40138 -9.40134 z m 268.90673,1.84125 c -1.68651,-4.02701 -2.64556,-11.63036 -2.91207,-23.08626 -0.34534,-14.84468 0.24732,-21.29154 3.92897,-42.73959 2.29614,-15.12772 -1.71759,-34.48272 -14.20255,-41.42703 -5.69796,-2.92613 -6.06376,-3.76462 -5.75788,-13.19772 0.42803,-13.2009 2.12506,-20.77074 7.01731,-31.3018 2.71916,-5.85329 9.5218,-12.56388 15.40781,-15.19931 3.26346,-1.46124 10.80466,-3.14815 14.26996,-3.19211 l 1.68783,-0.0214 v 86.23342 86.23341 h -9.23773 -9.23774 z"
       id="path3799"
       inkscape:connector-curvature="0"
       sodipodi:nodetypes="cssccssscccccsccsscssccccccccsccccccccc" />
    <path
       style="fill:#000000;stroke-width:0.35277778"
       d=""
       id="path100"
       inkscape:connector-curvature="0" />
    <path
       style="fill:#000000;stroke-width:0.35277778"
       d=""
       id="path98"
       inkscape:connector-curvature="0" />
    <path
       style="fill:#000000;stroke-width:0.35277778"
       d=""
       id="path96"
       inkscape:connector-curvature="0" />
  </g>
</svg>
