<?xml version="1.0" encoding="UTF-8" standalone="no"?>
<!-- Created with Inkscape (http://www.inkscape.org/) -->

<svg
   xmlns:dc="http://purl.org/dc/elements/1.1/"
   xmlns:cc="http://creativecommons.org/ns#"
   xmlns:rdf="http://www.w3.org/1999/02/22-rdf-syntax-ns#"
   xmlns:svg="http://www.w3.org/2000/svg"
   xmlns="http://www.w3.org/2000/svg"
   xmlns:sodipodi="http://sodipodi.sourceforge.net/DTD/sodipodi-0.dtd"
   xmlns:inkscape="http://www.inkscape.org/namespaces/inkscape"
   width="1000"
   height="1000"
   viewBox="0 0 264.58333 264.58334"
   version="1.1"
   id="svg8"
   inkscape:version="0.92.2 5c3e80d, 2017-08-06"
   sodipodi:docname="vyllian.svg"
   inkscape:export-filename="C:\Users\Matt\Downloads\Visus.png"
   inkscape:export-xdpi="96"
   inkscape:export-ydpi="96">
  <defs
     id="defs2" />
  <sodipodi:namedview
     id="base"
     pagecolor="#595959"
     bordercolor="#666666"
     borderopacity="1.0"
     inkscape:pageopacity="0"
     inkscape:pageshadow="2"
     inkscape:zoom="0.49497475"
     inkscape:cx="156.28099"
     inkscape:cy="482.05469"
     inkscape:document-units="mm"
     inkscape:current-layer="layer1"
     showgrid="false"
     units="px"
     inkscape:window-width="1920"
     inkscape:window-height="1081"
     inkscape:window-x="0"
     inkscape:window-y="1"
     inkscape:window-maximized="1" />
  <metadata
     id="metadata5">
    <rdf:RDF>
      <cc:Work
         rdf:about="">
        <dc:format>image/svg+xml</dc:format>
        <dc:type
           rdf:resource="http://purl.org/dc/dcmitype/StillImage" />
        <dc:title />
      </cc:Work>
    </rdf:RDF>
  </metadata>
  <g
     inkscape:label="Layer 1"
     inkscape:groupmode="layer"
     id="layer1"
     transform="translate(0,-32.41665)">
    <path
       style="fill:#ffffff;stroke-width:0.07613317"
       d="m 129.48872,251.52834 -2.82905,-6.06138 34.41667,-73.79099 c 18.92917,-40.58505 34.44625,-73.821242 34.4824,-73.858174 0.0718,-0.07335 13.4133,-4.702649 13.44926,-4.666688 0.0201,0.02011 -76.31186,163.717672 -76.57629,164.221532 -0.11291,0.21524 -0.138,0.16557 -2.94299,-5.8443 z M 98.914193,186.04542 c -12.092238,-25.89958 -21.96939,-47.13215 -21.949215,-47.18353 0.0359,-0.0914 104.427532,-36.23233 104.798532,-36.28178 0.15519,-0.0207 0.17905,-6.7e-4 0.13573,0.11421 -0.27374,0.72528 -60.84744,130.44124 -60.91239,130.44124 -0.0477,0 -9.98042,-21.19057 -22.072657,-47.09013 z m -25.657715,-55.0235 c -0.14734,-0.22533 -17.709845,-37.841355 -17.68112,-37.870082 0.0529,-0.0529 63.771562,22.023342 63.772732,22.094992 0.001,0.0634 -45.745632,15.9464 -45.929357,15.9464 -0.02763,0 -0.100649,-0.0771 -0.162255,-0.17131 z"
       id="path3697"
       inkscape:connector-curvature="0" />
  </g>
</svg>
