<?xml version="1.0" encoding="UTF-8" standalone="no"?>
<svg
   xmlns:dc="http://purl.org/dc/elements/1.1/"
   xmlns:cc="http://creativecommons.org/ns#"
   xmlns:rdf="http://www.w3.org/1999/02/22-rdf-syntax-ns#"
   xmlns:svg="http://www.w3.org/2000/svg"
   xmlns="http://www.w3.org/2000/svg"
   xmlns:sodipodi="http://sodipodi.sourceforge.net/DTD/sodipodi-0.dtd"
   xmlns:inkscape="http://www.inkscape.org/namespaces/inkscape"
   width="24"
   height="24"
   viewBox="0 0 24 24"
   version="1.1"
   id="svg4"
   sodipodi:docname="instagram.svg"
   inkscape:version="0.92.2 5c3e80d, 2017-08-06">
  <metadata
     id="metadata10">
    <rdf:RDF>
      <cc:Work
         rdf:about="">
        <dc:format>image/svg+xml</dc:format>
        <dc:type
           rdf:resource="http://purl.org/dc/dcmitype/StillImage" />
      </cc:Work>
    </rdf:RDF>
  </metadata>
  <defs
     id="defs8" />
  <sodipodi:namedview
     pagecolor="#ffffff"
     bordercolor="#666666"
     borderopacity="1"
     objecttolerance="10"
     gridtolerance="10"
     guidetolerance="10"
     inkscape:pageopacity="0"
     inkscape:pageshadow="2"
     inkscape:window-width="1742"
     inkscape:window-height="1037"
     id="namedview6"
     showgrid="false"
     inkscape:zoom="27.812867"
     inkscape:cx="8.610115"
     inkscape:cy="11.626119"
     inkscape:window-x="0"
     inkscape:window-y="0"
     inkscape:window-maximized="0"
     inkscape:current-layer="svg4" />
  <path
     d="m 12,4.6682704 c 2.38801,0 2.671233,0.00894 3.61481,0.052173 2.423786,0.1103076 3.55593,1.2603391 3.666238,3.6662376 0.04323,0.9428319 0.05143,1.2260542 0.05143,3.614064 0,2.388756 -0.009,2.671233 -0.05143,3.614066 -0.111054,2.403663 -1.240216,3.555929 -3.666238,3.666236 -0.943577,0.04323 -1.225309,0.05217 -3.61481,0.05217 -2.388011,0 -2.6712334,-0.009 -3.6140653,-0.05217 C 5.9561859,19.169994 4.8300048,18.014746 4.7196972,15.614065 4.6764686,14.671233 4.6675248,14.388756 4.6675248,12 c 0,-2.3880106 0.00969,-2.6704877 0.052173,-3.614065 C 4.8307501,5.9807819 5.9599125,4.8300052 8.3859347,4.7196976 9.329512,4.6772142 9.611989,4.6682704 12,4.6682704 Z m 0,-1.6121309 c -2.4290037,0 -2.733095,0.01043 -3.6871068,0.053663 C 5.0647812,3.258867 3.2596119,5.0610549 3.1105477,8.3121482 3.0665737,9.2669053 3.0561391,9.5709966 3.0561391,12 c 0,2.429003 0.01043,2.733841 0.053663,3.687852 0.1490643,3.248112 1.9512522,5.053281 5.2023456,5.202345 0.954757,0.04323 1.2588483,0.05366 3.6878523,0.05366 2.429003,0 2.73384,-0.01048 3.687851,-0.05366 3.245132,-0.149064 5.054772,-1.951252 5.2016,-5.202345 0.04397,-0.954011 0.05441,-1.258849 0.05441,-3.687852 0,-2.4290034 -0.01048,-2.7330947 -0.05366,-3.6871065 C 20.744114,5.0677628 18.939689,3.2596123 15.688596,3.1105479 14.73384,3.0665739 14.429003,3.0561395 12,3.0561395 Z m 0,4.3511882 c -2.5363301,0 -4.5926727,2.0563425 -4.5926727,4.5926723 0,2.53633 2.0563426,4.593418 4.5926727,4.593418 2.536329,0 4.592672,-2.056342 4.592672,-4.593418 0,-2.5363298 -2.056343,-4.5926723 -4.592672,-4.5926723 z m 0,7.5739593 c -1.646415,0 -2.9812872,-1.334126 -2.9812872,-2.981287 0,-1.646416 1.3348722,-2.9812869 2.9812872,-2.9812869 1.646416,0 2.981287,1.3348709 2.981287,2.9812869 0,1.647161 -1.334871,2.981287 -2.981287,2.981287 z m 4.77453,-8.8283357 c -0.593275,0 -1.074008,0.4807324 -1.074008,1.0732632 0,0.5925307 0.480733,1.0732632 1.074008,1.0732632 0.592532,0 1.072518,-0.4807325 1.072518,-1.0732632 0,-0.5925308 -0.479986,-1.0732632 -1.072518,-1.0732632 z"
     id="path2"
     inkscape:connector-curvature="0"
     style="stroke-width:0.74532169" />
</svg>
