<?xml version="1.0" encoding="UTF-8" standalone="no"?>
<!-- Created with Inkscape (http://www.inkscape.org/) -->

<svg
   xmlns:dc="http://purl.org/dc/elements/1.1/"
   xmlns:cc="http://creativecommons.org/ns#"
   xmlns:rdf="http://www.w3.org/1999/02/22-rdf-syntax-ns#"
   xmlns:svg="http://www.w3.org/2000/svg"
   xmlns="http://www.w3.org/2000/svg"
   xmlns:sodipodi="http://sodipodi.sourceforge.net/DTD/sodipodi-0.dtd"
   xmlns:inkscape="http://www.inkscape.org/namespaces/inkscape"
   width="1000"
   height="1000"
   viewBox="0 0 1000 1000"
   id="svg2"
   version="1.1"
   inkscape:version="0.91 r13725"
   sodipodi:docname="Instagram.svg">
  <defs
     id="defs4" />
  <sodipodi:namedview
     id="base"
     pagecolor="#ffffff"
     bordercolor="#666666"
     borderopacity="1.0"
     inkscape:pageopacity="0.0"
     inkscape:pageshadow="2"
     inkscape:zoom="0.7"
     inkscape:cx="273.42785"
     inkscape:cy="446.91517"
     inkscape:document-units="px"
     inkscape:current-layer="layer1"
     showgrid="false"
     units="px"
     inkscape:window-width="1920"
     inkscape:window-height="1029"
     inkscape:window-x="0"
     inkscape:window-y="25"
     inkscape:window-maximized="1" />
  <metadata
     id="metadata7">
    <rdf:RDF>
      <cc:Work
         rdf:about="">
        <dc:format>image/svg+xml</dc:format>
        <dc:type
           rdf:resource="http://purl.org/dc/dcmitype/StillImage" />
        <dc:title></dc:title>
      </cc:Work>
    </rdf:RDF>
  </metadata>
  <g
     inkscape:label="Layer 1"
     inkscape:groupmode="layer"
     id="layer1"
     transform="translate(0,-52.362161)">
    <g
       id="g3839"
       transform="matrix(0.45314539,0,0,0.45314539,125.82048,352.57501)">
      <path
         style="fill:#fda64b"
         d="m 519.73421,1424.8831 c -203.7678,-0.7077 -216.22079,-0.8826 -250.01993,-3.5109 -80.12426,-6.2309 -133.31399,-19.1017 -187.5,-45.3709 -101.52603,-49.2197 -176.362659,-134.2957 -212.99102,-242.1334 -14.72209,-43.3431 -23.75296,-95.4538 -26.76383,-154.43425 -0.93313,-18.2793 -1.22755,-143.7763 -1.23516,-526.5 -0.0113,-567.95996 -0.11932,-558.58052 7.04585,-611.71664 12.23123,-90.7055 40.40427,-159.69171 91.30236,-223.56851 13.32675,-16.72499 46.75556,-50.21202 63.37151,-63.48187 21.05153,-16.8122 47.25799,-33.46722 72.71679,-46.21377 54.18166,-27.12733 101.69253,-39.94838 178.0535,-48.04866 17.1252,-1.81661 30.15615,-2.19186 107,-3.08122 120.41712,-1.39366 956.24252,-0.56215 995.00002,0.98986 91.6389,3.66959 156.1985,18.14538 218.5997,49.01522 42.1951,20.87389 74.3918,44.08323 108.998,78.57246 33.5913,33.47771 54.4746,62.1547 75.2538,103.33865 27.6989,54.8985 40.1856,99.55412 48.7086,174.19448 2.8091,24.60087 3.5888,193.43994 3.1102,673.5 -0.3252,326.2073 -0.7673,455.6179 -1.5887,464.99995 -6.7352,76.9324 -20.2901,129.9719 -47.1641,184.5496 -56.637,115.023 -157.7301,194.1775 -284.6902,222.9085 -28.1594,6.3725 -57.2561,10.3998 -98.2273,13.596 -41.2681,3.2192 -363.2797,4.1173 -858.98009,2.3955 z m 549.48009,-258.8174 c 72.0473,-3.0776 93.0756,-4.5054 120.7607,-8.1992 75.5531,-10.0804 140.4961,-34.1526 193.7486,-71.8161 36.2155,-25.6139 74.9003,-66.473 98.986,-104.54965 29.1849,-46.1378 50.0929,-106.5473 59.4489,-171.7658 4.1397,-28.8563 5.2151,-43.6166 8.6921,-119.3013 1.6044,-34.9227 2.345,-395.24754 0.9362,-455.5 -1.7121,-73.22877 -3.6364,-111.90838 -7.1391,-143.5 -8.51,-76.75535 -30.2475,-142.46354 -64.6297,-195.36254 -36.5817,-56.2832 -92.0442,-105.13364 -150.287,-132.37033 -43.9006,-20.5297 -92.4423,-34.14523 -145.0167,-40.67592 -26.1369,-3.24667 -39.2125,-4.12135 -108,-7.22448 -35.6376,-1.60767 -398.79925,-2.35377 -458.50002,-0.94195 -116.85723,2.76345 -163.36402,7.02716 -213.5,19.57351 -89.92538,22.50352 -158.2861,65.3468 -213.13752,133.57832 -36.57031,45.49104 -63.53944,105.53395 -76.7875,170.9564 -9.47424,46.78631 -12.65862,88.24175 -15.16832,197.46699 -1.3847,60.26348 -0.61988,407.051 0.98472,446.5 3.71105,91.236 6.11881,118.1634 14.17259,158.5 9.55143,47.8375 27.94938,96.9433 50.20441,134 36.19385,60.26625 94.84414,113.75605 156.3516,142.59475 50.3713,23.6173 103.97056,37.4162 168.38002,43.3486 20.44495,1.8831 75.05922,4.4505 117.5,5.5236 46.09218,1.1654 431.47632,0.4689 462.00002,-0.8349 z M 627.71428,1035.8772 c -118.46812,-2.2233 -166.87484,-7.2481 -212.73861,-22.0832 -42.07322,-13.6088 -69.63072,-29.77275 -98.58431,-57.82465 -20.86543,-20.2157 -35.33596,-39.4808 -46.80328,-62.311 -17.29996,-34.4423 -27.54326,-71.3985 -32.78963,-118.2996 -1.9192,-17.1571 -2.78679,-30.4893 -5.23362,-80.4251 -1.5983,-32.6186 -2.33042,-397.49483 -0.91797,-457.5 2.93964,-124.88471 7.31801,-164.7666 23.27259,-211.98636 16.52072,-48.89535 41.40627,-84.71381 81.29483,-117.00991 40.51671,-32.80467 100.57338,-52.76669 176,-58.5 49.27227,-3.74526 80.61448,-4.28175 276.5,-4.73285 307.91842,-0.70909 369.07902,1.69321 429.50002,16.87011 45.6487,11.46632 82.4675,30.47625 112,57.82675 34.2787,31.74603 52.9471,60.85044 68.6536,107.03226 21.3623,62.81117 24.3683,120.03873 23.5588,448.5 -0.4464,181.0927 -0.7259,200.5166 -3.7269,259 -3.2052,62.4619 -11.1996,102.6147 -28.6703,144 -13.03,30.8659 -27.6722,51.9055 -53.9475,77.5177 -20.9577,20.4287 -36.6782,31.5285 -61.3677,43.33 -23.6841,11.32095 -45.9842,18.65855 -73.5,24.18455 -37.7272,7.5767 -76.4897,10.3793 -172.5,12.4718 -49.45512,1.0779 -341.69523,1.0337 -400.00002,-0.06 z m 245.7015,-224.86955 c 105.359,-14.2161 195.57722,-68.6867 257.87492,-155.6957 33.7973,-47.2036 56.2664,-105.0845 64.9754,-167.3783 2.4885,-17.8001 3.0644,-64.56158 1.0314,-83.74569 -11.6889,-110.29724 -67.0586,-205.10842 -157.0832,-268.97821 -48.36962,-34.3168 -103.95292,-55.86544 -167.50002,-64.93671 -17.9495,-2.56227 -75.89133,-2.57542 -94,-0.0213 -80.53831,11.3593 -148.25641,43.16195 -207.23438,97.32407 -50.1614,46.06547 -88.8647,110.45328 -106.30867,176.85787 -8.29991,31.59554 -11.35402,53.76209 -12.12467,88 -0.62868,27.9307 0.72507,47.0904 5.13939,72.7381 24.13613,140.2338 128.34681,255.8091 265.80475,294.7918 21.93426,6.2205 48.48917,10.9021 75.72358,13.3498 2.475,0.2224 16.65,0.2561 31.5,0.075 20.0689,-0.2449 30.9023,-0.856 42.2015,-2.3806 z m -67.10805,-128.1213 c -102.76378,-8.5529 -189.04547,-80.8653 -215.08197,-180.2596 -19.16383,-73.15781 -3.69941,-148.98739 42.86606,-210.1931 8.47309,-11.13704 27.21645,-30.2105 39.12246,-39.81148 35.78379,-28.85596 80.97117,-47.77555 125.71059,-52.634 12.48305,-1.35559 41.09581,-1.35559 53.57881,0 26.3902,2.86583 55.2892,11.34251 79.7106,23.38084 48.9825,24.14547 87.14812,62.30912 111.07052,111.06464 26.357,53.71743 31.9614,113.6697 16.0322,171.5 -25.9248,94.1191 -107.04932,163.9414 -204.41432,175.9355 -12.5075,1.5407 -36.3167,2.0391 -48.59495,1.0172 z M 1238.2143,136.45976 c 21.0416,-6.18135 38.8388,-19.78556 50.0953,-38.29282 8.7483,-14.38347 12.6219,-28.41902 12.6216,-45.73329 -3e-4,-24.59249 -9.0242,-45.49662 -27.0913,-62.75778 -9.6899,-9.25764 -20.5398,-15.77751 -33.1256,-19.9056 -8.288,-2.71843 -11.2861,-3.1757 -23.5,-3.58423 -17.4738,-0.58447 -27.1724,1.42865 -42,8.71787 -22.4159,11.01961 -38.9556,31.15274 -45.6631,55.58372 -2.9379,10.70089 -3.1617,32.50527 -0.4407,42.94602 8.6152,33.05745 34.7818,57.8745 68.6038,65.06559 10.3117,2.19243 29.3596,1.23322 40.5,-2.03948 z"
         id="path3853"
         inkscape:connector-curvature="0" />
      <path
         style="fill:#cc3999"
         d="m 1041.6442,1423.212 -23.57,-0.3136 -1.3237,-6.7325 c -7.4682,-37.9848 -25.55302,-94.91 -43.72882,-137.6451 -13.3024,-31.2767 -36.4698,-75.9741 -52.1361,-100.5871 l -4.1372,-6.5 9.2329,-0.6381 c 5.0782,-0.3509 19.133,-0.6903 31.233,-0.7541 53.51172,-0.2824 151.86102,-3.7104 190.50002,-6.6402 74.8815,-5.6777 135.5741,-21.1555 189.9428,-48.439 51.3778,-25.7826 100.6062,-68.77 135.7371,-118.52865 29.2188,-41.385 51.8385,-96.6377 63.6597,-155.5 13.0174,-64.819 15.6233,-131.5375 15.6233,-400 0,-190.26401 -0.9768,-251.59033 -5.0251,-315.5 -5.869,-92.6505 -28.3677,-168.94886 -67.6341,-229.36254 -36.5817,-56.2832 -92.0442,-105.13364 -150.287,-132.37033 -43.9006,-20.5297 -92.4423,-34.14523 -145.0167,-40.67592 -26.1369,-3.24667 -39.2125,-4.12135 -108,-7.22448 -35.6376,-1.60767 -398.79925,-2.35377 -458.50002,-0.94195 -116.85723,2.76345 -163.36402,7.02716 -213.5,19.57351 -89.92538,22.50352 -158.2861,65.3468 -213.13752,133.57832 -52.09791,64.80635 -81.21437,150.30446 -87.83604,257.92339 -4.41526,71.75933 -5.46891,137.42695 -5.48746,342 -0.0166,182.9541 0.29926,207.7326 3.50531,275 2.90501,60.9513 10.4833,107.2705 25.78122,157.5772 l 0.93575,3.0771 -16.63063,7.2895 c -65.24641,28.5987 -130.04658,71.1806 -183.57592,120.63255 -16.346861,15.1017 -40.71499,40.2214 -54.01636,55.6823 -6.02891,7.0078 -11.27917,12.7413 -11.66725,12.7413 -0.8984,0 -6.10642,-21.986 -8.76451,-37 -6.34137,-35.8187 -9.02431,-64.31555 -10.12093,-107.49995 -1.30209,-51.2756 -3.32348,-751.79241 -2.5797,-894 0.80229,-153.39404 1.6482,-179.45394 7.14833,-220.21664 12.24211,-90.7291 40.40616,-159.69214 91.30391,-223.56851 13.32675,-16.72499 46.75556,-50.21202 63.37151,-63.48187 21.05153,-16.8122 47.25799,-33.46722 72.71679,-46.21377 54.18166,-27.12733 101.69253,-39.94838 178.0535,-48.04866 17.1252,-1.81661 30.15615,-2.19186 107,-3.08122 120.41712,-1.39366 956.24252,-0.56215 995.00002,0.98986 91.6389,3.66959 156.1985,18.14538 218.5997,49.01522 42.1951,20.87389 74.3918,44.08323 108.998,78.57246 33.5913,33.47771 54.4746,62.1547 75.2538,103.33865 27.6989,54.8985 40.1856,99.55412 48.7086,174.19448 2.8091,24.60087 3.5888,193.43994 3.1102,673.5 -0.3252,326.2073 -0.7673,455.6179 -1.5887,464.99995 -6.8853,78.6474 -20.5395,131.172 -48.7421,187.5001 -21.5087,42.9587 -43.4842,73.2955 -78.2715,108.0527 -63.4785,63.4236 -141.4794,101.9433 -237.568,117.3203 -18.5147,2.9628 -36.6716,4.9888 -65.5,7.3086 -17.6819,1.4229 -40.6389,1.6676 -167,1.7802 -80.575,0.072 -157.1065,-0.011 -170.0701,-0.1834 z m -227.05057,-389.024 -11.62065,-0.3156 -11.87935,-10.5717 C 696.91264,939.48685 581.80062,884.28015 461.00995,864.99535 c -40.61284,-6.484 -84.01644,-9.0767 -121.45631,-7.2552 -24.03442,1.1694 -49.75999,3.6785 -68.29741,6.6615 -5.23623,0.8426 -9.77323,1.532 -10.08221,1.532 -1.83165,0 -10.54044,-26.5105 -14.8154,-45.0997 -8.60555,-37.4202 -11.99349,-77.3532 -14.62656,-172.4003 -1.33334,-48.1299 -1.37492,-418.06428 -0.0509,-453 2.84089,-74.96145 5.51018,-103.59277 12.60858,-135.24225 14.91977,-66.52255 42.49124,-112.53961 90.92454,-151.75402 40.51671,-32.80467 100.57338,-52.76669 176,-58.5 49.27227,-3.74526 80.61448,-4.28175 276.5,-4.73285 307.91842,-0.70909 369.07902,1.69321 429.50002,16.87011 45.6487,11.46632 82.4675,30.47625 112,57.82675 34.2787,31.74603 52.9471,60.85044 68.6536,107.03226 15.3482,45.12813 19.9035,86.21238 22.8407,206 1.2713,51.84448 1.2622,358.9267 -0.012,411.5 -1.0759,44.3887 -3.409,98.4098 -5.0098,116 -6.9201,76.0407 -27,133.1845 -61.1424,174 -10.3259,12.3441 -31.3679,32.5546 -42.8299,41.1375 -29.4383,22.0437 -67.8034,38.16845 -111.5,46.86325 -35.0935,6.983 -61.6139,9.1149 -143,11.4954 -30.1676,0.8823 -212.49302,1.0764 -242.62067,0.2583 z m 48.42555,-220.84375 c 126.3646,-12.4226 238.14992,-89.2326 296.20002,-203.525 58.122,-114.434 52.8123,-251.36693 -14.0519,-362.3856 -49.8751,-82.81074 -133.7505,-145.0329 -226.95302,-168.36306 -34.8704,-8.72865 -51.0704,-10.58191 -92.5,-10.58191 -37.63181,0 -45.57011,0.69685 -74.21597,6.51492 -131.37973,26.68366 -239.83017,122.98726 -281.15353,249.6633 -11.91394,36.52197 -17.32016,68.31194 -18.3269,107.76675 -0.83436,32.6993 2.10467,62.099 9.34699,93.5 30.60691,132.7041 133.32568,240.1446 263.79115,275.917 45.26185,12.4103 90.32339,16.1671 137.86316,11.4936 z M 808.4564,681.93315 c -84.62423,-6.5475 -159.54823,-56.1497 -197.61105,-130.8252 -18.34344,-35.9881 -26.51592,-70.1286 -26.49293,-110.6743 0.0157,-27.69101 3.47419,-49.65095 11.81183,-75 29.91407,-90.9482 110.91641,-156.05972 205.98016,-165.57153 16.85478,-1.68644 47.72717,-0.70762 63.06987,1.99964 40.5831,7.16103 74.747,21.89128 107.1898,46.21637 11.1371,8.35043 34.30342,30.89418 42.49752,41.35552 17.6971,22.59362 31.0311,47.00729 39.8281,72.92287 7.945,23.40542 11.6976,43.88847 12.6552,69.07713 1.5704,41.3037 -7.1385,81.4207 -25.6161,118 -36.1737,71.611 -105.28302,120.748 -184.09402,130.8914 -15.2023,1.9566 -35.95191,2.6346 -49.21838,1.6081 z m 429.7579,-545.47339 c 21.0416,-6.18135 38.8388,-19.78556 50.0953,-38.29282 8.7483,-14.38347 12.6219,-28.41902 12.6216,-45.73329 -3e-4,-24.59249 -9.0242,-45.49662 -27.0913,-62.75778 -9.6899,-9.25764 -20.5398,-15.77751 -33.1256,-19.9056 -8.288,-2.71843 -11.2861,-3.1757 -23.5,-3.58423 -17.4738,-0.58447 -27.1724,1.42865 -42,8.71787 -22.4159,11.01961 -38.9556,31.15274 -45.6631,55.58372 -2.9379,10.70089 -3.1617,32.50527 -0.4407,42.94602 8.6152,33.05745 34.7818,57.8745 68.6038,65.06559 10.3117,2.19243 29.3596,1.23322 40.5,-2.03948 z"
         id="path3851"
         inkscape:connector-curvature="0" />
      <path
         style="fill:#f05257"
         d="m 1041.6442,1423.212 -23.57,-0.3136 -1.3237,-6.7325 c -7.4682,-37.9848 -25.55302,-94.91 -43.72882,-137.6451 -13.3024,-31.2767 -36.4698,-75.9741 -52.1361,-100.5871 l -4.1372,-6.5 9.2329,-0.6381 c 5.0782,-0.3509 19.133,-0.6903 31.233,-0.7541 77.55422,-0.4093 185.67292,-5.1064 222.50002,-9.6665 89.8748,-11.1287 162.2384,-39.1299 219,-84.7425 85.7352,-68.8949 132.8982,-160.85205 148.5811,-289.69885 0.8368,-6.875 1.8359,-14.4164 2.2202,-16.7587 l 0.6987,-4.2586 13.1573,23.2586 c 18.7136,33.0809 27.5232,49.7791 44.3628,84.0882 53.5017,109.0045 93.8293,223.02305 121.4334,343.32995 3.7299,16.2559 3.7284,16.2727 -2.0716,24.0238 -1.31,1.7508 -2.3819,3.4403 -2.3819,3.7545 0,1.0448 -9.2641,13.9401 -16.5682,23.0623 -51.9147,64.837 -123.6544,112.102 -204.9318,135.0172 -26.5063,7.473 -59.8952,13.8023 -89.5,16.9655 -44.6509,4.7709 -47.5143,4.8415 -202,4.9791 -80.575,0.072 -157.1065,-0.011 -170.0701,-0.1834 z M -141.13169,1087.1837 c -9.17661,-38.8521 -13.81124,-79.1312 -15.21708,-132.25005 -1.47914,-55.8885 -2.4221,-580.20922 -1.07528,-597.89561 0.60292,-7.91759 1.29891,-14.59831 1.54664,-14.84604 0.24773,-0.24772 8.26993,-2.16284 17.82712,-4.25582 9.55718,-2.09297 22.16325,-5.44092 28.01349,-7.43987 5.85024,-1.99896 19.607102,-5.60929 30.570813,-8.02297 10.963707,-2.41368 24.151927,-5.80167 29.307147,-7.52886 14.2863,-4.78646 27.53486,-8.26797 60.87312,-15.99647 16.775,-3.8888 42.875,-10.15132 58,-13.91672 15.125,-3.7654 27.725,-6.64045 28,-6.38899 0.275,0.25145 0.78676,86.48237 1.13725,191.62425 0.59546,178.6316 1.07932,212.4631 3.89254,272.1671 2.88765,61.2838 10.44548,107.5985 25.79572,158.0772 l 0.93575,3.0771 -16.63063,7.2895 c -65.24641,28.5987 -130.04658,71.1806 -183.57592,120.63255 -16.346861,15.1017 -40.71499,40.2214 -54.01636,55.6823 -6.02891,7.0078 -11.27917,12.7413 -11.66725,12.7413 -0.38808,0 -2.06076,-5.7375 -3.71707,-12.75 z m 955.72532,-52.9956 -11.62065,-0.3156 -11.87935,-10.5717 C 696.91264,939.48685 581.80062,884.28015 461.00995,864.99535 c -40.61284,-6.484 -84.01644,-9.0767 -121.45631,-7.2552 -24.03442,1.1694 -49.75999,3.6785 -68.29741,6.6615 -5.23623,0.8426 -9.77323,1.532 -10.08221,1.532 -1.83165,0 -10.54044,-26.5105 -14.8154,-45.0997 -8.7635,-38.107 -12.10819,-78.3479 -14.70338,-176.9003 -1.16776,-44.3454 -0.68054,-383.6499 0.56308,-392.13795 l 0.67952,-4.63795 5.65822,-1.06044 c 3.11202,-0.58324 8.35822,-1.35394 11.65822,-1.71267 3.3,-0.35873 14.02381,-2.64564 23.83068,-5.08201 21.34088,-5.30182 36.51304,-8.36898 41.39839,-8.36898 1.97013,0 12.39955,-2.21674 23.17649,-4.92609 14.63423,-3.67909 23.01343,-5.21068 33.10056,-6.05031 7.42837,-0.61832 15.30337,-1.54084 17.5,-2.05005 2.19663,-0.50921 6.88974,-0.93657 10.42913,-0.94969 4.48593,-0.0166 12.36163,-1.58327 26,-5.17194 16.99689,-4.47239 21.00849,-5.18171 30.56475,-5.40435 7.86983,-0.18335 13.8941,-0.99412 21.17042,-2.84919 7.69568,-1.96198 11.8302,-2.48647 16.99166,-2.15547 4.98337,0.31957 8.84423,-0.13209 14.32958,-1.67632 7.45618,-2.09906 31.01375,-4.03728 31.0101,-2.55139 -9.7e-4,0.39337 -1.2789,2.19337 -2.83985,4 -6.45645,7.47267 -24.5797,34.55225 -33.60276,50.20893 -26.68509,46.30354 -42.66379,93.95273 -49.15281,146.57587 -2.15214,17.45293 -2.91968,53.4137 -1.50473,70.5 2.65073,32.0092 8.33885,60.832 17.56396,89 46.54889,142.1326 172.94838,243.1326 321.03443,256.5238 17.72952,1.6032 54.4734,1.346 71.8433,-0.5029 91.792,-9.7707 173.13222,-50.3458 236.51682,-117.9822 69.2053,-73.8477 106.3031,-177.1293 100.228,-279.0387 -0.6229,-10.45 -1.8168,-23.95 -2.653,-30 -0.8362,-6.05 -1.7571,-12.8 -2.0463,-15 -0.2893,-2.2 -0.9341,-5.8 -1.4329,-8 -1.8707,-8.25015 -1.6162,-8.16232 14.7941,5.10669 71.382,57.71782 140.7569,125.76081 198.4355,194.62591 l 11.5018,13.7325 0.6527,14.2675 c 1.7591,38.4524 -1.0849,143.1264 -4.9114,180.7674 -7.0426,69.2776 -26.8936,123.4027 -59.5987,162.5 -10.3259,12.3441 -31.3679,32.5546 -42.8299,41.1375 -29.4383,22.0437 -67.8034,38.16845 -111.5,46.86325 -35.0935,6.983 -61.6139,9.1149 -143,11.4954 -30.1676,0.8823 -212.49302,1.0764 -242.62067,0.2583 z M 808.4564,681.93315 c -84.62423,-6.5475 -159.54823,-56.1497 -197.61105,-130.8252 -18.34344,-35.9881 -26.51592,-70.1286 -26.49293,-110.6743 0.0115,-20.37256 1.08573,-31.03751 5.03607,-50 18.5326,-88.96061 87.50918,-160.75848 175.77672,-182.96633 22.55676,-5.67522 34.18724,-7.01672 60.04907,-6.9263 25.5389,0.0893 39.0793,1.72082 60.7408,7.31885 60.27,15.57566 114.0432,55.54623 146.39302,108.81635 43.2213,71.17224 46.7688,158.82123 9.4207,232.75743 -36.1737,71.611 -105.28302,120.748 -184.09402,130.8914 -15.2023,1.9566 -35.95191,2.6346 -49.21838,1.6081 z m -965.20803,-501.7197 c -0.38651,-0.97889 -1.11938,-26.0798 -1.6286,-55.7798 -1.42063,-82.85875 0.28803,-219.34725 3.16724,-253 8.81243,-103.00155 38.96265,-183.72785 94.78547,-253.78515 13.32675,-16.72499 46.75556,-50.21202 63.37151,-63.48187 21.05153,-16.8122 47.25799,-33.46722 72.71679,-46.21377 54.18166,-27.12733 101.69253,-39.94838 178.0535,-48.04866 32.83204,-3.48278 146.70519,-4.14074 634,-3.66326 445.25932,0.43629 474.98052,0.67967 512.17252,4.19413 32.3335,3.05535 66.5672,8.90451 93.3431,15.94854 89.136,23.44936 166.5655,74.05639 223.4588,146.05004 31.4185,39.75748 59.4557,97.4327 72.9183,150 2.8533,11.14126 6.4478,29.55372 5.8626,30.03095 -0.629,0.51299 -69.5924,28.62699 -101.2553,41.27832 -49.0249,19.58852 -95.2416,37.48975 -150.1335,58.15154 l -47.1335,17.74146 -1.3665,-2.68221 c -2.2586,-4.43321 -14.6791,-22.79135 -23.3963,-34.581 -23.4376,-31.69817 -57.3842,-65.28305 -87.5559,-86.62282 -54.1074,-38.26895 -122.3326,-63.08799 -199.9143,-72.72503 -26.1369,-3.24667 -39.2125,-4.12135 -108,-7.22448 -35.6376,-1.60767 -398.79925,-2.35377 -458.50002,-0.94195 -79.88609,1.88915 -124.44532,4.45391 -159,9.15179 -58.51533,7.95545 -114.05826,25.72852 -158.97364,50.86968 -65.75666,36.80696 -122.71597,98.30813 -153.3276,165.55375 -20.42528,44.86892 -32.37609,87.84538 -40.73843,146.5 -4.4776,31.40647 -4.46936,31.35157 -4.73535,31.55785 -0.12374,0.096 -6.97498,1.78806 -15.22498,3.76021 -8.25,1.97215 -34.8,8.35522 -59,14.1846 -24.2,5.82938 -64.25,15.27829 -89,20.99757 -24.75,5.71928 -53.325,12.86317 -63.5,15.87531 -10.175,3.01213 -20.525,5.98666 -23,6.61006 -2.475,0.62339 -5.23421,1.34507 -6.13157,1.60372 -0.95001,0.27383 -1.92515,-0.2732 -2.33434,-1.30952 z M 242.29314,81.19709 c 5.70553,-49.77554 24.97357,-98.49465 52.50213,-132.75127 8.2462,-10.26159 28.17186,-30.18697 38.43118,-38.43062 43.16367,-34.68325 101.07869,-54.23182 177.98783,-60.07782 49.01345,-3.72559 80.90051,-4.27923 272.5,-4.73131 280.77542,-0.66249 355.65902,1.58482 411.50002,12.34944 70.3551,13.56253 119.7608,41.73004 158.5231,90.37814 5.7403,7.20418 8.5528,12 7.0375,12 -0.5449,0 -3.0674,-0.70505 -5.6055,-1.56678 -4.1696,-1.41559 -5.052,-1.41785 -9.1445,-0.0234 -3.3891,1.1548 -5.0363,1.27218 -6.5422,0.46621 -1.107,-0.59244 -3.3078,-0.81816 -4.8906,-0.5016 -2.1162,0.42325 -2.8778,0.19027 -2.8778,-0.88038 0,-2.19829 -4.0802,-2.77767 -10.1042,-1.43476 -6.8022,1.51643 -12.7242,1.49664 -20.5328,-0.0686 -5.7568,-1.15395 -6.6369,-1.06371 -14.204,1.45636 -8.8405,2.94415 -14.7366,3.11486 -14.5398,0.42096 0.2262,-3.09566 -7.9878,-3.24251 -16.8212,-0.30074 l -7.7712,2.58804 -3.1004,-2.2077 c -2.7937,-1.9893 -3.8585,-2.14191 -10.7634,-1.54265 -4.2147,0.36578 -9.825,1.36862 -12.4675,2.22853 -4.2341,1.37785 -5.1608,1.39095 -7.805,0.11035 l -3.0004,-1.45314 4.5836,-1.28333 c 2.521,-0.70584 4.3941,-1.47288 4.1625,-1.70453 -0.2317,-0.23166 -2.9686,0.31936 -6.0821,1.22448 -5.7257,1.6645 -14.7091,1.33201 -17.1512,-0.6348 -0.6606,-0.53203 -3.915,-0.0364 -8.18,1.24583 -4.2177,1.26799 -7.8191,1.82078 -8.9029,1.36652 -1.001,-0.41956 -5.152,-0.75366 -9.2244,-0.74243 -5.3038,0.0146 -8.2168,-0.47367 -10.2682,-1.72119 -2.7782,-1.68954 -3.0949,-1.66065 -10.5956,0.96639 -4.2525,1.48939 -9.5926,2.99402 -11.8669,3.34362 -3.5798,0.55028 -4.2051,0.36797 -4.6564,-1.35781 -0.7476,-2.85913 -5.551,-2.5959 -15.7908,0.86535 -7.6249,2.57741 -8.6736,2.71526 -10.6537,1.40049 -3.9064,-2.59377 -19.2553,-1.99281 -27.8933,1.0921 -2.3763,0.84867 -7.8951,1.50427 -13,1.54434 -4.8789,0.0383 -11.1207,0.10674 -13.8707,0.1521 -10.8839,0.17957 -14.1722,0.0739 -18.3793,-0.59074 -2.7207,-0.4298 -5.8454,-0.208 -8.25,0.58561 -3.0725,1.01401 -4.644,1.02688 -7.6207,0.0624 -3.2368,-1.04872 -4.5584,-0.93377 -9.6566,0.83994 -3.2486,1.13022 -8.22662,2.05495 -11.06242,2.05495 -3.0296,0 -8.6354,1.17589 -13.5934,2.85144 -5.2907,1.78794 -9.1835,2.57949 -10.4376,2.12229 -1.1,-0.40104 -4.3625,-0.49623 -7.25,-0.21154 -3.5656,0.35155 -5.25,0.1519 -5.25,-0.62229 0,-2.15904 -9.4686,-1.19293 -18.5624,1.89397 -6.6039,2.24168 -9.9168,2.87152 -12.6876,2.4121 -2.0625,-0.34197 -3.75,-1.01648 -3.75,-1.49891 0,-1.39637 -13.5462,-0.27018 -32.3911,2.69288 -2.14,0.33649 -6.3211,0.0288 -9.2912,-0.68368 -4.6901,-1.12513 -6.0967,-1.07593 -10.6969,0.37413 -2.9131,0.91828 -6.4241,1.66961 -7.8021,1.66961 -1.3781,0 -5.1635,0.93665 -8.4121,2.08145 -5.0311,1.77294 -7.3147,1.99125 -15.4066,1.47291 -8.4839,-0.54346 -10.2946,-0.33812 -16.92851,1.91969 -6.90427,2.34981 -8.49215,2.50331 -22.5,2.17511 -14.65847,-0.34345 -15.35923,-0.26422 -25.57149,2.89092 -5.775,1.78423 -13.875,3.53068 -18,3.881 -4.125,0.35032 -9.75,1.26343 -12.5,2.02913 -2.75,0.7657 -7.65632,2.14733 -10.90292,3.07029 -4.69425,1.3345 -8.07277,1.54225 -16.5,1.01461 -9.16759,-0.57399 -11.37689,-0.39088 -16.37796,1.35746 -3.17949,1.11153 -6.41163,1.77892 -7.18253,1.4831 -0.7709,-0.29582 -5.1445,0.57652 -9.71911,1.93854 -4.57462,1.36201 -11.83132,2.76966 -16.12601,3.1281 -4.29469,0.35843 -9.01969,1.11289 -10.5,1.67657 -1.48031,0.56367 -5.61647,1.18074 -9.19147,1.37126 -3.575,0.19052 -8.35749,1.0188 -10.62776,1.84064 -2.78867,1.0095 -8.14142,1.50994 -16.5,1.54262 -11.85642,0.0464 -13.08607,0.25831 -29.49385,5.08345 -16.12436,4.74179 -17.75848,5.03109 -28.05592,4.96691 -10.29665,-0.0642 -11.94538,0.22764 -28.27205,5.00404 -14.12623,4.13266 -18.74707,5.0722 -24.94619,5.0722 -5.47908,0 -10.54647,0.84481 -18.10634,3.01859 -5.77384,1.66023 -12.52289,3.00312 -14.99789,2.9842 -6.13202,-0.0469 -9.09093,0.42126 -11.76131,1.86073 -1.24373,0.67043 -2.81873,1.10599 -3.5,0.96791 -0.68128,-0.13807 -2.17945,0.27081 -3.32926,0.90863 -1.14982,0.63781 -2.94982,1.16752 -4,1.17712 -7.77939,0.0712 -25.71947,2.11756 -29.40943,3.3547 -5.98986,2.00823 -10.31232,3.09952 -11.33858,2.86263 -0.46121,-0.10646 -8.33434,1.89322 -17.49584,4.44372 -9.16149,2.55051 -20.25913,5.01697 -24.66142,5.48102 -8.4919,0.89514 -16.49072,2.54444 -28.5582,5.88851 -4.07317,1.12873 -10.33981,2.06324 -13.92586,2.07669 -3.58606,0.0134 -8.3201,0.43859 -10.5201,0.94477 -2.2,0.50617 -7.97149,1.41205 -12.82554,2.01306 -4.85404,0.60101 -15.596,2.91203 -23.87102,5.1356 -8.27501,2.22357 -20.35104,5.08042 -26.83561,6.34856 -6.48458,1.26814 -12.24693,2.58802 -12.80525,2.93308 -0.6443,0.3982 -0.85753,-0.74736 -0.58372,-3.13608 z"
         id="path3849"
         inkscape:connector-curvature="0" />
      <path
         style="fill:#fd583e"
         d="m 1041.6442,1423.2551 -23.57,-0.3567 -1.3237,-6.7325 c -7.4682,-37.9848 -25.55302,-94.91 -43.72882,-137.6451 -13.2842,-31.2339 -36.3981,-75.8366 -52.1068,-100.55 -2.2595,-3.5546 -3.9423,-6.6288 -3.7396,-6.8314 0.2027,-0.2028 23.4694,-0.774 51.7038,-1.2696 82.58632,-1.4495 145.71592,-3.5525 179.33522,-5.974 50.1271,-3.6108 95.1401,-11.7723 135.8419,-24.6299 4.3149,-1.3631 7.9883,-2.333 8.1631,-2.1553 0.1748,0.1777 2.2032,5.0481 4.5076,10.8231 23.0381,57.7369 43.4779,125.5394 56.373,187 7.6293,36.3629 15.3515,83.696 13.883,85.095 -2.1291,2.0283 -56.3454,3.055 -174.7686,3.3098 -69.85,0.1503 -137.6065,0.1127 -150.5701,-0.083 z M -141.13169,1087.1837 c -9.57166,-40.5246 -13.91708,-79.7102 -15.16468,-136.75005 -1.05416,-48.1959 -1.2835,-246.7441 -0.3279,-283.8812 l 0.66145,-25.7056 12.99773,-8.0747 c 67.212286,-41.7546 148.30425,-78.9897 220.67937,-101.3296 8.525,-2.6314 16.01621,-4.9778 16.64713,-5.2141 1.61032,-0.6034 2.18971,13.345 2.85392,68.7052 0.78981,65.8286 2.94276,130.8876 5.55951,168 3.57559,50.7113 10.9662,91.7544 24.77348,137.5772 l 0.92722,3.0771 -16.63063,7.2895 c -65.24641,28.5987 -130.04658,71.1806 -183.57592,120.63265 -16.346861,15.1017 -40.71499,40.2214 -54.01636,55.6823 -6.02891,7.0077 -11.27917,12.7413 -11.66725,12.7413 -0.38808,0 -2.06076,-5.7375 -3.71707,-12.75 z m 955.72532,-52.9394 -11.62065,-0.3718 -11.87935,-10.5717 C 696.91264,939.48685 581.80062,884.28015 461.00995,864.99535 c -40.61284,-6.484 -84.01644,-9.0767 -121.45631,-7.2552 -24.03442,1.1694 -49.75999,3.6785 -68.29741,6.6615 -5.23623,0.8426 -9.77323,1.532 -10.08221,1.532 -1.82242,0 -10.52184,-26.4474 -14.83476,-45.0997 -3.85975,-16.6924 -7.86791,-43.0414 -9.56825,-62.9003 -3.3421,-39.0335 -5.23295,-114.6235 -4.8652,-194.4946 l 0.30847,-66.9946 13.28498,-1.6654 c 19.8518,-2.4887 44.25159,-4.6432 67.21502,-5.9351 33.71639,-1.8969 125.70127,-0.1668 138.61935,2.6071 1.71509,0.3683 2.25021,1.4592 2.80542,5.7189 2.8446,21.8246 13.11681,58.2229 23.69193,83.9495 30.5225,74.2536 82.03717,135.2627 150.81162,178.6071 15.16897,9.5601 48.0912,25.7839 65.07168,32.0667 79.85598,29.5468 163.9541,31.7668 246,6.4938 24.3717,-7.5073 59.1369,-22.8749 80.54422,-35.6038 4.9743,-2.9577 9.7646,-5.6541 10.645,-5.992 1.8075,-0.6936 43.798,41.1769 63.9249,63.7424 48.9336,54.8622 94.0835,117.1399 130.1904,179.57835 3.6825,6.3681 6.6955,11.8615 6.6955,12.2076 0,1.6778 -32.3962,9.6012 -51.5,12.5957 -26.7527,4.1937 -43.3322,5.5242 -102.5,8.2257 -22.1909,1.0133 -238.18652,2.0009 -263.12067,1.2032 z m -7.05145,-353.36835 c -31.03077,-2.1624 -61.49101,-10.6759 -90.3279,-25.246 -52.28253,-26.4164 -93.18782,-71.2929 -113.95011,-125.0129 -2.50244,-6.4747 -4.54989,-12.238 -4.54989,-12.8073 0,-1.3247 2.43023,-0.7897 23.5,5.1732 83.72546,23.6949 162.58709,57.7992 237.5,102.7086 18.843,11.2962 54.4163,34.4887 55.4398,36.1447 0.8809,1.4253 -3.2694,3.3604 -17.1807,8.0108 -27.0441,9.0405 -60.4684,13.1169 -90.4312,11.0289 z m -964.29381,-500.6625 c -0.38651,-0.97889 -1.11938,-26.0798 -1.6286,-55.7798 -1.42063,-82.85875 0.28803,-219.34725 3.16724,-253 8.81243,-103.00155 38.96265,-183.72785 94.78547,-253.78515 13.32675,-16.72499 46.75556,-50.21202 63.37151,-63.48187 21.05153,-16.8122 47.25799,-33.46722 72.71679,-46.21377 54.18166,-27.12733 101.69253,-39.94838 178.0535,-48.04866 32.83204,-3.48278 146.70519,-4.14074 634,-3.66326 445.25932,0.43629 474.98052,0.67967 512.17252,4.19413 32.3335,3.05535 66.5672,8.90451 93.3431,15.94854 89.136,23.44936 166.5655,74.05639 223.4588,146.05004 31.4185,39.75748 59.4557,97.4327 72.9183,150 2.8533,11.14126 6.4478,29.55372 5.8626,30.03095 -0.629,0.51299 -69.5924,28.62699 -101.2553,41.27832 -49.0249,19.58852 -95.2416,37.48975 -150.1335,58.15154 l -47.1335,17.74146 -1.3665,-2.68221 c -2.2586,-4.43321 -14.6791,-22.79135 -23.3963,-34.581 -23.4376,-31.69817 -57.3842,-65.28305 -87.5559,-86.62282 -54.1074,-38.26895 -122.3326,-63.08799 -199.9143,-72.72503 -26.1369,-3.24667 -39.2125,-4.12135 -108,-7.22448 -35.6376,-1.60767 -398.79925,-2.35377 -458.50002,-0.94195 -79.88609,1.88915 -124.44532,4.45391 -159,9.15179 -58.51533,7.95545 -114.05826,25.72852 -158.97364,50.86968 -65.75666,36.80696 -122.71597,98.30813 -153.3276,165.55375 -20.42528,44.86892 -32.37609,87.84538 -40.73843,146.5 -4.4776,31.40647 -4.46936,31.35157 -4.73535,31.55785 -0.12374,0.096 -6.97498,1.78806 -15.22498,3.76021 -8.25,1.97215 -34.8,8.35522 -59,14.1846 -24.2,5.82938 -64.25,15.27829 -89,20.99757 -24.75,5.71928 -53.325,12.86317 -63.5,15.87531 -10.175,3.01213 -20.525,5.98666 -23,6.61006 -2.475,0.62339 -5.23421,1.34507 -6.13157,1.60372 -0.95001,0.27383 -1.92515,-0.2732 -2.33434,-1.30952 z M 242.29314,81.19709 c 5.70553,-49.77554 24.97357,-98.49465 52.50213,-132.75127 8.2462,-10.26159 28.17186,-30.18697 38.43118,-38.43062 43.16367,-34.68325 101.07869,-54.23182 177.98783,-60.07782 49.01345,-3.72559 80.90051,-4.27923 272.5,-4.73131 280.77542,-0.66249 355.65902,1.58482 411.50002,12.34944 70.3551,13.56253 119.7608,41.73004 158.5231,90.37814 5.7403,7.20418 8.5528,12 7.0375,12 -0.5449,0 -3.0674,-0.70505 -5.6055,-1.56678 -4.1696,-1.41559 -5.052,-1.41785 -9.1445,-0.0234 -3.3891,1.1548 -5.0363,1.27218 -6.5422,0.46621 -1.107,-0.59244 -3.3078,-0.81816 -4.8906,-0.5016 -2.1162,0.42325 -2.8778,0.19027 -2.8778,-0.88038 0,-2.19829 -4.0802,-2.77767 -10.1042,-1.43476 -6.8022,1.51643 -12.7242,1.49664 -20.5328,-0.0686 -5.7568,-1.15395 -6.6369,-1.06371 -14.204,1.45636 -8.8405,2.94415 -14.7366,3.11486 -14.5398,0.42096 0.2262,-3.09566 -7.9878,-3.24251 -16.8212,-0.30074 l -7.7712,2.58804 -3.1004,-2.2077 c -2.7937,-1.9893 -3.8585,-2.14191 -10.7634,-1.54265 -4.2147,0.36578 -9.825,1.36862 -12.4675,2.22853 -4.2341,1.37785 -5.1608,1.39095 -7.805,0.11035 l -3.0004,-1.45314 4.5836,-1.28333 c 2.521,-0.70584 4.3941,-1.47288 4.1625,-1.70453 -0.2317,-0.23166 -2.9686,0.31936 -6.0821,1.22448 -5.7257,1.6645 -14.7091,1.33201 -17.1512,-0.6348 -0.6606,-0.53203 -3.915,-0.0364 -8.18,1.24583 -4.2177,1.26799 -7.8191,1.82078 -8.9029,1.36652 -1.001,-0.41956 -5.152,-0.75366 -9.2244,-0.74243 -5.3038,0.0146 -8.2168,-0.47367 -10.2682,-1.72119 -2.7782,-1.68954 -3.0949,-1.66065 -10.5956,0.96639 -4.2525,1.48939 -9.5926,2.99402 -11.8669,3.34362 -3.5798,0.55028 -4.2051,0.36797 -4.6564,-1.35781 -0.7476,-2.85913 -5.551,-2.5959 -15.7908,0.86535 -7.6249,2.57741 -8.6736,2.71526 -10.6537,1.40049 -3.9064,-2.59377 -19.2553,-1.99281 -27.8933,1.0921 -2.3763,0.84867 -7.8951,1.50427 -13,1.54434 -4.8789,0.0383 -11.1207,0.10674 -13.8707,0.1521 -10.8839,0.17957 -14.1722,0.0739 -18.3793,-0.59074 -2.7207,-0.4298 -5.8454,-0.208 -8.25,0.58561 -3.0725,1.01401 -4.644,1.02688 -7.6207,0.0624 -3.2368,-1.04872 -4.5584,-0.93377 -9.6566,0.83994 -3.2486,1.13022 -8.22662,2.05495 -11.06242,2.05495 -3.0296,0 -8.6354,1.17589 -13.5934,2.85144 -5.2907,1.78794 -9.1835,2.57949 -10.4376,2.12229 -1.1,-0.40104 -4.3625,-0.49623 -7.25,-0.21154 -3.5656,0.35155 -5.25,0.1519 -5.25,-0.62229 0,-2.15904 -9.4686,-1.19293 -18.5624,1.89397 -6.6039,2.24168 -9.9168,2.87152 -12.6876,2.4121 -2.0625,-0.34197 -3.75,-1.01648 -3.75,-1.49891 0,-1.39637 -13.5462,-0.27018 -32.3911,2.69288 -2.14,0.33649 -6.3211,0.0288 -9.2912,-0.68368 -4.6901,-1.12513 -6.0967,-1.07593 -10.6969,0.37413 -2.9131,0.91828 -6.4241,1.66961 -7.8021,1.66961 -1.3781,0 -5.1635,0.93665 -8.4121,2.08145 -5.0311,1.77294 -7.3147,1.99125 -15.4066,1.47291 -8.4839,-0.54346 -10.2946,-0.33812 -16.92851,1.91969 -6.90427,2.34981 -8.49215,2.50331 -22.5,2.17511 -14.65847,-0.34345 -15.35923,-0.26422 -25.57149,2.89092 -5.775,1.78423 -13.875,3.53068 -18,3.881 -4.125,0.35032 -9.75,1.26343 -12.5,2.02913 -2.75,0.7657 -7.65632,2.14733 -10.90292,3.07029 -4.69425,1.3345 -8.07277,1.54225 -16.5,1.01461 -9.16759,-0.57399 -11.37689,-0.39088 -16.37796,1.35746 -3.17949,1.11153 -6.41163,1.77892 -7.18253,1.4831 -0.7709,-0.29582 -5.1445,0.57652 -9.71911,1.93854 -4.57462,1.36201 -11.83132,2.76966 -16.12601,3.1281 -4.29469,0.35843 -9.01969,1.11289 -10.5,1.67657 -1.48031,0.56367 -5.61647,1.18074 -9.19147,1.37126 -3.575,0.19052 -8.35749,1.0188 -10.62776,1.84064 -2.78867,1.0095 -8.14142,1.50994 -16.5,1.54262 -11.85642,0.0464 -13.08607,0.25831 -29.49385,5.08345 -16.12436,4.74179 -17.75848,5.03109 -28.05592,4.96691 -10.29665,-0.0642 -11.94538,0.22764 -28.27205,5.00404 -14.12623,4.13266 -18.74707,5.0722 -24.94619,5.0722 -5.47908,0 -10.54647,0.84481 -18.10634,3.01859 -5.77384,1.66023 -12.52289,3.00312 -14.99789,2.9842 -6.13202,-0.0469 -9.09093,0.42126 -11.76131,1.86073 -1.24373,0.67043 -2.81873,1.10599 -3.5,0.96791 -0.68128,-0.13807 -2.17945,0.27081 -3.32926,0.90863 -1.14982,0.63781 -2.94982,1.16752 -4,1.17712 -7.77939,0.0712 -25.71947,2.11756 -29.40943,3.3547 -5.98986,2.00823 -10.31232,3.09952 -11.33858,2.86263 -0.46121,-0.10646 -8.33434,1.89322 -17.49584,4.44372 -9.16149,2.55051 -20.25913,5.01697 -24.66142,5.48102 -8.4919,0.89514 -16.49072,2.54444 -28.5582,5.88851 -4.07317,1.12873 -10.33981,2.06324 -13.92586,2.07669 -3.58606,0.0134 -8.3201,0.43859 -10.5201,0.94477 -2.2,0.50617 -7.97149,1.41205 -12.82554,2.01306 -4.85404,0.60101 -15.596,2.91203 -23.87102,5.1356 -8.27501,2.22357 -20.35104,5.08042 -26.83561,6.34856 -6.48458,1.26814 -12.24693,2.58802 -12.80525,2.93308 -0.6443,0.3982 -0.85753,-0.74736 -0.58372,-3.13608 z"
         id="path3847"
         inkscape:connector-curvature="0" />
      <path
         style="fill:#ab34ae"
         d="m -156.75163,180.21345 c -0.38651,-0.97889 -1.11938,-26.0798 -1.6286,-55.7798 -1.42063,-82.85875 0.28803,-219.34725 3.16724,-253 8.81243,-103.00155 38.96265,-183.72785 94.78547,-253.78515 13.32675,-16.72499 46.75556,-50.21202 63.37151,-63.48187 21.05153,-16.8122 47.25799,-33.46722 72.71679,-46.21377 54.18166,-27.12733 101.69253,-39.94838 178.0535,-48.04866 32.83204,-3.48278 146.70519,-4.14074 634,-3.66326 445.25932,0.43629 474.98052,0.67967 512.17252,4.19413 32.3335,3.05535 66.5672,8.90451 93.3431,15.94854 89.136,23.44936 166.5655,74.05639 223.4588,146.05004 31.4185,39.75748 59.4557,97.4327 72.9183,150 2.8533,11.14126 6.4478,29.55372 5.8626,30.03095 -0.629,0.51299 -69.5924,28.62699 -101.2553,41.27832 -49.0249,19.58852 -95.2416,37.48975 -150.1335,58.15154 l -47.1335,17.74146 -1.3665,-2.68221 c -2.2586,-4.43321 -14.6791,-22.79135 -23.3963,-34.581 -23.4376,-31.69817 -57.3842,-65.28305 -87.5559,-86.62282 -54.1074,-38.26895 -122.3326,-63.08799 -199.9143,-72.72503 -26.1369,-3.24667 -39.2125,-4.12135 -108,-7.22448 -35.6376,-1.60767 -398.79925,-2.35377 -458.50002,-0.94195 -79.88609,1.88915 -124.44532,4.45391 -159,9.15179 -58.51533,7.95545 -114.05826,25.72852 -158.97364,50.86968 -65.75666,36.80696 -122.71597,98.30813 -153.3276,165.55375 -20.42528,44.86892 -32.37609,87.84538 -40.73843,146.5 -4.4776,31.40647 -4.46936,31.35157 -4.73535,31.55785 -0.12374,0.096 -6.97498,1.78806 -15.22498,3.76021 -8.25,1.97215 -34.8,8.35522 -59,14.1846 -24.2,5.82938 -64.25,15.27829 -89,20.99757 -24.75,5.71928 -53.325,12.86317 -63.5,15.87531 -10.175,3.01213 -20.525,5.98666 -23,6.61006 -2.475,0.62339 -5.23421,1.34507 -6.13157,1.60372 -0.95001,0.27383 -1.92515,-0.2732 -2.33434,-1.30952 z M 242.29314,81.19709 c 5.70553,-49.77554 24.97357,-98.49465 52.50213,-132.75127 8.2462,-10.26159 28.17186,-30.18697 38.43118,-38.43062 43.16367,-34.68325 101.07869,-54.23182 177.98783,-60.07782 49.01345,-3.72559 80.90051,-4.27923 272.5,-4.73131 280.77542,-0.66249 355.65902,1.58482 411.50002,12.34944 70.3551,13.56253 119.7608,41.73004 158.5231,90.37814 5.7403,7.20418 8.5528,12 7.0375,12 -0.5449,0 -3.0674,-0.70505 -5.6055,-1.56678 -4.1696,-1.41559 -5.052,-1.41785 -9.1445,-0.0234 -3.3891,1.1548 -5.0363,1.27218 -6.5422,0.46621 -1.107,-0.59244 -3.3078,-0.81816 -4.8906,-0.5016 -2.1162,0.42325 -2.8778,0.19027 -2.8778,-0.88038 0,-2.19829 -4.0802,-2.77767 -10.1042,-1.43476 -6.8022,1.51643 -12.7242,1.49664 -20.5328,-0.0686 -5.7568,-1.15395 -6.6369,-1.06371 -14.204,1.45636 -8.8405,2.94415 -14.7366,3.11486 -14.5398,0.42096 0.2262,-3.09566 -7.9878,-3.24251 -16.8212,-0.30074 l -7.7712,2.58804 -3.1004,-2.2077 c -2.7937,-1.9893 -3.8585,-2.14191 -10.7634,-1.54265 -4.2147,0.36578 -9.825,1.36862 -12.4675,2.22853 -4.2341,1.37785 -5.1608,1.39095 -7.805,0.11035 l -3.0004,-1.45314 4.5836,-1.28333 c 2.521,-0.70584 4.3941,-1.47288 4.1625,-1.70453 -0.2317,-0.23166 -2.9686,0.31936 -6.0821,1.22448 -5.7257,1.6645 -14.7091,1.33201 -17.1512,-0.6348 -0.6606,-0.53203 -3.915,-0.0364 -8.18,1.24583 -4.2177,1.26799 -7.8191,1.82078 -8.9029,1.36652 -1.001,-0.41956 -5.152,-0.75366 -9.2244,-0.74243 -5.3038,0.0146 -8.2168,-0.47367 -10.2682,-1.72119 -2.7782,-1.68954 -3.0949,-1.66065 -10.5956,0.96639 -4.2525,1.48939 -9.5926,2.99402 -11.8669,3.34362 -3.5798,0.55028 -4.2051,0.36797 -4.6564,-1.35781 -0.7476,-2.85913 -5.551,-2.5959 -15.7908,0.86535 -7.6249,2.57741 -8.6736,2.71526 -10.6537,1.40049 -3.9064,-2.59377 -19.2553,-1.99281 -27.8933,1.0921 -2.3763,0.84867 -7.8951,1.50427 -13,1.54434 -4.8789,0.0383 -11.1207,0.10674 -13.8707,0.1521 -10.8839,0.17957 -14.1722,0.0739 -18.3793,-0.59074 -2.7207,-0.4298 -5.8454,-0.208 -8.25,0.58561 -3.0725,1.01401 -4.644,1.02688 -7.6207,0.0624 -3.2368,-1.04872 -4.5584,-0.93377 -9.6566,0.83994 -3.2486,1.13022 -8.22662,2.05495 -11.06242,2.05495 -3.0296,0 -8.6354,1.17589 -13.5934,2.85144 -5.2907,1.78794 -9.1835,2.57949 -10.4376,2.12229 -1.1,-0.40104 -4.3625,-0.49623 -7.25,-0.21154 -3.5656,0.35155 -5.25,0.1519 -5.25,-0.62229 0,-2.15904 -9.4686,-1.19293 -18.5624,1.89397 -6.6039,2.24168 -9.9168,2.87152 -12.6876,2.4121 -2.0625,-0.34197 -3.75,-1.01648 -3.75,-1.49891 0,-1.39637 -13.5462,-0.27018 -32.3911,2.69288 -2.14,0.33649 -6.3211,0.0288 -9.2912,-0.68368 -4.6901,-1.12513 -6.0967,-1.07593 -10.6969,0.37413 -2.9131,0.91828 -6.4241,1.66961 -7.8021,1.66961 -1.3781,0 -5.1635,0.93665 -8.4121,2.08145 -5.0311,1.77294 -7.3147,1.99125 -15.4066,1.47291 -8.4839,-0.54346 -10.2946,-0.33812 -16.92851,1.91969 -6.90427,2.34981 -8.49215,2.50331 -22.5,2.17511 -14.65847,-0.34345 -15.35923,-0.26422 -25.57149,2.89092 -5.775,1.78423 -13.875,3.53068 -18,3.881 -4.125,0.35032 -9.75,1.26343 -12.5,2.02913 -2.75,0.7657 -7.65632,2.14733 -10.90292,3.07029 -4.69425,1.3345 -8.07277,1.54225 -16.5,1.01461 -9.16759,-0.57399 -11.37689,-0.39088 -16.37796,1.35746 -3.17949,1.11153 -6.41163,1.77892 -7.18253,1.4831 -0.7709,-0.29582 -5.1445,0.57652 -9.71911,1.93854 -4.57462,1.36201 -11.83132,2.76966 -16.12601,3.1281 -4.29469,0.35843 -9.01969,1.11289 -10.5,1.67657 -1.48031,0.56367 -5.61647,1.18074 -9.19147,1.37126 -3.575,0.19052 -8.35749,1.0188 -10.62776,1.84064 -2.78867,1.0095 -8.14142,1.50994 -16.5,1.54262 -11.85642,0.0464 -13.08607,0.25831 -29.49385,5.08345 -16.12436,4.74179 -17.75848,5.03109 -28.05592,4.96691 -10.29665,-0.0642 -11.94538,0.22764 -28.27205,5.00404 -14.12623,4.13266 -18.74707,5.0722 -24.94619,5.0722 -5.47908,0 -10.54647,0.84481 -18.10634,3.01859 -5.77384,1.66023 -12.52289,3.00312 -14.99789,2.9842 -6.13202,-0.0469 -9.09093,0.42126 -11.76131,1.86073 -1.24373,0.67043 -2.81873,1.10599 -3.5,0.96791 -0.68128,-0.13807 -2.17945,0.27081 -3.32926,0.90863 -1.14982,0.63781 -2.94982,1.16752 -4,1.17712 -7.77939,0.0712 -25.71947,2.11756 -29.40943,3.3547 -5.98986,2.00823 -10.31232,3.09952 -11.33858,2.86263 -0.46121,-0.10646 -8.33434,1.89322 -17.49584,4.44372 -9.16149,2.55051 -20.25913,5.01697 -24.66142,5.48102 -8.4919,0.89514 -16.49072,2.54444 -28.5582,5.88851 -4.07317,1.12873 -10.33981,2.06324 -13.92586,2.07669 -3.58606,0.0134 -8.3201,0.43859 -10.5201,0.94477 -2.2,0.50617 -7.97149,1.41205 -12.82554,2.01306 -4.85404,0.60101 -15.596,2.91203 -23.87102,5.1356 -8.27501,2.22357 -20.35104,5.08042 -26.83561,6.34856 -6.48458,1.26814 -12.24693,2.58802 -12.80525,2.93308 -0.6443,0.3982 -0.85753,-0.74736 -0.58372,-3.13608 z"
         id="path3845"
         inkscape:connector-curvature="0" />
      <path
         style="fill:#8f34c4"
         d="m -156.68288,41.18365 c -1.90591,-27.36186 -1.00587,-140.8749 1.33404,-168.25 8.93689,-104.55466 38.78853,-184.83883 94.92132,-255.28515 13.32675,-16.72499 46.75556,-50.21202 63.37151,-63.48187 21.05153,-16.8122 47.25799,-33.46722 72.71679,-46.21377 54.18166,-27.12733 101.69253,-39.94838 178.0535,-48.04866 33.31817,-3.53434 146.32779,-4.17258 625.5,-3.53261 237.05002,0.3166 437.97502,0.79448 446.50002,1.06195 59.4923,1.86654 73.9027,2.89439 106.5,7.59626 53.0912,7.65794 97.1358,20.79754 138.5,41.31807 18.1883,9.02311 25.8987,13.48864 43.6233,25.26476 15.0069,9.97058 18.318,12.78555 16.8031,14.28545 -2.6739,2.6473 -67.4834,38.25628 -108.4264,59.57386 -44.8931,23.37424 -107.4986,53.7058 -165.4001,80.13412 -44.9461,20.51507 -103.8294,46.37732 -106.5083,46.77978 -0.7747,0.11637 -3.9247,-0.38807 -7,-1.12099 -26.6769,-6.35765 -67.9452,-11.49799 -110.5916,-13.77521 -65.1512,-3.47892 -100.0543,-3.94099 -289.00002,-3.82598 -306.78464,0.18674 -369.00389,3.12687 -439.5,20.76828 -55.88224,13.98434 -103.77638,35.96693 -143.5,65.86403 -14.65176,11.02733 -25.8514,20.9042 -42.06311,37.09515 -36.76697,36.71986 -59.84374,71.17376 -82.45866,123.11179 l -7.43232,17.06926 -25.52295,6.63686 c -14.03763,3.65027 -29.53425,7.35994 -34.43693,8.2437 -17.33253,3.1244 -88.6773,21.37501 -103.58603,26.49821 -3.025,1.0395 -22.825,6.0102 -44,11.04599 -48.61321,11.56109 -58.70757,14.13767 -67.96489,17.34799 -4.10568,1.4238 -7.99541,2.58873 -8.64383,2.58873 -0.76901,0 -1.39089,-3.04255 -1.78844,-8.75 z M 317.63615,-72.96048 c 27.37764,-29.7552 65.93411,-51.08692 115.92922,-64.13892 44.65378,-11.65756 108.20966,-16.01309 231.64891,-15.87504 l 59,0.066 -11.84555,4.03624 c -11.57455,3.9439 -11.94948,4.00306 -16.38865,2.58628 -4.14973,-1.32441 -5.15885,-1.27741 -11.65445,0.5428 -3.91124,1.09602 -9.25229,1.89875 -11.86899,1.78384 -2.8714,-0.12609 -7.12096,0.65279 -10.71867,1.96458 -3.3123,1.20773 -7.14384,1.94739 -8.62299,1.66464 -1.65661,-0.31668 -7.61682,1.16537 -15.78133,3.92416 -8.56912,2.8955 -14.07316,4.2434 -15.86937,3.8863 -1.5125,-0.3007 -4.07057,-0.81849 -5.6846,-1.15063 -1.90011,-0.39102 -5.73224,0.32779 -10.87079,2.03909 -5.66114,1.88533 -9.76491,2.59927 -14.3154,2.49046 -4.84329,-0.11581 -8.53111,0.59708 -15.3168,2.9609 -4.91567,1.7124 -9.64067,3.11478 -10.5,3.1164 -0.85932,0.002 -10.56241,2.86819 -21.56241,6.37016 -11.65521,3.71057 -22.83813,6.64386 -26.80217,7.03025 -3.7412,0.36467 -11.68824,2.14436 -17.6601,3.95488 -9.72995,2.94988 -11.12944,3.1496 -13.47154,1.92245 -1.43749,-0.75318 -3.02484,-1.11526 -3.52744,-0.80464 -0.50261,0.31063 -5.95517,2.11259 -12.11681,4.00435 -8.12465,2.49445 -11.69715,3.17509 -13.00144,2.47705 -2.19883,-1.17678 -8.83489,0.0868 -21.68246,4.12872 -5.09407,1.60261 -10.71907,2.91809 -12.5,2.92329 -1.78092,0.005 -11.33804,2.47892 -21.23804,5.49717 -9.9,3.01825 -19.72245,5.48899 -21.82766,5.49054 -2.10522,0.002 -14.61161,3.16864 -27.79199,7.03795 -20.54713,6.03196 -24.95116,7.01023 -30.88492,6.86048 -5.2102,-0.13149 -7.60949,0.2733 -9.70801,1.63786 -1.53308,0.99687 1.45242,-2.79554 6.63445,-8.42759 z"
         id="path3843"
         inkscape:connector-curvature="0" />
      <path
         style="fill:#634dc7"
         d="m -155.02526,-106.93945 c 0.53659,-31.4124 2.72369,-53.45141 8.34855,-84.1269 13.18843,-71.92383 41.92728,-135.66141 86.24919,-191.28515 13.32675,-16.72499 46.75556,-50.21202 63.37151,-63.48187 21.05153,-16.8122 47.25799,-33.46722 72.71679,-46.21377 54.17864,-27.12582 101.62343,-39.93004 178.0535,-48.05243 27.31682,-2.90301 116.58775,-3.85582 362,-3.8637 232.5649,-0.008 417.86922,1.43276 419.69842,3.26199 0.2451,0.24508 -4.6493,4.60639 -10.8764,9.6918 -75.43672,61.60587 -192.23162,128.48028 -341.21868,195.37491 -20.47444,9.19295 -26.52065,11.48021 -32.78968,12.40422 -4.22749,0.6231 -10.30249,2.29779 -13.5,3.72152 -26.67974,11.87952 -48.49538,20.27507 -55.54178,21.37473 -4.86274,0.75888 -13.13345,3.38461 -22.30665,7.08177 -13.71269,5.52674 -15.21363,5.91204 -25.27188,6.48744 -20.49033,1.1722 -58.12716,5.00108 -79.19335,8.05652 -59.50045,8.62994 -121.45533,29.9306 -166.90048,57.3819 -9.86369,5.9582 -28.59689,18.73387 -42.0627,28.68592 -3.55475,2.62718 -7.15475,4.8337 -8,4.90338 -4.50682,0.37154 -11.31086,2.18178 -28.03682,7.45929 -96.30957,30.38842 -244.5041,71.57136 -344.87282,95.83941 l -20.37282,4.92592 0.50609,-29.6269 z"
         id="path3841"
         inkscape:connector-curvature="0" />
    </g>
  </g>
</svg>
