<?xml version="1.0" encoding="UTF-8" standalone="no"?>
<!-- Created with Inkscape (http://www.inkscape.org/) -->

<svg
   xmlns:dc="http://purl.org/dc/elements/1.1/"
   xmlns:cc="http://creativecommons.org/ns#"
   xmlns:rdf="http://www.w3.org/1999/02/22-rdf-syntax-ns#"
   xmlns:svg="http://www.w3.org/2000/svg"
   xmlns="http://www.w3.org/2000/svg"
   xmlns:sodipodi="http://sodipodi.sourceforge.net/DTD/sodipodi-0.dtd"
   xmlns:inkscape="http://www.inkscape.org/namespaces/inkscape"
   width="500"
   height="500"
   viewBox="0 0 500.00001 500.00001"
   id="svg2"
   version="1.1"
   inkscape:version="0.91 r13725"
   sodipodi:docname="LinkedIn.svg">
  <defs
     id="defs4" />
  <sodipodi:namedview
     id="base"
     pagecolor="#ffffff"
     bordercolor="#666666"
     borderopacity="1.0"
     inkscape:pageopacity="0.0"
     inkscape:pageshadow="2"
     inkscape:zoom="1.4"
     inkscape:cx="126.68156"
     inkscape:cy="283.7954"
     inkscape:document-units="px"
     inkscape:current-layer="layer1"
     showgrid="false"
     units="px"
     inkscape:window-width="1920"
     inkscape:window-height="1029"
     inkscape:window-x="0"
     inkscape:window-y="25"
     inkscape:window-maximized="1" />
  <metadata
     id="metadata7">
    <rdf:RDF>
      <cc:Work
         rdf:about="">
        <dc:format>image/svg+xml</dc:format>
        <dc:type
           rdf:resource="http://purl.org/dc/dcmitype/StillImage" />
        <dc:title></dc:title>
      </cc:Work>
    </rdf:RDF>
  </metadata>
  <g
     inkscape:label="Layer 1"
     inkscape:groupmode="layer"
     id="layer1"
     transform="translate(0,-552.36216)">
    <path
       style="fill:#0173b2"
       d="m 44.513196,1035.8513 c -12.218067,-2.0573 -22.594245,-11.0155 -26.869922,-23.198 l -1.290623,-3.6772 -0.117932,-205.36943 c -0.130471,-227.15562 -0.376851,-208.52819 2.847852,-215.31844 0.873949,-1.84032 2.230469,-4.27835 3.014472,-5.41784 3.346384,-4.86381 9.269713,-9.51978 15.151673,-11.90985 6.869207,-2.7912 -9.356866,-2.60452 214.451474,-2.46725 l 204.5501,0.12547 3.21765,1.08012 c 11.88981,3.99128 20.01124,12.03559 23.50528,23.28202 0.83066,2.67369 0.85688,9.07286 0.85688,209.37657 l 0,206.61863 -1.29066,3.6772 c -1.88999,5.3851 -4.58013,9.6422 -8.56889,13.5601 -3.72778,3.6616 -6.98332,5.8258 -11.5198,7.6582 -6.4856,2.6196 7.74574,2.459 -212.74456,2.4004 -111.65867,-0.03 -203.995516,-0.2191 -205.192994,-0.4207 z m 109.968244,-180.40274 0,-111.46831 -34.47474,0 -34.474735,0 0,111.16188 c 0,61.13902 0.137899,111.29974 0.306445,111.46831 0.168537,0.16853 15.68217,0.30643 34.47474,0.30643 l 34.16829,0 0,-111.46831 z m 113.11035,48.95413 c 0.28196,-66.76588 0.22946,-65.31728 2.7264,-75.22603 3.17553,-12.60169 9.36542,-21.14684 18.61472,-25.69765 6.76947,-3.33071 13.85126,-4.6379 22.75332,-4.19996 18.5652,0.91334 28.6554,10.75195 32.18184,31.3794 1.56945,9.18024 1.81532,19.81611 1.82442,78.91835 l 0.009,57.34588 34.58966,-0.11782 34.58965,-0.11782 0.14016,-64.35285 c 0.14591,-66.98989 -0.0529,-77.20153 -1.76409,-90.6226 -4.17527,-32.74679 -15.82453,-52.98284 -36.88231,-64.06868 -5.92953,-3.12159 -15.56753,-6.22004 -23.75543,-7.63694 -9.15378,-1.58404 -24.38904,-2.00135 -32.33742,-0.88574 -22.57861,3.16905 -41.82811,14.92261 -52.33693,31.95645 -1.09717,1.7784 -2.25058,3.23523 -2.56315,3.23739 -0.43735,0.003 -0.59621,-3.46478 -0.68949,-15.05002 l -0.12119,-15.05398 -32.98084,-0.11795 -32.98082,-0.11796 0,111.47429 0,111.47427 34.35981,-0.11782 34.35982,-0.11786 0.26305,-62.28435 z M 128.1851,712.4541 c 14.31405,-2.94407 25.38456,-12.771 30.37198,-26.96025 1.63713,-4.65762 1.65817,-4.81032 1.66412,-12.0719 0.005,-6.28305 -0.14521,-7.87642 -1.03204,-10.93607 -3.31689,-11.44366 -11.4331,-21.02397 -21.91306,-25.86601 -6.28608,-2.90435 -9.79586,-3.63609 -17.2694,-3.60047 -5.85363,0.0279 -7.15741,0.18134 -10.70859,1.26025 -6.92098,2.10272 -11.766234,4.8981 -16.808765,9.69751 -7.299542,6.94759 -11.679576,16.36387 -12.322885,26.49197 -1.271884,20.0243 12.500087,38.09655 32.02597,42.02601 4.20584,0.84641 11.7723,0.82699 15.99267,-0.0411 z"
       id="path3347"
       inkscape:connector-curvature="0" />
  </g>
</svg>
