<?xml version="1.0" encoding="UTF-8" standalone="no"?>
<!-- Created with Inkscape (http://www.inkscape.org/) -->

<svg
   xmlns:dc="http://purl.org/dc/elements/1.1/"
   xmlns:cc="http://creativecommons.org/ns#"
   xmlns:rdf="http://www.w3.org/1999/02/22-rdf-syntax-ns#"
   xmlns:svg="http://www.w3.org/2000/svg"
   xmlns="http://www.w3.org/2000/svg"
   xmlns:sodipodi="http://sodipodi.sourceforge.net/DTD/sodipodi-0.dtd"
   xmlns:inkscape="http://www.inkscape.org/namespaces/inkscape"
   width="1000"
   height="1000"
   viewBox="0 0 264.58333 264.58334"
   version="1.1"
   id="svg8"
   inkscape:version="0.92.2 5c3e80d, 2017-08-06"
   sodipodi:docname="scribbles.svg">
  <defs
     id="defs2" />
  <sodipodi:namedview
     id="base"
     pagecolor="#ffffff"
     bordercolor="#666666"
     borderopacity="1.0"
     inkscape:pageopacity="0.0"
     inkscape:pageshadow="2"
     inkscape:zoom="0.7"
     inkscape:cx="434.08143"
     inkscape:cy="582.96763"
     inkscape:document-units="mm"
     inkscape:current-layer="layer1"
     showgrid="false"
     units="px"
     inkscape:window-width="1920"
     inkscape:window-height="1081"
     inkscape:window-x="0"
     inkscape:window-y="1"
     inkscape:window-maximized="1" />
  <metadata
     id="metadata5">
    <rdf:RDF>
      <cc:Work
         rdf:about="">
        <dc:format>image/svg+xml</dc:format>
        <dc:type
           rdf:resource="http://purl.org/dc/dcmitype/StillImage" />
        <dc:title />
      </cc:Work>
    </rdf:RDF>
  </metadata>
  <g
     inkscape:label="Layer 1"
     inkscape:groupmode="layer"
     id="layer1"
     transform="translate(0,-32.416658)">
    <path
       style="fill:#040404;stroke-width:0.4897705"
       d="m 17.689726,279.21102 c -0.126296,-0.20437 -0.01704,-1.36145 0.242821,-2.57131 0.259857,-1.20983 0.90118,-4.3486 1.425164,-6.97498 0.523983,-2.6264 1.408866,-7.03433 1.966405,-9.79541 0.557539,-2.76109 1.384028,-7.00372 1.83664,-9.42809 0.452611,-2.42436 0.961694,-4.62832 1.131294,-4.89769 0.1696,-0.26937 0.58142,-2.47334 0.915154,-4.89772 0.333736,-2.42435 0.774939,-4.62832 0.98045,-4.89769 0.205513,-0.26938 0.646306,-2.47335 0.979542,-4.89772 0.333235,-2.42435 0.776324,-4.62832 0.984639,-4.8977 0.208317,-0.26936 0.65523,-2.53536 0.993143,-5.03553 0.337912,-2.50017 0.802537,-4.66204 1.032498,-4.80415 0.229962,-0.14213 0.418113,-0.81089 0.418113,-1.48615 0,-0.67523 0.23834,-1.67306 0.529645,-2.21736 0.291306,-0.54431 36.883354,-37.34384 81.315676,-81.77673 l 80.786,-80.787066 3.78195,0.470088 c 4.31603,0.536449 9.46224,1.735642 11.6183,2.707346 1.71773,0.774144 7.6095,3.656266 9.48055,4.637688 0.71191,0.373418 2.21308,1.420299 3.33591,2.326404 1.12283,0.906117 2.23186,1.64747 2.46453,1.64747 0.78717,0 11.4115,10.71675 11.4115,11.510774 0,0.149898 0.84564,1.342358 1.87923,2.649937 1.8997,2.403303 4.94784,8.282131 6.90527,13.317888 0.92252,2.373358 1.70462,5.875635 2.8185,12.621311 0.27059,1.63865 -0.42946,2.35532 -81.16702,83.09399 -65.68982,65.69071 -81.732841,81.49155 -82.954373,81.70218 -8.293705,1.43011 -13.394008,2.39157 -14.003571,2.6398 -0.702468,0.28605 -4.858143,1.09764 -14.448228,2.82167 -2.424366,0.43583 -4.848728,0.98323 -5.387477,1.21645 -0.538747,0.23321 -2.852914,0.68992 -5.142589,1.01493 -2.289678,0.32501 -4.383446,0.75601 -4.652819,0.95779 -0.269374,0.20177 -2.473342,0.63951 -4.897706,0.97275 -2.424364,0.33324 -4.628331,0.77633 -4.897704,0.98463 -0.269374,0.20833 -2.535363,0.65523 -5.03553,0.99316 -2.500168,0.33791 -4.662043,0.80252 -4.804165,1.03248 -0.320239,0.51817 -1.531356,0.54877 -1.841742,0.0466 z M 105.63002,186.402 c 46.22072,-46.99853 69.39047,-70.5519 93.42892,-94.975801 10.75275,-10.925176 13.75676,-14.24644 13.53049,-14.959387 -0.49299,-1.553244 -4.2917,-4.866413 -7.63556,-6.659546 -5.3552,-2.871724 -4.8018,-3.001839 -10.37174,2.438552 -2.71223,2.649173 -6.03578,6.13905 -7.38565,7.755297 -1.34987,1.616233 -33.43437,34.090745 -71.29887,72.165585 l -68.844571,69.22696 1.199357,0.94799 c 0.659646,0.52139 2.301339,1.70456 3.648209,2.62926 1.346868,0.92472 3.771232,2.89126 5.387475,4.37012 1.616242,1.47886 3.048822,2.69817 3.183507,2.70957 0.134682,0.0114 20.455986,-20.53044 45.158433,-45.6486 z"
       id="path880"
       inkscape:connector-curvature="0" />
  </g>
</svg>
