<?xml version="1.0" encoding="UTF-8" standalone="no"?>
<svg
   xmlns:dc="http://purl.org/dc/elements/1.1/"
   xmlns:cc="http://creativecommons.org/ns#"
   xmlns:rdf="http://www.w3.org/1999/02/22-rdf-syntax-ns#"
   xmlns:svg="http://www.w3.org/2000/svg"
   xmlns="http://www.w3.org/2000/svg"
   xmlns:sodipodi="http://sodipodi.sourceforge.net/DTD/sodipodi-0.dtd"
   xmlns:inkscape="http://www.inkscape.org/namespaces/inkscape"
   version="1.1"
   id="svg3626"
   viewBox="0 0 500 500.00001"
   height="500"
   width="500"
   inkscape:version="0.92.2 5c3e80d, 2017-08-06"
   sodipodi:docname="twitter-work.svg">
  <sodipodi:namedview
     pagecolor="#ffffff"
     bordercolor="#666666"
     borderopacity="1"
     objecttolerance="10"
     gridtolerance="10"
     guidetolerance="10"
     inkscape:pageopacity="0"
     inkscape:pageshadow="2"
     inkscape:window-width="1920"
     inkscape:window-height="1081"
     id="namedview7"
     showgrid="false"
     inkscape:zoom="0.96647231"
     inkscape:cx="334.17499"
     inkscape:cy="246.25641"
     inkscape:window-x="0"
     inkscape:window-y="1"
     inkscape:window-maximized="1"
     inkscape:current-layer="svg3626" />
  <defs
     id="defs3628" />
  <metadata
     id="metadata3631">
    <rdf:RDF>
      <cc:Work
         rdf:about="">
        <dc:format>image/svg+xml</dc:format>
        <dc:type
           rdf:resource="http://purl.org/dc/dcmitype/StillImage" />
        <dc:title />
      </cc:Work>
    </rdf:RDF>
  </metadata>
  <g
     transform="matrix(1.5041291,0,0,1.5041291,-786.61489,-789.2799)"
     id="layer1">
    <path
       id="path3611"
       style="fill:#1da1f2;fill-opacity:1;fill-rule:nonzero;stroke:none"
       d="m 633.89823,812.04479 c 112.46038,0 173.95627,-93.16765 173.95627,-173.95625 0,-2.64628 -0.0539,-5.28062 -0.1726,-7.90305 11.93799,-8.63016 22.31446,-19.39999 30.49762,-31.65984 -10.95459,4.86937 -22.74358,8.14741 -35.11071,9.62551 12.62341,-7.56929 22.31446,-19.54304 26.88583,-33.81739 -11.81284,7.00307 -24.89517,12.09297 -38.82383,14.84055 -11.15723,-11.88436 -27.04079,-19.31655 -44.62892,-19.31655 -33.76374,0 -61.14426,27.38052 -61.14426,61.13233 0,4.79784 0.5364,9.46458 1.58538,13.94057 -50.81546,-2.55686 -95.87353,-26.88582 -126.02546,-63.87991 -5.25082,9.03545 -8.27852,19.53111 -8.27852,30.73006 0,21.21186 10.79366,39.93837 27.20766,50.89296 -10.03077,-0.30992 -19.45363,-3.06348 -27.69044,-7.64676 -0.009,0.25652 -0.009,0.50661 -0.009,0.78077 0,29.60957 21.07478,54.3319 49.0513,59.93435 -5.13757,1.40062 -10.54335,2.15158 -16.12196,2.15158 -3.93364,0 -7.76596,-0.38716 -11.49099,-1.1026 7.78383,24.2932 30.35457,41.97073 57.11525,42.46543 -20.92578,16.40207 -47.28712,26.17062 -75.93712,26.17062 -4.92898,0 -9.79834,-0.28036 -14.58427,-0.84634 27.05868,17.34379 59.18936,27.46396 93.72193,27.46396"
       inkscape:connector-curvature="0" />
  </g>
  <g
     transform="matrix(0.54341816,0,0,0.54341816,207.66281,-101.5687)"
     id="layer1-7"
     inkscape:label="Layer 1">
    <path
       inkscape:connector-curvature="0"
       id="path3596"
       d="m 163.12244,978.2395 c -11.82418,-1.3744 -26.09223,-5.87315 -32.32418,-10.19191 -4.8245,-3.34337 -10.00513,-10.03358 -12.82966,-16.56806 -4.48815,-10.38325 -5.25536,-17.97716 -6.14516,-60.82479 -0.7913,-38.10468 -1.14632,-43.46472 -3.31671,-50.07482 -5.69589,-17.34736 -14.937524,-22.71352 -41.817516,-24.28133 l -13.222417,-0.77122 v -12.6214 -12.6214 l 13.222417,-0.77121 c 15.131244,-0.88256 21.936539,-2.41444 29.070872,-6.54389 6.301834,-3.64759 9.644974,-8.29706 12.753844,-17.73744 2.18946,-6.6485 2.52246,-11.81017 3.26931,-50.67585 0.74657,-38.85138 1.09404,-44.24026 3.40029,-52.73537 4.85022,-17.86595 12.47518,-26.10347 28.99202,-31.32114 11.19312,-3.53591 31.17544,-5.81207 46.32357,-5.27667 l 10.81834,0.38237 v 12.6214 12.6214 l -14.47651,0.744 c -24.72147,1.27054 -33.23903,5.43182 -37.36202,18.25338 -1.64779,5.12426 -2.16145,14.1216 -2.86137,50.1198 -0.89482,46.02351 -1.49828,51.31978 -7.09801,62.29616 -3.29975,6.46805 -11.66955,13.71643 -19.66531,17.03049 -3.78762,1.56987 -6.88657,3.23288 -6.88657,3.69556 0,0.46267 2.92947,2.03021 6.50991,3.48342 12.43514,5.04704 20.26395,14.17873 24.25285,28.289 1.65348,5.84898 2.1976,15.27808 2.87865,49.88457 0.92153,46.82558 1.70538,52.36025 8.35751,59.01238 4.71224,4.71225 15.09004,7.37732 31.92642,8.19889 l 14.42445,0.70388 v 13.22241 13.22242 l -14.42445,0.16065 c -7.93345,0.0884 -18.63021,-0.3282 -23.77057,-0.92568 z m 135.54135,-0.0524 c -0.37099,-0.96677 -0.51853,-7.12841 -0.32788,-13.69256 l 0.34663,-11.93483 15.02547,-0.75102 c 22.33959,-1.1166 30.25619,-4.04995 34.761,-12.8801 3.93087,-7.70516 4.88536,-18.19569 4.9391,-54.28403 0.0678,-45.53722 2.10697,-56.75603 12.38367,-68.13109 3.71756,-4.11491 12.45652,-9.42809 19.13698,-11.63507 3.59241,-1.1868 2.36055,-2.62556 -4.783,-5.58639 -7.99576,-3.31406 -16.36556,-10.56244 -19.66531,-17.03049 -5.59973,-10.97638 -6.20319,-16.27265 -7.09801,-62.29616 -0.90467,-46.52939 -1.58069,-52.05939 -7.24424,-59.25943 -4.17873,-5.31238 -14.25432,-8.18343 -31.82917,-9.06971 l -15.62649,-0.78804 v -12.6214 -12.6214 l 18.63159,0.0948 c 20.41485,0.10388 34.20006,2.24942 44.86534,6.9829 12.45875,5.52947 18.25204,12.97772 22.62404,29.08703 2.32224,8.55669 2.66527,13.86174 3.41326,52.78609 0.74685,38.86568 1.07985,44.02736 3.2693,50.67584 5.71342,17.34933 15.1307,22.82396 41.82472,24.31432 l 13.22241,0.73823 v 12.6214 12.6214 l -13.22241,0.73823 c -14.98352,0.83654 -21.82919,2.38528 -29.07087,6.57687 -6.30519,3.64953 -9.64857,8.30198 -12.74665,17.73745 -2.17039,6.6101 -2.52541,11.97015 -3.31671,50.07482 -0.95541,46.0072 -1.63506,51.48692 -7.99769,64.4811 -7.95164,16.23935 -25.00143,22.88995 -61.93585,24.15928 -15.89764,0.54635 -19.01202,0.37009 -19.57923,-1.10804 z"
       style="fill:#090909" />
  </g>
</svg>
