<?xml version="1.0" encoding="UTF-8" standalone="no"?>
<svg width="500"
     height="500"
     version="1.1"
     viewBox="0 0 132.292 132.292"
     xmlns="http://www.w3.org/2000/svg">
    <g transform="translate(0,-164.70832)"
       id="g134"
       style="fill:#02cc00;fill-opacity:1">
        <path style="opacity:1;fill:#02cc00;fill-opacity:1;stroke:none;stroke-width:0.10442502;stroke-miterlimit:4;stroke-dasharray:none;stroke-opacity:1"
              transform="matrix(0.26458333,0,0,0.26458333,0,164.70832)"
              d="m 0,0 v 398.3125 c 12.801782,-2.25914 21.08438,-5.19593 24.849609,-8.81055 7.681069,-7.22924 16.191527,-21.91318 25.529297,-44.05273 L 158.13867,93.328125 h 7.90821 l 106.13085,253.634765 160.5,-228.39062 h -98.04687 c -16.26579,0 -28.0889,1.80725 -35.46875,5.42187 -7.22924,3.46401 -12.80096,8.58391 -16.7168,15.36133 -3.76523,6.6268 -7.22978,19.12763 -10.39258,37.50195 h -8.58398 l 6.32422,-76.58398 h 226.5918 L 295.41016,387.63672 c 0.15744,0.14777 0.31605,0.30875 0.47265,0.44922 h 124.82227 c 19.27798,0 34.03592,-4.21628 44.27734,-12.65039 10.39204,-8.43412 19.58021,-25.52903 27.5625,-51.28321 L 500,325.50781 V 0 Z m 500,325.50781 -14.45898,81.10352 H 325.31641 v 0.0605 H 204.45117 v -8.35938 c 12.19935,-0.60244 20.40794,-2.6356 24.625,-6.09961 4.36767,-3.46401 6.55274,-7.68029 6.55274,-12.65039 0,-6.6268 -3.01275,-17.09447 -9.03711,-31.40234 L 208.06641,304.10547 H 89.460938 l -20.783204,48.3457 c -5.120712,11.89813 -7.68164,20.78445 -7.68164,26.65821 0,4.66887 2.185067,8.81116 6.552734,12.42578 4.518276,3.46401 14.156315,5.72308 28.916016,6.77734 v 8.35938 H 0 V 500 H 500 Z M 149.78125,163.58789 96.464844,287.38867 H 201.74023 Z M 0,0 H 500.0013 V 500.0013 H 0 Z"/>
    </g>
</svg>
