<?xml version="1.0" encoding="UTF-8" standalone="no"?>
<svg width="500"
     height="500"
     version="1.1"
     viewBox="0 0 132.292 132.292"
     xmlns="http://www.w3.org/2000/svg">
    <g transform="translate(0,-164.70832)"
       style="fill:#4000ff;fill-opacity:1">
        <path style="opacity:1;fill:#008cff;fill-opacity:1;stroke:none;stroke-width:0.101637;stroke-miterlimit:4;stroke-dasharray:none;stroke-opacity:1"
              transform="matrix(0.26458333,0,0,0.26458333,0,164.70832)"
              d="m 491.32617,317.93945 c -25.91244,86.82936 -93.60192,152.65889 -179.34961,174.42383 -26.54302,6.73724 -67.98354,9.54937 -92.33008,6.26367 C 32.924069,473.42718 -61.20058,264.68662 43.578125,108.16016 58.954891,85.189174 94.107407,51.646228 118.58789,36.583984 161.40827,10.23765 199.71308,-0.22735912 252.48438,0.00390625 280.79334,0.12802619 290.84415,1.2719325 311.66406,6.7363281 406.33858,31.584639 476.87184,106.56045 496.42969,203.14062 c 4.71763,25.9207 5.50553,77.99326 -5.10352,114.79883 z M 255.00781,17.357422 C 232.14365,17.193251 208.00143,19.178584 193.125,23.171875 94.154015,49.738734 23.579385,135.6885 18.300781,236.08203 c -3.519619,66.93937 18.49732,126.4612 64.660157,174.80859 36.432052,38.15615 81.582822,61.37416 136.216792,70.04493 20.84594,3.30837 64.97909,0.75779 87.94532,-5.08203 76.67465,-19.49651 140.62734,-79.36685 164.63086,-154.12305 9.23452,-28.76018 11.31231,-45.9889 9.97851,-82.75391 C 480.68976,210.23883 479.26648,200.475 473.5332,182.7207 446.7238,99.699261 385.65729,42.68562 301.07617,21.708984 289.80086,18.91264 272.79105,17.48511 255.00781,17.357422 Z m 141.78907,83.105468 c 0.50621,0.008 0.9333,0.14428 1.3164,0.37305 11.0137,6.57677 7.65528,10.90182 -69.9707,90.14062 -41.85243,42.72204 -77.35579,77.67774 -78.89649,77.67774 -1.54069,0 -26.44879,-23.56422 -55.35156,-52.36524 -28.90275,-28.801 -52.55078,-54.29174 -52.55078,-56.64453 0,-2.3528 3.59831,-7.30702 7.99609,-11.00976 l 7.9961,-6.73243 46.96679,46.94727 c 25.83204,25.82085 48.5337,46.94727 50.44727,46.94727 1.91357,0 33.9026,-30.99267 71.08789,-68.87305 53.67294,-54.67623 66.06559,-66.53452 70.95899,-66.46094 z"
        />
    </g>
</svg>
